<svg width="120" height="100" viewBox="0 0 120 100" fill="none" xmlns="http://www.w3.org/2000/svg">
<g clip-path="url(#clip0_7_27)">
<path d="M27.2728 99.5078V48.2591L12.8939 33.7187L0 25.6497V90.4637C0 95.4679 3.66797 99.5078 8.18203 99.5078H27.2728V99.5078Z" fill="#4285F4"/>
<path d="M92.7272 99.5078H111.818C116.346 99.5078 120 95.4528 120 90.4637V25.6503L105.396 34.8922L92.7272 48.2591V99.5078V99.5078Z" fill="#34A853"/>
<path d="M27.2728 48.2591L25.3163 28.2347L27.2728 9.06943L60 36.201L92.7272 9.06943L94.9158 27.2L92.7272 48.2591L60 75.3907L27.2728 48.2591Z" fill="#EA4335"/>
<path d="M92.7272 9.06958V48.2592L120 25.6499V13.5913C120 2.40741 108.45 -3.96824 100.364 2.73901L92.7272 9.06958Z" fill="#FBBC04"/>
<path d="M0 25.6497L12.5433 36.0486L27.2728 48.259V9.06935L19.6359 2.73878C11.5359 -3.96899 0 2.40718 0 13.5906V25.6491V25.6497Z" fill="#C5221F"/>
</g>
<defs>
<clipPath id="clip0_7_27">
<rect width="120" height="100" fill="white"/>
</clipPath>
</defs>
</svg>
