<svg width="50" height="50" viewBox="0 0 50 50" fill="none" xmlns="http://www.w3.org/2000/svg">
<path d="M25 45.8333C36.5062 45.8333 45.8333 36.5062 45.8333 25C45.8333 13.4937 36.5062 4.16666 25 4.16666C13.4937 4.16666 4.16666 13.4937 4.16666 25C4.16666 36.5062 13.4937 45.8333 25 45.8333Z" stroke="gray" stroke-width="1.5" stroke-linecap="round" stroke-linejoin="round"/>
<path d="M29.8604 39.5833V35.7021C29.9125 35.0563 29.8229 34.4104 29.5979 33.8C29.3714 33.1892 29.0161 32.6343 28.5562 32.1729C32.9166 31.7 37.5 30.0896 37.5 22.7063C37.496 20.8085 36.748 18.9879 35.4166 17.6354C36.0503 15.9856 36.0053 14.1522 35.2916 12.5354C35.2916 12.5354 33.6521 12.0625 29.8604 14.5375C26.6745 13.6976 23.3254 13.6976 20.1396 14.5375C16.3479 12.0625 14.7083 12.5375 14.7083 12.5375C13.9958 14.1531 13.9508 15.9848 14.5833 17.6333C13.2427 18.9958 12.494 20.8323 12.5 22.7438C12.5 30.075 17.0833 31.6833 21.4437 32.2104C20.9888 32.6678 20.6366 33.2167 20.4104 33.8208C20.1859 34.4204 20.0935 35.0614 20.1396 35.7V39.5833" stroke="gray" stroke-width="1.5" stroke-linecap="round" stroke-linejoin="round"/>
<path d="M20.1396 36.8792C15.9729 38.1937 12.5 36.8792 10.4167 32.8208" stroke="gray" stroke-width="1.5" stroke-linecap="round" stroke-linejoin="round"/>
</svg>
