<svg width="100" height="100" viewBox="0 0 100 100" fill="none" xmlns="http://www.w3.org/2000/svg">
<path d="M35.4093 16.0122C36.9228 16.0122 38.3174 16.833 39.0522 18.1565L44.1489 27.3373C44.8162 28.5394 44.8476 29.9933 44.2326 31.2231L39.3226 41.0433C39.3226 41.0433 40.7455 48.3587 46.7005 54.3138C52.6557 60.2687 59.9466 61.6671 59.9466 61.6671L69.7651 56.7579C70.9957 56.1425 72.4507 56.1744 73.6532 56.8429L82.8601 61.9617C84.1824 62.6969 85.0022 64.0906 85.0022 65.6033V76.1731C85.0022 81.5558 80.0024 85.4435 74.9024 83.7225C64.4274 80.1881 48.1676 73.4585 37.8618 63.1525C27.5559 52.8467 20.8261 36.5869 17.2917 26.1121C15.5708 21.0119 19.4585 16.0122 24.8412 16.0122H35.4093Z" fill="#EA4335" stroke="#EA4335" stroke-width="4" stroke-linejoin="round"/>
</svg>
