<svg width="20" height="20" viewBox="0 0 20 20" fill="none" xmlns="http://www.w3.org/2000/svg">
<path d="M12.337 5L7.664 5ZM10 19V18ZM3.636 16.364L4.343 15.657ZM1 10H2ZM18 10H19ZM15.657 15.657L16.364 16.364ZM13.536 6.464C14.2351 7.16331 14.7112 8.05423 14.904 9.0241C15.0968 9.99397 14.9977 10.9992 14.6193 11.9128C14.2408 12.8263 13.5999 13.6072 12.7777 14.1565C11.9555 14.7059 10.9889 14.9991 10 14.9991C9.01115 14.9991 8.0445 14.7059 7.22229 14.1565C6.40007 13.6072 5.7592 12.8263 5.38073 11.9128C5.00225 10.9992 4.90316 9.99397 5.09598 9.0241C5.2888 8.05423 5.76487 7.16331 6.464 6.464L7.012 5.917C7.32529 5.60365 7.57379 5.23166 7.74331 4.82227C7.91284 4.41288 8.00006 3.9741 8 3.531V3C8 2.46957 8.21071 1.96086 8.58579 1.58579C8.96086 1.21071 9.46957 1 10 1C10.5304 1 11.0391 1.21071 11.4142 1.58579C11.7893 1.96086 12 2.46957 12 3V3.531C12 4.426 12.356 5.285 12.988 5.917L13.536 6.464Z" fill="#F7EAA4"/>
<path d="M12.337 5L7.664 5M10 19V18M3.636 16.364L4.343 15.657M1 10H2M18 10H19M15.657 15.657L16.364 16.364M13.536 6.464C14.2351 7.16331 14.7112 8.05423 14.904 9.0241C15.0968 9.99397 14.9977 10.9992 14.6193 11.9128C14.2408 12.8263 13.5999 13.6072 12.7777 14.1565C11.9555 14.7059 10.9889 14.9991 10 14.9991C9.01115 14.9991 8.0445 14.7059 7.22229 14.1565C6.40007 13.6072 5.7592 12.8263 5.38073 11.9128C5.00225 10.9992 4.90316 9.99397 5.09598 9.0241C5.2888 8.05423 5.76487 7.16331 6.464 6.464L7.012 5.917C7.32529 5.60365 7.57379 5.23166 7.74331 4.82227C7.91284 4.41288 8.00006 3.9741 8 3.531V3C8 2.46957 8.21071 1.96086 8.58579 1.58579C8.96086 1.21071 9.46957 1 10 1C10.5304 1 11.0391 1.21071 11.4142 1.58579C11.7893 1.96086 12 2.46957 12 3V3.531C12 4.426 12.356 5.285 12.988 5.917L13.536 6.464Z" stroke="#F7EAA4" stroke-width="2" stroke-linecap="round" stroke-linejoin="round"/>
</svg>
