<svg width="50" height="50" viewBox="0 0 50 50" fill="none" xmlns="http://www.w3.org/2000/svg">
<g clip-path="url(#clip0_5_102)">
<path d="M49.057 22.7725L27.2266 0.943164C25.9701 -0.314063 23.9311 -0.314063 22.673 0.943164L18.1398 5.47637L23.8904 11.227C25.2268 10.7754 26.7592 11.0783 27.8244 12.1436C28.8947 13.2156 29.1955 14.7611 28.733 16.1018L34.275 21.6439C35.6158 21.182 37.1629 21.4809 38.2338 22.5535C39.7305 24.0496 39.7305 26.4744 38.2338 27.9715C36.7367 29.4688 34.3119 29.4688 32.8141 27.9715C31.6883 26.8445 31.4102 25.1912 31.9801 23.8043L26.8117 18.6359L26.8111 32.2369C27.1858 32.4222 27.528 32.6669 27.8244 32.9615C29.3211 34.4576 29.3211 36.8826 27.8244 38.3809C26.3273 39.8773 23.9014 39.8773 22.4064 38.3809C20.9098 36.8826 20.9098 34.4578 22.4064 32.9617C22.7651 32.6029 23.1914 32.3187 23.6605 32.1256V18.3979C23.1907 18.206 22.7642 17.9217 22.4064 17.5617C21.2725 16.4293 20.9998 14.7654 21.5809 13.373L15.9121 7.70371L0.943359 22.6715C-0.314453 23.9299 -0.314453 25.9691 0.943359 27.2266L22.7742 49.0563C24.0311 50.3137 26.0697 50.3137 27.3281 49.0563L49.0568 27.3279C50.3143 26.0701 50.3143 24.0297 49.0568 22.7725" fill="#DE4C36"/>
</g>
<defs>
<clipPath id="clip0_5_102">
<rect width="50" height="50" fill="white"/>
</clipPath>
</defs>
</svg>
