<svg width="50" height="55" viewBox="0 0 50 55" fill="none" xmlns="http://www.w3.org/2000/svg">
<g clip-path="url(#clip0_102_46)">
<path d="M23.6225 54.4707C24.0312 54.6985 24.4951 54.8184 24.9672 54.8184C25.4393 54.8184 25.9031 54.6985 26.3119 54.4707L48.5932 42.0712C49.0026 41.8436 49.3426 41.5159 49.5789 41.1213C49.8153 40.7266 49.9396 40.2789 49.9395 39.8232V15.0052C49.9393 14.5496 49.815 14.1022 49.579 13.7076C49.3429 13.3131 49.0034 12.9854 48.5945 12.7573L26.3133 0.347657C25.904 0.11986 25.4397 -6.10352e-05 24.9671 -6.10352e-05C24.4945 -6.10352e-05 24.0302 0.11986 23.6209 0.347657L1.34551 12.7573C0.936474 12.9852 0.596817 13.3129 0.360644 13.7075C0.124471 14.102 9.30715e-05 14.5496 0 15.0052V39.8248C0 40.7512 0.513086 41.6076 1.34609 42.071L23.6223 54.4705" fill="#76D04B"/>
<path d="M39.3947 21.4935L38.4011 20.942C39.9291 18.7685 40.8422 15.5008 39.6972 10.6154C39.6972 10.6154 37.1187 17.5844 31.9355 17.3534L25.8666 13.9854C25.6402 13.8573 25.3842 13.7855 25.1219 13.7765H24.9818C24.7189 13.7862 24.4624 13.8579 24.2349 13.9854L18.1652 17.3532C12.9826 17.5849 10.4035 10.6152 10.4035 10.6152C9.25779 15.5004 10.1724 18.7682 11.7 20.9418L10.7064 21.4935C10.4573 21.6323 10.2505 21.832 10.1068 22.0724C9.96314 22.3129 9.88769 22.5855 9.88806 22.863L9.91795 43.0797C9.91795 43.3618 10.0693 43.6231 10.3261 43.7604C10.4484 43.8321 10.5888 43.87 10.7319 43.87C10.875 43.87 11.0154 43.8321 11.1377 43.7604L19.1775 39.3205C19.6863 39.0291 19.9957 38.5151 19.9957 37.953V28.5084C19.9957 27.9453 20.3051 27.4231 20.8115 27.1442L24.2351 25.2429C24.4836 25.1029 24.7663 25.0294 25.0541 25.0301C25.3399 25.0294 25.6207 25.1028 25.867 25.2427L29.2894 27.144C29.5382 27.2818 29.7448 27.4805 29.8882 27.72C30.0317 27.9596 30.107 28.2314 30.1064 28.5081V37.9528C30.1064 38.5147 30.4199 39.0327 30.9256 39.3203L38.9635 43.7598C39.0868 43.8314 39.2281 43.8692 39.372 43.8692C39.516 43.8692 39.6573 43.8314 39.7806 43.7598C39.9042 43.6907 40.0068 43.5913 40.078 43.4719C40.1492 43.3524 40.1866 43.2169 40.1863 43.0791L40.2125 22.8625C40.2119 22.294 39.9027 21.773 39.3949 21.4931V21.4933L39.3947 21.4935Z" fill="#4F4D3F"/>
</g>
<defs>
<clipPath id="clip0_102_46">
<rect width="50" height="55" fill="white"/>
</clipPath>
</defs>
</svg>
