<svg width="53" height="60" viewBox="0 0 53 60" fill="none" xmlns="http://www.w3.org/2000/svg">
<path d="M26.5 0.00991821L53 14.9903V44.9607L26.5 59.941L0 44.9607V14.9903L26.5 0.00991821Z" fill="white"/>
<path d="M48.27 43.9215L27.3801 55.7435V46.5497L40.4001 39.3844L48.27 43.9215ZM49.6999 42.6323V17.9284L42.0601 22.3353V38.225L49.6999 42.6323ZM4.64992 43.9213L25.54 55.7338V46.5397L12.52 39.3844L4.64992 43.9215V43.9213ZM3.21996 42.6323V17.9284L10.86 22.3353V38.225L3.21996 42.6323ZM4.11019 16.3295L25.54 4.21719V13.1117L11.8101 20.6566L11.7 20.7166L4.11019 16.3293V16.3295ZM48.8 16.3295L27.3801 4.21698V13.1115L41.1 20.6663L41.21 20.7263L48.8 16.3291V16.3295Z" fill="#8ED6FB"/>
<path d="M25.54 44.4511L12.6999 37.3856V23.4048L25.54 30.81V44.4511ZM27.3801 44.4511L40.2202 37.3957V23.4048L27.3801 30.81V44.4511ZM13.5599 21.7858L26.46 14.7004L39.3498 21.7858L26.46 29.221L13.5599 21.7858Z" fill="#1C78C0"/>
</svg>
