<svg width="50" height="50" viewBox="0 0 50 50" fill="none" xmlns="http://www.w3.org/2000/svg">
<g clip-path="url(#clip0_5_67)">
<path d="M49.7955 28.1744C51.5453 14.477 41.8719 1.9541 28.1994 0.204492C14.527 -1.54531 1.9541 8.12813 0.204492 21.8006C-1.54531 35.473 8.12813 48.0209 21.8006 49.7955C35.498 51.5453 48.0209 41.8719 49.7955 28.1744Z" fill="#FF6C37"/>
<path d="M34.0234 16.0516L23.4752 26.5998L20.5006 23.6252C30.8738 13.2521 31.8986 14.1519 34.0232 16.0516H34.0234Z" fill="white"/>
<path d="M23.4752 26.8496C23.4002 26.8496 23.3502 26.8246 23.3002 26.7746L20.3008 23.8002C20.2771 23.7776 20.2583 23.7505 20.2454 23.7204C20.2325 23.6904 20.2259 23.658 20.2259 23.6253C20.2259 23.5926 20.2325 23.5602 20.2454 23.5302C20.2583 23.5001 20.2771 23.4729 20.3008 23.4504C30.8488 12.9021 31.9486 13.9019 34.1732 15.9016C34.2232 15.9516 34.2482 16.0016 34.2482 16.0766C34.2482 16.1516 34.2232 16.2016 34.1732 16.2516L23.6252 26.7746C23.6002 26.8246 23.5252 26.8496 23.4752 26.8496ZM20.8508 23.6252L23.4752 26.2498L33.6484 16.0766C31.7988 14.4269 30.5488 13.9269 20.8508 23.6254V23.6252Z" fill="#FF6C37"/>
<path d="M26.4996 29.6242L23.6252 26.7496L34.1732 16.2016C36.9979 19.0512 32.7736 23.6752 26.4996 29.6242Z" fill="white"/>
<path d="M26.4996 29.8742C26.4246 29.8742 26.3746 29.8492 26.3248 29.7992L23.4502 26.9246C23.4002 26.8746 23.4002 26.8246 23.4002 26.7496C23.4002 26.6748 23.4252 26.6246 23.4752 26.5748L34.0234 16.0266C34.046 16.0029 34.0732 15.984 34.1032 15.9711C34.1333 15.9582 34.1657 15.9515 34.1984 15.9515C34.2312 15.9515 34.2636 15.9582 34.2936 15.9711C34.3237 15.984 34.3509 16.0029 34.3734 16.0266C34.6926 16.3219 34.9447 16.6822 35.1129 17.0832C35.281 17.4842 35.3613 17.9166 35.3482 18.3512C35.2982 21.1258 32.149 24.65 26.6998 29.7992C26.6248 29.8492 26.5498 29.8742 26.4998 29.8742H26.4996ZM23.9752 26.7496C25.5748 28.3744 26.2498 29.0242 26.4996 29.2742C30.6988 25.275 34.773 21.1758 34.7982 18.3512C34.8232 17.7014 34.5732 17.0514 34.1482 16.5516L23.9752 26.7496Z" fill="#FF6C37"/>
<path d="M20.5508 23.7002L22.6754 25.8248C22.7254 25.8748 22.7254 25.9248 22.6754 25.9748C22.6504 25.9998 22.6504 25.9998 22.6254 25.9998L18.2262 26.9496C18.0012 26.9746 17.8012 26.8246 17.7512 26.5998C17.7262 26.4748 17.7762 26.3498 17.8512 26.2748L20.4008 23.7252C20.4508 23.6752 20.5258 23.6502 20.5508 23.7002Z" fill="white"/>
<path d="M18.1512 27.1996C17.7762 27.1996 17.5014 26.8996 17.5014 26.5248C17.5014 26.3498 17.5764 26.1748 17.7014 26.0498L20.2508 23.5002C20.4008 23.3752 20.6008 23.3752 20.7508 23.5002L22.8754 25.6248C23.0254 25.7498 23.0254 25.9748 22.8754 26.1248C22.8254 26.1748 22.7754 26.1998 22.7004 26.2248L18.3012 27.1746C18.2512 27.1746 18.2012 27.1996 18.1512 27.1996ZM20.4758 23.9752L18.0262 26.4248C17.9762 26.4748 17.9512 26.5498 18.0012 26.6248C18.0262 26.6998 18.1012 26.7246 18.1762 26.6998L22.3004 25.7998L20.4758 23.9752Z" fill="#FF6C37"/>
<path d="M39.5973 10.2027C37.9977 8.65293 35.423 8.70293 33.8734 10.3277C32.3236 11.9523 32.3736 14.502 33.9984 16.0516C34.6397 16.6712 35.468 17.0612 36.3542 17.1607C37.2404 17.2602 38.1346 17.0636 38.8973 16.6016L36.0477 13.752L39.5971 10.2027H39.5973Z" fill="white"/>
<path d="M36.7979 17.4264C34.4232 17.4264 32.4986 15.5018 32.4986 13.1272C32.4986 10.7526 34.4232 8.82794 36.7979 8.82794C37.8975 8.82794 38.9725 9.25294 39.7725 10.0277C39.8223 10.0777 39.8473 10.1277 39.8473 10.2027C39.8473 10.2777 39.8223 10.3277 39.7723 10.3777L36.3979 13.752L39.0475 16.4016C39.1475 16.5016 39.1475 16.6516 39.0475 16.7516L38.9975 16.8016C38.3475 17.2014 37.5727 17.4266 36.7979 17.4266V17.4264ZM36.7979 9.35294C34.6982 9.35294 32.9984 11.0526 33.0234 13.1522C33.0234 15.2518 34.7232 16.9516 36.8229 16.9266C37.3977 16.9266 37.9727 16.8016 38.4975 16.5266L35.873 13.927C35.823 13.877 35.798 13.827 35.798 13.752C35.798 13.6772 35.823 13.627 35.873 13.5772L39.2225 10.2276C38.5475 9.65275 37.6977 9.35294 36.7979 9.35294Z" fill="#FF6C37"/>
<path d="M39.6723 10.2777L39.6223 10.2277L36.048 13.7519L38.8725 16.5766C39.1475 16.4016 39.4223 16.2016 39.6473 15.9766C40.026 15.6056 40.3273 15.1632 40.5337 14.675C40.7402 14.1868 40.8477 13.6624 40.85 13.1324C40.8523 12.6023 40.7494 12.077 40.5473 11.587C40.3451 11.097 40.0477 10.652 39.6723 10.2777Z" fill="white"/>
<path d="M38.8975 16.8516C38.8225 16.8516 38.7725 16.8266 38.7225 16.7766L35.8729 13.9269C35.823 13.8769 35.798 13.8269 35.798 13.7519C35.798 13.6771 35.823 13.6269 35.873 13.5771L39.4223 10.0277C39.4448 10.004 39.472 9.98514 39.5021 9.97225C39.5321 9.95935 39.5645 9.9527 39.5973 9.9527C39.63 9.9527 39.6624 9.95935 39.6925 9.97225C39.7226 9.98514 39.7497 10.004 39.7723 10.0277L39.8473 10.0777C41.5221 11.7523 41.5221 14.4519 39.8723 16.1516C39.6223 16.4016 39.3475 16.6266 39.0475 16.8016C38.9725 16.8266 38.9225 16.8516 38.8975 16.8516ZM36.3979 13.7519L38.9225 16.2766C39.1225 16.1516 39.3225 15.9766 39.4723 15.8267C40.8971 14.4019 40.9721 12.0773 39.5973 10.5775L36.398 13.7519H36.3979Z" fill="#FF6C37"/>
<path d="M34.4482 16.5016C34.1597 16.2135 33.7687 16.0517 33.3609 16.0517C32.9532 16.0517 32.5622 16.2135 32.2736 16.5016L22.8504 25.9248L24.425 27.4996L34.3982 18.7512C35.0482 18.2012 35.098 17.2264 34.5482 16.5766C34.4982 16.5516 34.4732 16.5266 34.4482 16.5016Z" fill="white"/>
<path d="M24.4 27.7496C24.325 27.7496 24.275 27.7246 24.225 27.6746L22.6504 26.0998C22.6267 26.0772 22.6078 26.0501 22.5949 26.02C22.582 25.9899 22.5754 25.9575 22.5754 25.9248C22.5754 25.8921 22.582 25.8597 22.5949 25.8296C22.6078 25.7995 22.6267 25.7724 22.6504 25.7498L32.0736 16.3266C32.2391 16.1602 32.4358 16.0282 32.6524 15.9381C32.869 15.848 33.1013 15.8017 33.3359 15.8017C33.5705 15.8017 33.8029 15.848 34.0195 15.9381C34.2361 16.0282 34.4328 16.1602 34.5982 16.3266C34.7646 16.492 34.8966 16.6887 34.9867 16.9053C35.0768 17.122 35.1231 17.3543 35.1231 17.5889C35.1231 17.8235 35.0768 18.0558 34.9867 18.2724C34.8966 18.489 34.7646 18.6857 34.5982 18.8512L34.5232 18.9262L24.55 27.6746C24.525 27.7246 24.475 27.7496 24.4 27.7496ZM23.2002 25.9248L24.425 27.1496L34.2232 18.5512C34.7732 18.1012 34.8232 17.2764 34.3732 16.7266C33.9234 16.1766 33.0984 16.1266 32.5486 16.5766C32.5236 16.6016 32.4986 16.6266 32.4486 16.6516L23.2002 25.925V25.9248Z" fill="#FF6C37"/>
<path d="M15.6266 36.6479C15.5268 36.6979 15.4768 36.7979 15.5016 36.8979L15.9266 38.6975C16.0266 38.9475 15.8766 39.2475 15.6016 39.3225C15.4018 39.3975 15.1768 39.3225 15.0518 39.1725L12.3021 36.4479L21.2756 27.4746L24.3752 27.5246L26.4748 29.6242C25.9748 30.049 22.9504 32.9736 15.6266 36.6479Z" fill="white"/>
<path d="M15.4268 39.5723C15.2268 39.5723 15.0268 39.4975 14.9018 39.3475L12.1771 36.6229C12.1273 36.5729 12.1023 36.5229 12.1023 36.448C12.1023 36.373 12.1273 36.323 12.1773 36.273L21.1506 27.2996C21.2006 27.2496 21.2756 27.2246 21.3256 27.2246L24.4252 27.2746C24.5 27.2746 24.5502 27.2996 24.6 27.3496L26.6996 29.4492C26.7496 29.4992 26.7746 29.5742 26.7746 29.6492C26.7746 29.7242 26.7496 29.7742 26.6746 29.8242L26.4996 29.974C23.8502 32.2986 20.2508 34.6232 15.7766 36.8479L16.2016 38.6227C16.2766 38.9475 16.1266 39.2975 15.8266 39.4723C15.6766 39.5475 15.5516 39.5725 15.4268 39.5725V39.5723ZM12.6771 36.448L15.2518 38.9975C15.3268 39.1225 15.4768 39.1725 15.6016 39.0975C15.7266 39.0225 15.7766 38.8725 15.7016 38.7475L15.2768 36.9479C15.2268 36.7229 15.3268 36.5229 15.5268 36.423C19.9508 34.1984 23.5252 31.8988 26.1498 29.6242L24.3002 27.7746L21.4256 27.7246L12.6771 36.448Z" fill="#FF6C37"/>
<path d="M10.1777 38.5977L12.3271 36.4481L15.5268 39.6473L10.4275 39.2975C10.2025 39.2725 10.0525 39.0725 10.0777 38.8475C10.0777 38.7475 10.1027 38.6475 10.1775 38.5975L10.1777 38.5977Z" fill="white"/>
<path d="M15.5268 39.8723L10.4025 39.5225C10.0275 39.4975 9.77754 39.1725 9.80273 38.7975C9.82773 38.6475 9.87773 38.4976 10.0027 38.3976L12.1523 36.248C12.1749 36.2244 12.202 36.2055 12.2321 36.1926C12.2622 36.1798 12.2945 36.1731 12.3272 36.1731C12.36 36.1731 12.3923 36.1798 12.4224 36.1926C12.4524 36.2055 12.4796 36.2244 12.5021 36.248L15.7016 39.4473C15.7766 39.5225 15.8016 39.6225 15.7516 39.7223C15.7016 39.8223 15.6266 39.8723 15.5268 39.8723ZM12.3271 36.798L10.3525 38.7726C10.2775 38.8225 10.2775 38.9475 10.3525 38.9975C10.3775 39.0225 10.4025 39.0475 10.4525 39.0475L14.8768 39.3475L12.3271 36.7978V36.798ZM20.4008 28.6244C20.2508 28.6244 20.1508 28.4994 20.1508 28.3744C20.1508 28.2994 20.1758 28.2494 20.2258 28.1994L22.6504 25.7748C22.673 25.7511 22.7001 25.7322 22.7302 25.7193C22.7603 25.7064 22.7927 25.6998 22.8254 25.6998C22.8581 25.6998 22.8905 25.7064 22.9206 25.7193C22.9507 25.7322 22.9778 25.7511 23.0004 25.7748L24.575 27.3496C24.65 27.4246 24.675 27.4996 24.65 27.5996C24.625 27.6746 24.55 27.7496 24.45 27.7746L20.4508 28.6242H20.4008V28.6244ZM22.8254 26.2998L21.1756 27.9494L23.8752 27.3746L22.8254 26.2998Z" fill="#FF6C37"/>
<path d="M24.375 27.5246L21.6256 28.1244C21.4256 28.1744 21.2256 28.0494 21.1756 27.8494C21.1506 27.7244 21.1756 27.5994 21.2756 27.4996L22.8004 25.9748L24.375 27.5246Z" fill="white"/>
<path d="M21.5756 28.3744C21.4933 28.3752 21.4116 28.3596 21.3354 28.3285C21.2592 28.2974 21.19 28.2514 21.1318 28.1932C21.0736 28.135 21.0276 28.0658 20.9965 27.9896C20.9653 27.9134 20.9498 27.8317 20.9506 27.7494C20.9506 27.5746 21.0256 27.4246 21.1256 27.2996L22.6504 25.7748C22.673 25.7511 22.7001 25.7322 22.7302 25.7193C22.7603 25.7064 22.7927 25.6998 22.8254 25.6998C22.8581 25.6998 22.8905 25.7064 22.9206 25.7193C22.9507 25.7322 22.9778 25.7511 23.0004 25.7748L24.575 27.3496C24.65 27.4246 24.675 27.4996 24.65 27.5996C24.625 27.6746 24.55 27.7496 24.45 27.7746L21.7006 28.3744H21.5756ZM22.8254 26.2998L21.4756 27.6494C21.4256 27.6996 21.4256 27.7496 21.4506 27.7994C21.4756 27.8494 21.5256 27.8744 21.6006 27.8744L23.9002 27.3744L22.8254 26.2998ZM39.6973 12.6771C39.6473 12.5273 39.4723 12.4523 39.3223 12.5023C39.1725 12.5523 39.0975 12.7271 39.1475 12.8773C39.1475 12.9021 39.1725 12.9271 39.1725 12.9521C39.3225 13.2521 39.2725 13.6271 39.0725 13.9019C38.9725 14.0269 38.9975 14.2019 39.0975 14.3019C39.2225 14.4019 39.3973 14.3769 39.4973 14.2519C39.8723 13.7769 39.9473 13.1771 39.6973 12.6771Z" fill="#FF6C37"/>
</g>
<defs>
<clipPath id="clip0_5_67">
<rect width="50" height="50" fill="white"/>
</clipPath>
</defs>
</svg>
