<svg width="50" height="81" viewBox="0 0 50 81" fill="none" xmlns="http://www.w3.org/2000/svg">
<path d="M48.9729 32.8813C48.9729 46.373 38.217 57.3206 24.9418 57.3206C11.6666 57.3206 0.91095 46.373 0.91095 32.8813C0.91095 19.3895 11.6668 8.44186 24.9418 8.44186C38.2172 8.44186 48.9731 19.3895 48.9731 32.8813" fill="#D33833"/>
<path d="M1.89923 38.9332C1.89923 38.9332 0.15509 13.4534 23.7791 12.7207L22.1318 9.9838L9.32169 14.2626L5.659 18.4451L2.46134 24.5356L0.639465 31.6285L1.18224 36.37" fill="#EF3D3A"/>
<path d="M8.48831 16.2093C4.28303 20.5074 1.66663 26.4246 1.66663 32.9777C1.66663 39.5307 4.28303 45.4478 8.48831 49.7458C12.7131 54.0439 18.5078 56.6845 24.9418 56.6845C31.376 56.6845 37.1705 54.0439 41.3953 49.746C45.6008 45.4478 48.217 39.5307 48.217 32.9777C48.217 26.4245 45.6008 20.5074 41.3953 16.2093C37.1707 11.9305 31.376 9.2709 24.9418 9.2709C18.5272 9.2709 12.7133 11.9113 8.48831 16.2093V16.2093ZM7.42248 50.7674C2.94592 46.2188 0.174438 39.9163 0.174438 32.9777C0.174438 26.0391 2.94592 19.7364 7.42248 15.1686C11.8992 10.6199 18.1008 7.78668 24.942 7.78668C31.783 7.78668 37.9846 10.6199 42.4614 15.1686C46.9379 19.7172 49.7094 26.0196 49.7094 32.9777C49.7094 39.9161 46.9379 46.2188 42.4614 50.7674C37.9846 55.3352 31.783 58.1493 24.9418 58.1493C18.1008 58.1493 11.8992 55.3352 7.42248 50.7674V50.7674Z" fill="#231F20"/>
<path d="M35.0582 33.0161L31.3953 33.5557L26.4535 34.1148L23.2559 34.1919L20.1357 34.0955L17.752 33.3632L15.6395 31.0886L13.9922 26.4437L13.624 25.4414L11.4342 24.7091L10.1549 22.6083L9.24414 19.6014L10.252 16.961L12.6357 16.1322L14.5543 17.0382L15.465 19.0428L16.5697 18.8691L16.9379 18.4066L16.5697 16.3057L16.4729 13.6651L17.0154 10.0224L16.9961 7.9409L18.6627 5.28111L21.5891 3.18016L26.7055 1.00229L32.3838 1.83094L37.3256 5.37745L39.6125 9.02012L41.0852 11.6607L41.4535 18.2137L40.3488 23.861L38.3332 28.8723L36.4342 31.5513" fill="#F0D6B7"/>
<path d="M31.9574 48.763L18.876 49.3026V51.4804L19.9807 59.1323L19.4379 59.7683L10.2906 56.6652L9.65117 55.5666L8.74023 45.2743L6.58906 39.1067L6.12402 37.6419L13.4496 32.6307L15.7365 31.7248L17.752 34.1917L19.4961 35.7338L21.5117 36.3698L22.4225 36.6398L23.5271 41.3811L24.3605 42.3834L26.4729 41.6509L25 44.4839L32.9457 48.2232L31.9574 48.7628" fill="#335061"/>
<path d="M10.252 16.9995L12.6357 16.1709L14.5543 17.0766L15.465 19.0812L16.5697 18.9078L16.8412 17.8091L16.2984 15.7082L16.841 10.697L16.376 7.96014L18.0232 6.05207L21.5891 3.23805L20.5813 1.8696L15.5426 4.33651L13.4303 5.97496L12.248 8.51898L10.4264 10.9861L9.88379 13.8964L10.252 16.9995" fill="#6D6B6D"/>
<path d="M14.0117 8.44188C14.0117 8.44188 15.3875 5.06901 20.8721 3.43075C26.3564 1.7925 21.1436 2.25499 21.1436 2.25499L15.1936 4.5294L12.907 6.80362L11.8992 8.61534L14.0117 8.44188V8.44188ZM11.2598 16.3636C11.2598 16.3636 9.34102 9.98379 16.6666 9.07803L16.3953 7.97938L11.3566 9.15514L9.88379 13.8967L10.252 16.9995L11.2598 16.3636" fill="#DCD9D8"/>
<path d="M14.1861 24.8248L15.3875 23.6683C15.3875 23.6683 15.9303 23.7262 16.0272 24.3622C16.124 24.9983 16.3953 30.7419 20.3295 33.8258C20.6977 34.1148 17.4031 33.3631 17.4031 33.3631L14.4766 28.8144L14.1861 24.8248ZM31.0272 23.09C31.0272 23.09 31.2402 20.3339 31.9961 20.546C32.752 20.7579 32.752 21.5095 32.752 21.5095C32.752 21.5095 30.9303 22.666 31.0272 23.09V23.09ZM38.624 12.9907C38.624 12.9907 37.1123 13.299 36.9768 14.6289C36.841 15.9587 38.624 14.8988 38.8953 14.8024L38.624 12.9907ZM27.5582 13.087C27.5582 13.087 25.5426 13.3568 25.5426 14.6289C25.5426 15.9009 27.8295 15.8045 28.469 15.2649L27.5582 13.087ZM15.1162 19.0041C15.1162 19.0041 11.6475 16.9032 11.2793 18.9078C10.9111 20.9122 10.0971 22.3576 11.8219 24.4585L10.6397 24.0923L9.53517 21.2783L9.16681 18.5414L11.2793 16.3636L13.6629 16.537L15.0389 17.6357L15.1164 19.0041H15.1162ZM16.7637 13.2605C16.7637 13.2605 18.3139 5.24246 26.1822 3.70055C32.6549 2.42844 36.0658 3.97055 37.3449 5.43515C37.3449 5.43515 31.5697 -1.38769 26.0852 0.693838C20.6008 2.79479 16.5697 6.61092 16.6666 9.05879C16.8217 13.2603 16.7635 13.2603 16.7635 13.2603L16.7637 13.2605ZM37.9844 6.34111C37.9844 6.34111 35.3295 6.24477 35.2324 8.61533C35.2324 8.61533 35.2324 8.98167 35.407 9.34782C35.407 9.34782 37.5193 6.97707 38.7984 8.24918" fill="#F7E4CD"/>
<path d="M26.376 9.5984C26.376 9.5984 25.9109 5.97496 22.8101 8.07572C20.7945 9.44417 20.9883 11.3522 21.3373 11.7186C21.7055 12.0847 21.6086 12.817 21.8799 12.3161C22.1512 11.8149 22.0736 10.1767 23.0814 9.71398C24.0697 9.25148 25.7365 8.75052 26.376 9.5984" fill="#F7E4CD"/>
<path d="M17.7715 34.1919L9.16643 38.0078C9.16643 38.0078 12.7324 52.1164 10.9106 56.4916L9.63167 56.0291L9.53479 50.6516L7.151 40.4751L6.14319 37.6609L15.116 31.6475L17.7711 34.1917L17.7715 34.1919ZM18.6434 41.9976L19.8643 43.4818V48.9362H18.411C18.411 48.9362 18.2365 45.1201 18.2365 44.6576C18.2365 44.1949 18.411 42.5567 18.411 42.5567L18.6434 41.9976ZM18.6823 49.7651L14.5543 49.9385L15.7365 50.7674L18.6627 51.2301" fill="#49728B"/>
<path d="M32.7715 48.8593L36.1627 48.763L36.9961 57.1277L33.5272 57.5904L32.7713 48.8591" fill="#335061"/>
<path d="M33.6823 48.8593L38.7985 48.5893C38.7985 48.5893 40.911 43.3084 40.911 43.0386C40.911 42.7686 42.7326 35.3869 42.7326 35.3869L38.6047 31.1081L37.7713 30.3758L35.5815 32.5536V41.0149L33.6823 48.8593" fill="#335061"/>
<path d="M35.969 48.2232L32.7713 48.8593L33.2365 51.4035C34.4186 51.9432 36.4342 50.4976 36.4342 50.4976L35.969 48.2232ZM36.0658 32.2839L42.4807 37.0252L42.6551 34.8471L37.8102 30.395L36.066 32.2839" fill="#49728B"/>
<path d="M21.8605 66.784L19.9613 59.1323L19.0117 53.4851L18.8566 49.3026L27.4418 48.8401H32.7713L32.2869 58.3998L33.1201 65.7817L33.0232 67.1502L26.0658 67.69L21.8605 66.784" fill="white"/>
<path d="M31.5891 48.763C31.5891 48.763 31.124 58.2266 32.5 64.9723C32.5 64.9723 29.748 66.7069 25.7363 67.1502L33.4303 66.8804L34.341 66.3408L33.2365 51.4228L32.9457 48.2232" fill="#DCD9D8"/>
<path d="M37.1319 56.4147L40.6977 55.4123L47.4614 55.0462L48.4692 51.9431L46.6473 46.5657L44.535 46.2959L41.6086 47.2018L38.8178 48.5703L37.3256 48.3003L36.1627 48.763" fill="white"/>
<path d="M37.0736 54.5837C37.0736 54.5837 39.4574 53.4851 39.8256 53.5814L38.8177 48.5703L40 48.1076C40 48.1076 40.8334 52.8491 40.8334 53.3887C40.8334 53.3887 45.9496 53.6585 46.4146 53.6585C46.4146 53.6585 47.5193 51.5576 47.248 49.3797L48.2558 52.2901L48.3527 53.9283L46.8799 56.1062L45.2326 56.4726L42.4806 56.3762L41.5697 55.2004L38.372 55.6629L37.3642 56.0293" fill="#DCD9D8"/>
<path d="M33.4689 48.1268L31.4533 43.0386L29.341 40.0317C29.341 40.0317 29.8062 38.7598 30.4457 38.7598H32.5582L34.5738 39.4921L34.3992 42.8651L33.4689 48.1268" fill="white"/>
<path d="M33.876 46.3922C33.876 46.3922 31.3177 41.4774 31.3177 40.745C31.3177 40.745 31.783 39.6463 32.4224 39.9163C33.0621 40.1861 34.4381 40.9186 34.4381 40.9186V39.1838L31.3177 38.5479L29.2054 38.8177L32.7713 47.2211L33.5076 47.3174" fill="#DCD9D8"/>
<path d="M22.6744 34.3846L20.1357 34.1146L17.752 33.3823V34.2111L18.9146 35.4832L22.5775 37.1215" fill="white"/>
<path d="M18.5853 34.6544C18.5853 34.6544 21.4146 35.8302 22.3451 35.5604L22.4418 36.659L19.8838 36.1192L18.3334 35.0206L18.5853 34.6544" fill="#DCD9D8"/>
<path d="M37.1318 39.0682C35.5814 39.0296 34.1666 38.8369 32.9457 38.49C33.0232 37.9888 32.8681 37.5071 33.0039 37.1407C33.3527 36.8902 33.9146 36.8902 34.4379 36.8325C33.9922 36.6203 33.3527 36.524 32.8488 36.659C32.8293 36.3121 32.6744 36.1 32.5773 35.8302C33.4496 35.5217 35.5039 33.4981 36.6666 34.1532C37.2287 34.4809 37.4613 36.2927 37.5 37.1986C37.5387 37.9309 37.4224 38.6634 37.1318 39.0682" fill="#D33833"/>
<path d="M37.1318 39.0682C35.5814 39.0296 34.1666 38.8369 32.9457 38.49C33.0232 37.9888 32.8681 37.5071 33.0039 37.1407C33.3527 36.8902 33.9146 36.8902 34.4379 36.8325C33.9922 36.6203 33.3527 36.524 32.8488 36.659C32.8293 36.3121 32.6744 36.1 32.5773 35.8302C33.4496 35.5217 35.5039 33.4981 36.6666 34.1532C37.2287 34.4809 37.4613 36.2927 37.5 37.1986C37.5387 37.9309 37.4224 38.6634 37.1318 39.0682V39.0682Z" fill="black" stroke="#D33833" stroke-width="2"/>
<path d="M29.7094 36.5432C29.7094 36.659 29.7094 36.7744 29.6899 36.8902C29.2055 37.1986 28.4301 37.1986 27.8875 37.4684C28.6629 37.5069 29.283 37.6996 29.8256 37.9502C29.8061 38.2394 29.8061 38.5479 29.7869 38.8369C28.8953 39.4344 28.0815 40.3403 27.035 40.9184C26.5311 41.1884 24.8063 41.8823 24.283 41.7473C23.9922 41.6701 23.9535 41.304 23.8373 40.9571C23.5854 40.2248 23.0039 39.0296 22.9457 37.9117C22.8875 36.5048 22.7326 34.134 24.2635 34.4231C25.5037 34.6544 26.9379 35.2134 27.8875 35.7338C28.4883 36.0808 28.8178 36.4661 29.7094 36.5432" fill="#D33833"/>
<path d="M29.7094 36.5432C29.7094 36.659 29.7094 36.7744 29.6899 36.8902C29.2055 37.1986 28.4301 37.1986 27.8875 37.4684C28.6629 37.5069 29.283 37.6996 29.8256 37.9502C29.8061 38.2394 29.8061 38.5479 29.7869 38.8369C28.8953 39.4344 28.0815 40.3403 27.035 40.9184C26.5311 41.1884 24.8063 41.8823 24.283 41.7473C23.9922 41.6701 23.9535 41.304 23.8373 40.9571C23.5854 40.2248 23.0039 39.0296 22.9457 37.9117C22.8875 36.5048 22.7326 34.134 24.2635 34.4231C25.5037 34.6544 26.9379 35.2134 27.8875 35.7338C28.4883 36.0808 28.8178 36.4661 29.7094 36.5432V36.5432Z" fill="black" stroke="#D33833" stroke-width="2"/>
<path d="M30.5814 38.2201C30.4457 37.449 30.2906 37.2373 30.3488 36.5625C32.4225 35.194 32.7906 38.914 30.5812 38.2201" fill="#D33833"/>
<path d="M30.5814 38.2201C30.4457 37.449 30.2906 37.2373 30.3488 36.5625C32.4225 35.194 32.7906 38.914 30.5812 38.2201H30.5814Z" fill="black" stroke="#D33833" stroke-width="2"/>
<path d="M33.5658 38.8369C33.5658 38.8369 32.9264 37.9309 33.3914 37.6611C33.8566 37.3913 34.3023 37.6611 34.5736 37.1986C34.8451 36.7359 34.5736 36.4663 34.6705 35.9265C34.7674 35.3869 35.2131 35.2906 35.6783 35.1942C36.1434 35.0977 37.4225 34.9242 37.5969 35.3677L37.0543 33.7292L35.9496 33.3631L32.4807 35.3677L32.3062 36.37V38.3744L33.5658 38.8369ZM23.9535 41.8436C23.8373 40.4173 23.7211 39.0103 23.6047 37.584C23.4109 35.464 24.1086 35.83 25.9689 35.83C26.2598 35.83 27.7131 36.1579 27.8102 36.37C28.3141 37.3913 26.9768 37.16 28.3914 37.9309C29.5736 38.5671 31.6861 37.5455 31.2016 36.1C30.9301 35.7723 29.8062 36.0036 29.3992 35.7915L27.248 34.6931C26.3373 34.2304 24.2441 33.5365 23.2752 34.1919C20.8139 35.8494 23.4303 40.0126 24.3023 41.7472" fill="#EF3D3A"/>
<path d="M26.376 9.59841C23.876 9.02015 22.6357 10.6392 21.8799 12.3159C21.2016 12.1619 21.4728 11.2367 21.6474 10.7742C22.093 9.55995 23.8955 7.9215 25.3682 8.15284C25.9883 8.22996 26.841 8.80822 26.376 9.59841V9.59841ZM38.5271 12.4122H38.6433C39.2055 13.5688 39.6898 14.8024 40.407 15.8432C39.9226 16.9611 36.8023 17.9247 36.841 15.9588C37.5193 15.6697 38.6822 15.9009 39.283 15.5155C38.9342 14.5711 38.4496 13.7615 38.5271 12.4124V12.4122ZM27.6357 12.4511C28.1783 13.434 28.3525 14.4555 29.1084 15.188C29.4574 15.5155 30.1162 15.9203 29.7869 16.8453C29.7094 17.0574 29.1473 17.5393 28.8178 17.6357C27.6357 17.9826 24.8642 17.7128 25.7945 16.2286C26.7828 16.2672 28.1008 16.8647 28.8373 16.1514C28.2752 15.2649 27.2674 13.4917 27.6357 12.4511ZM38.0814 22.3576C36.2984 23.4949 34.3021 24.7477 31.3566 24.4585C30.7365 23.9189 30.4846 22.7045 31.1047 21.9145C31.4146 22.4541 31.2209 23.4564 32.1125 23.6104C33.7791 23.8997 35.717 22.5889 36.9185 22.1458C37.6549 20.893 36.8605 20.4497 36.1822 19.6401C34.8062 18.0018 32.9846 15.9588 33.0426 13.5111C33.6047 13.1063 33.6433 14.1278 33.7209 14.3013C34.4379 15.9588 36.2404 18.0982 37.5387 19.5245C37.8682 19.8714 38.3914 20.2183 38.4496 20.4497C38.624 21.1049 38.0039 21.9143 38.0814 22.3578V22.3576ZM14.4766 21.1628C13.9146 20.8351 13.7791 19.4474 13.1201 19.4087C12.1705 19.351 12.3449 21.2206 12.3449 22.3191C11.7055 21.741 11.5891 19.9291 12.0543 19.0041C11.5117 18.7341 11.2789 19.2932 10.9689 19.4859C11.376 16.6913 15.0969 18.1945 14.4767 21.1628H14.4766ZM39.2055 23.5333C38.3721 25.1139 37.1898 26.8485 34.748 26.9064C34.6898 26.4052 34.6512 25.615 34.748 25.3066C36.6279 25.1139 37.7906 24.1695 39.2055 23.5333V23.5333ZM27.5 24.5549C29.0504 25.3645 31.9185 25.4608 34.0504 25.4029C34.1666 25.8656 34.1666 26.4437 34.1666 27.0027C31.4342 27.1183 28.217 26.4437 27.5 24.5549ZM27.2094 26.0583C28.2945 28.7566 31.9961 28.4483 35.1162 28.3712C34.9807 28.7181 34.6898 29.1421 34.3023 29.2769C33.2945 29.6817 30.5426 29.9902 29.1473 29.2577C28.2752 28.7952 27.6937 27.735 27.2094 27.1183C26.9961 26.8293 25.8334 26.0775 27.2094 26.0583" fill="#231F20"/>
<path d="M37.9457 40.9184C36.6859 43.077 35.4652 45.2936 33.973 47.1824C34.5929 45.3514 34.8642 42.2676 34.9613 39.9163C36.2791 39.2994 37.4031 40.0511 37.9457 40.9186" fill="#81B0C4"/>
<path d="M44.748 48.6666C43.3334 48.9557 42.3449 50.3241 40.9496 50.2278C41.7248 49.1676 43.0426 48.7051 44.748 48.6666V48.6666ZM45.3681 50.8637C44.2054 50.9795 42.8488 51.1722 41.6861 51.0758C42.248 50.2278 44.3799 50.536 45.3681 50.8637ZM45.7752 52.772C44.4767 52.7912 42.8681 52.772 41.6279 52.6754C42.3642 51.8853 44.9418 52.3864 45.7752 52.772Z" fill="#231F20"/>
<path d="M35.5039 57.9758C35.6976 59.5948 36.3373 61.2333 36.2598 63.0063C35.5426 63.2375 35.1357 63.4496 34.1666 63.4496C34.1086 61.9461 33.8953 59.6335 33.9535 58.1879C34.4185 58.2264 35.1162 57.8602 35.5039 57.9758" fill="#DCD9D8"/>
<path d="M33.4109 34.0763C32.752 34.5002 32.2094 35.0206 31.5697 35.4832C30.1744 35.5604 29.4186 35.3869 28.4109 34.5967C28.4303 34.5388 28.5272 34.5581 28.5272 34.4809C30.0193 35.1363 31.9186 34.2111 33.4109 34.0761" fill="#F0D6B7"/>
<path d="M25.6201 44.1565C26.0271 42.4024 27.6357 41.4774 29.0891 40.5138C30.5813 42.4026 31.4922 44.8311 32.5 47.1824C30.1162 46.4693 27.6937 45.3322 25.6201 44.1565" fill="#81B0C4"/>
<path d="M33.9535 58.2071C33.8953 59.6527 34.0891 61.9464 34.1666 63.4688C35.1357 63.4688 35.5426 63.2569 36.2598 63.0256C36.3373 61.2523 35.6976 59.6141 35.5039 57.995C35.1162 57.8602 34.4185 58.2264 33.9535 58.2071V58.2071ZM18.9922 50.0351C19.6318 55.8364 20.5426 60.6933 22.2285 65.8396C25.9689 66.9767 30.465 67.0731 33.7791 66.0515C33.1783 63.1606 33.4303 59.6335 33.0814 56.5302C32.81 54.1981 32.9457 51.866 32.5775 49.4953C28.5658 48.6666 22.907 49.3026 18.9922 50.0351ZM33.5271 49.5339C33.4883 52.0203 33.6434 54.4872 33.8373 56.9735C34.806 56.8387 35.4457 56.7423 36.3373 56.5302C36.0465 54.1402 36.0853 51.4228 35.4846 49.3026C34.8062 49.322 34.2053 49.3026 33.5271 49.5337V49.5339ZM38.3914 49.1291C37.9264 49.0328 37.4031 49.1291 36.9767 49.1291C37.1898 51.153 37.6744 53.3887 37.8488 55.5281C38.5271 55.5474 38.8953 55.2197 39.4574 55.1233C39.4961 53.2537 39.3023 50.671 38.3914 49.1291ZM45.7752 55.8364C47.2094 55.4895 48.1008 53.7549 47.6937 51.9624C47.4225 50.7674 46.9574 48.4932 46.434 47.722C46.0658 47.1632 45.0387 46.4114 44.2055 46.9318C42.8682 47.7799 40.5232 48.0305 39.5543 49.052C40.0387 50.671 40.1937 52.8683 40.3875 54.9112C42.0543 55.0077 44.0891 54.4489 45.4846 55.0462C44.5154 55.3547 43.2752 55.3547 42.4418 55.8172C43.1394 56.1449 44.7287 56.0872 45.7752 55.8366V55.8364ZM32.4807 47.1824C31.4728 44.8311 30.5621 42.4026 29.0697 40.5138C27.6162 41.4772 26.0271 42.4026 25.6008 44.1565C27.6937 45.3322 30.1164 46.4693 32.4807 47.1824ZM34.9611 39.9163C34.8643 42.2676 34.593 45.3515 33.9728 47.1824C35.465 45.2743 36.6861 43.077 37.9457 40.9184C37.4031 40.0511 36.2791 39.2994 34.9613 39.9161L34.9611 39.9163ZM32.1512 38.9334C31.5891 38.8753 31.1047 39.5886 30.3682 39.2801C30.1937 39.4728 30.0387 39.6657 29.8642 39.8584C31.4922 41.8242 32.248 44.5999 33.5078 46.8934C34.1861 44.677 34.1086 42.2676 34.2637 39.8584C33.3334 39.8969 32.8101 38.9911 32.1512 38.9332V38.9334ZM30.3488 36.5625C30.2906 37.2371 30.4457 37.4492 30.5812 38.2202C32.7906 38.914 32.4225 35.194 30.3488 36.5625ZM27.8875 35.7531C26.9379 35.2325 25.5039 34.6736 24.2635 34.4425C22.7326 34.1533 22.8875 36.524 22.9457 37.9311C23.0039 39.0488 23.5853 40.2246 23.8373 40.9763C23.9535 41.3232 23.9922 41.6894 24.283 41.7665C24.8062 41.8822 26.5504 41.2076 27.035 40.9376C28.0814 40.3788 28.8953 39.473 29.7869 38.8561C29.8062 38.5671 29.8062 38.2586 29.8256 37.9696C29.283 37.6996 28.6822 37.5263 27.8875 37.4878C28.4109 37.2178 29.2055 37.2179 29.6898 36.9096C29.6898 36.7938 29.6898 36.6782 29.7094 36.5625C28.8178 36.4661 28.4883 36.0807 27.8875 35.7531ZM18.7791 34.1148C17.9846 34.9242 21.0076 36.0036 21.9574 36.0615C21.9574 35.5604 22.248 35.0786 22.1898 34.7123C21.0465 34.5196 19.5543 34.6544 18.7791 34.1148ZM28.5467 34.4809C28.5467 34.5581 28.4496 34.5388 28.4303 34.5967C29.4574 35.3869 30.2131 35.5602 31.5891 35.4832C32.2094 35.04 32.7713 34.5004 33.4303 34.0761C31.9185 34.2111 30.0193 35.1363 28.5465 34.4809H28.5467ZM37.5 37.1794C37.4613 36.2927 37.2285 34.4617 36.6666 34.134C35.5039 33.4594 33.4496 35.5025 32.5775 35.8109C32.6744 36.0807 32.8295 36.2927 32.8488 36.6396C33.3723 36.5048 33.9922 36.6011 34.4379 36.813C33.9146 36.8709 33.3527 36.8709 33.0039 37.1215C32.8875 37.4877 33.0426 37.9696 32.9457 38.4707C34.1666 38.8176 35.5814 38.9911 37.1318 39.0488C37.4225 38.6634 37.5387 37.9309 37.5 37.1794V37.1794ZM17.4418 34.8857C17.1898 34.7123 15.5039 32.5342 15.2713 32.6306C12.2287 33.8258 9.37987 35.8881 6.84101 37.8538C9.26347 43.0386 10.2519 49.3797 10.4264 55.4895C13.1978 56.7808 15.6394 58.6504 19.4185 58.8431C18.9728 55.7787 18.5853 53.0224 18.3334 50.1312C17.3838 49.7266 16.0271 50.1507 15.1357 50.0157C15.1357 48.9557 16.4922 49.5532 16.6084 48.8401C16.6861 48.3003 15.8525 48.2618 16.124 47.4137C16.8217 47.6643 17.1898 48.2232 17.9264 48.4353C18.6047 46.9705 17.9264 44.3686 18.0232 43.1349C18.0428 42.9038 18.1394 41.8628 18.6627 42.0363C19.1279 42.1905 18.6434 44.8311 18.6822 45.9874C18.7209 47.0668 18.5465 48.0884 18.9922 48.763C22.6357 48.2618 26.3373 47.9534 30.2906 47.8378C29.4185 47.4716 28.3914 47.1247 27.2674 46.4886C26.6473 46.1416 24.7287 45.4286 24.5543 44.8503C24.2635 43.9251 25.2906 43.4434 25.465 42.653C23.624 43.6553 23.2752 41.6896 22.8295 40.3209C22.4418 39.068 22.2094 38.1238 22.1125 37.4105C20.5039 36.6011 18.7984 35.8494 17.4418 34.8857V34.8857ZM35.8914 32.8811C38.4303 31.6671 38.8953 37.4492 37.8875 39.3188C38.0426 39.8776 38.5658 40.0898 38.7791 40.5907C37.3642 43.1157 35.7947 45.467 34.341 47.9534C35.407 47.2787 36.9574 47.8378 38.217 47.3366C38.6822 47.1632 39.0117 46.1032 39.3605 45.2551C40.3293 42.9422 41.3371 40.0124 41.783 37.8155C41.8799 37.3144 42.1705 36.2155 42.093 35.7723C41.9768 34.9629 40.8914 34.3654 40.3293 33.8834C39.3023 32.9583 38.6627 32.1683 37.5773 31.3008C37.1705 31.9369 36.2402 32.3608 35.8914 32.8813V32.8811ZM11.6473 10.5042C10.4457 11.8342 10.6976 14.3013 10.8334 16.0743C13.0232 14.7061 15.9109 16.1901 15.8914 18.503C16.9379 18.4835 16.2791 17.2116 16.0853 16.3828C15.465 13.7038 17.1318 10.8126 16.1627 8.36495C14.283 8.51899 12.7519 9.27072 11.6473 10.5044V10.5042ZM20.2906 2.81403C17.5582 3.58498 14.0504 5.57016 12.9264 8.01784C13.7984 7.88303 14.3992 7.459 15.2519 7.40111C15.5814 7.38188 16.0078 7.53611 16.376 7.43977C17.1123 7.24708 17.7519 5.58939 18.3139 4.97267C18.8566 4.37517 19.5154 4.10536 19.9613 3.56575C20.2519 3.43075 20.6781 3.43075 20.6976 3.00672C20.5814 2.87172 20.4457 2.77557 20.2906 2.81403V2.81403ZM34.5348 3.54633C31.6861 1.94672 26.8799 0.751731 23.8566 2.25499C21.4146 3.46921 18.1203 5.47362 16.9961 7.9988C18.0426 10.4463 16.6861 12.682 16.5891 15.1684C16.5504 16.4984 17.2094 17.6357 17.2674 19.0812C16.8992 19.6787 15.8139 19.7364 15.0582 19.698C14.8062 18.4257 14.3605 16.9995 13.0426 16.8453C11.1822 16.6334 9.80624 18.1753 9.7287 19.7751C9.63183 21.6639 11.1822 24.7862 13.3914 24.5743C14.2441 24.4972 14.4574 23.6491 15.3875 23.6491C15.8914 24.6514 14.6125 24.9597 14.4768 25.6727C14.4379 25.8656 14.5736 26.5787 14.6705 26.9256C15.0775 28.5639 15.9689 30.7033 16.841 31.9562C17.965 33.5558 20.1551 33.7871 22.5193 33.9413C22.9457 33.0354 24.4961 33.1125 25.5037 33.3438C24.283 32.8621 23.159 31.7056 22.2287 30.684C21.1627 29.5083 20.0775 28.2556 20.0193 26.7137C22.0543 29.5083 23.7209 31.9562 27.4031 33.1898C30.1937 34.1148 33.4496 32.7656 35.6008 31.2623C36.4922 30.6454 37.0154 29.6433 37.6551 28.7566C40.0193 25.3645 41.124 20.5458 40.8914 15.8624C40.7945 13.9351 40.7945 12.0076 40.1355 10.7163C39.4574 9.36706 37.1512 8.13361 35.7945 9.36706C35.5426 8.03726 36.9185 7.22765 38.5269 7.70957C37.3838 6.22554 36.1822 4.47151 34.5348 3.54633V3.54633ZM39.8449 47.1247C42.0736 46.0261 46.2209 44.1757 47.5969 47.1247C48.1203 48.2232 48.7209 50.0543 48.9728 51.1914C49.341 52.772 48.5658 56.1256 46.9185 56.6458C45.465 57.1085 43.7791 57.0893 42.035 56.7424C41.8217 56.5689 41.6086 56.2797 41.4342 55.9712C40.1939 55.9327 39.0117 56.0293 38.0426 56.5497C38.1394 57.4747 37.5193 57.6096 36.9185 57.8025C36.4922 59.5177 37.7906 61.7535 37.4807 63.2954C37.2674 64.4133 35.8914 64.5867 34.8838 64.7794C34.8449 65.3963 34.9225 65.9167 35 66.4371C34.7676 67.2852 33.7402 67.7669 32.7519 67.8827C29.5156 68.268 24.6125 68.4415 21.5117 67.3236C20.6394 65.2036 19.9613 62.6402 19.2441 60.231C16.2209 60.5585 13.7598 58.9394 11.4535 57.8602C10.659 57.4941 9.55429 57.282 9.24413 56.646C8.95351 56.0293 9.06972 54.8535 8.99218 53.7549C8.81777 50.9216 8.64335 48.1847 7.90702 45.2936C7.57753 43.983 6.97675 42.8459 6.56972 41.5932C6.18222 40.4367 5.52323 38.9911 5.34882 37.8346C5.09687 36.1194 6.7248 36.0229 7.75194 35.2711C9.36054 34.1148 10.6201 33.4786 12.3643 32.4379C12.8877 32.1296 14.4379 31.3587 14.6123 30.9923C14.9613 30.2794 14.0117 29.2771 13.7598 28.7181C13.3527 27.8316 13.1394 27.0798 13.0814 26.2123C11.6279 25.9812 10.5039 25.1139 9.84511 24.1502C8.74023 22.5312 7.96503 19.5437 8.93417 17.2887C9.01171 17.1153 9.37987 16.7489 9.43808 16.4791C9.55429 15.9395 9.2248 15.2263 9.20546 14.6482C9.10859 11.6992 9.70937 9.15495 11.7055 8.26841C12.5193 5.04978 15.4262 3.98979 18.159 2.38999C19.1861 1.79249 20.3101 1.40711 21.4728 0.982882C25.6394 -0.539607 32.0543 -0.250571 35.5232 2.35134C36.9961 3.44998 39.341 5.78208 40.1744 7.47823C42.4029 11.9305 42.2287 19.3895 40.6783 24.8249C40.465 25.5572 40.1744 26.6171 39.748 27.5039C39.4574 28.1206 38.5465 29.3348 38.6434 29.8744C38.7598 30.4335 40.7365 31.9175 41.1629 32.3223C41.9187 33.0546 43.3721 34.0184 43.4883 34.9436C43.624 35.9265 43.0621 37.2757 42.7715 38.2202C41.841 41.3811 40.9109 44.2915 39.8449 47.1247V47.1247Z" fill="#231F20"/>
<path d="M25.0196 25.2295C25.1358 25.0752 25.7946 24.8248 26.7248 25.2681C26.7248 25.2681 25.6201 25.4416 25.717 27.2727L25.252 27.1762C25.2715 27.1956 24.7869 25.5379 25.0196 25.2295Z" fill="#F7E4CD"/>
<path d="M33.0426 40.8799C33.0426 41.1497 32.8102 41.3811 32.5387 41.3811C32.2674 41.3811 32.0348 41.1497 32.0348 40.8799C32.0348 40.6099 32.2674 40.3788 32.5387 40.3788C32.8295 40.3788 33.0426 40.6099 33.0426 40.8799ZM33.5465 43.212C33.5465 43.482 33.3141 43.7132 33.0426 43.7132C32.7713 43.7132 32.5387 43.482 32.5387 43.212C32.5387 42.942 32.7713 42.7109 33.0426 42.7109C33.3334 42.7109 33.5465 42.923 33.5465 43.212Z" fill="#1D1919"/>
<path d="M7.15115 72.7011C6.99607 72.7205 6.86033 72.7398 6.74412 72.759C6.6279 72.7784 6.51169 72.7974 6.35642 72.8361C6.18201 72.8746 6.08513 72.9517 6.04646 73.0672C6.00759 73.183 5.96892 73.2986 5.96892 73.4528V78.1555C5.96881 78.569 5.87607 78.9773 5.69744 79.3507C5.52322 79.7168 5.2906 80.0059 4.98064 80.2564C4.67048 80.4878 4.32166 80.6805 3.93396 80.7962C3.54646 80.9118 3.13943 80.9889 2.71326 80.9889C1.9574 80.9889 1.35642 80.8155 0.891382 80.4493C0.426343 80.083 0.193726 79.6012 0.193726 78.9653C0.193726 78.5989 0.290601 78.2905 0.503882 78.0399C0.716968 77.7893 1.00779 77.6738 1.37595 77.6738C1.72478 77.6738 1.99607 77.7701 2.20916 77.9822C2.42244 78.1941 2.51931 78.4447 2.51931 78.7339C2.51931 78.9845 2.42244 79.2351 2.24783 79.4468C2.07361 79.6589 1.86033 79.8711 1.62791 80.0445V80.1216C1.66658 80.1987 1.74412 80.2759 1.86033 80.3335C1.97673 80.3914 2.11228 80.4107 2.22869 80.4107C2.71306 80.4107 3.10076 80.2372 3.37205 79.8903C3.64333 79.5434 3.77908 79.023 3.77908 78.3291V73.5107C3.77908 73.3757 3.75955 73.2407 3.72087 73.1444C3.68201 73.048 3.5658 72.9709 3.39138 72.8938C3.27517 72.8361 3.1199 72.7974 2.94568 72.759C2.77126 72.7203 2.63552 72.7011 2.51931 72.6819V72.2194H7.09294V72.7011H7.15115V72.7011ZM14.3217 79.3314C14.1859 79.5626 14.0115 79.7747 13.8177 79.9866C13.624 80.1987 13.3914 80.3528 13.1394 80.5072C12.8681 80.6612 12.5969 80.7768 12.3256 80.8539C12.0541 80.931 11.7248 80.9697 11.376 80.9697C10.7752 80.9697 10.2713 80.8926 9.82556 80.7191C9.39919 80.5457 9.03103 80.3335 8.75955 80.0445C8.46892 79.7553 8.27517 79.4278 8.12009 79.0422C7.97874 78.6395 7.90664 78.2159 7.90681 77.7893C7.90681 77.3847 7.98435 76.9799 8.13943 76.6138C8.29451 76.2476 8.50759 75.9007 8.77908 75.6115C9.05037 75.3224 9.39919 75.0911 9.82556 74.9176C10.2684 74.7377 10.7425 74.6459 11.2209 74.6476C11.7828 74.6476 12.248 74.7249 12.6162 74.8597C12.9844 74.9947 13.2752 75.1874 13.5076 75.4188C13.7402 75.6499 13.8953 75.9199 14.0115 76.2282C14.1084 76.5366 14.1666 76.8643 14.1666 77.2111V77.5966H10.0775C10.0775 78.4255 10.2324 79.0422 10.5619 79.4662C10.872 79.8903 11.3953 80.1024 12.0736 80.1024C12.4611 80.1024 12.7906 80.0059 13.1008 79.7939C13.4104 79.5856 13.6741 79.3167 13.876 79.0037L14.3217 79.3314V79.3314ZM12.0154 77.0378C12.0154 76.8066 11.9959 76.5561 11.9767 76.3055C11.9572 76.0549 11.9185 75.8428 11.841 75.6886C11.7635 75.4959 11.6859 75.3609 11.5504 75.2645C11.434 75.1682 11.2789 75.1297 11.1047 75.1297C10.7945 75.1297 10.5426 75.2838 10.3681 75.592C10.1744 75.9007 10.0775 76.4016 10.058 77.0763L12.0154 77.0378V77.0378ZM22.8681 80.7576H19.2248V80.3143C19.3023 80.3143 19.3992 80.2949 19.4961 80.2759C19.6123 80.2564 19.6898 80.2372 19.748 80.218C19.8256 80.1793 19.8836 80.1024 19.9224 80.0253C19.9611 79.9482 19.9806 79.8132 19.9806 79.6589V76.8451C19.9806 76.4403 19.9031 76.1318 19.748 75.9199C19.5929 75.7078 19.3799 75.6115 19.0697 75.6115C18.9146 75.6115 18.7595 75.6309 18.624 75.6886C18.4883 75.727 18.3525 75.8042 18.217 75.9007C18.1008 75.9776 18.0039 76.0547 17.9263 76.1513C17.8488 76.2282 17.7906 76.3053 17.7519 76.3824V79.6011C17.7519 79.7361 17.7713 79.8516 17.8099 79.9482C17.8488 80.0445 17.9263 80.1216 18.0039 80.1601C18.0742 80.2071 18.1532 80.2399 18.2363 80.2564L18.5271 80.3143V80.7576H14.8449V80.3143C14.9418 80.3143 15.0386 80.2949 15.1551 80.2759C15.2519 80.2564 15.3488 80.2372 15.4263 80.218C15.5619 80.1793 15.6394 80.1024 15.6976 80.0059C15.7363 79.9095 15.7752 79.7939 15.7752 79.6397V76.1318C15.7752 76.0163 15.7363 75.8813 15.6783 75.7657C15.6201 75.6501 15.5232 75.5536 15.4263 75.4767C15.3488 75.438 15.2713 75.3801 15.1549 75.3609C15.0362 75.3215 14.9118 75.302 14.7867 75.3032V74.8597L17.6744 74.7057L17.7713 74.802V75.6693H17.7908C17.9321 75.5537 18.0679 75.4315 18.1976 75.3032C18.3404 75.1803 18.4891 75.0644 18.6433 74.9561C18.7984 74.8597 18.9922 74.7826 19.2248 74.7055C19.4572 74.6286 19.7287 74.6092 20 74.6092C20.6588 74.6092 21.1433 74.802 21.4726 75.1682C21.8023 75.5343 21.9572 76.0355 21.9572 76.6522V79.6014C21.9572 79.7555 21.9767 79.8712 22.0154 79.9484C22.0543 80.0447 22.1511 80.1026 22.2674 80.1603C22.3256 80.1797 22.4031 80.2182 22.4998 80.2374C22.5969 80.2568 22.6937 80.2761 22.8295 80.2953V80.7578H22.8681V80.7576ZM31.2015 80.7576H28.3527C28.0522 80.2237 27.7289 79.7028 27.3836 79.1964C27.0929 78.7724 26.8217 78.3676 26.5697 78.0207L26.2209 78.3291V79.6397C26.2209 79.7747 26.2404 79.9097 26.2791 79.9866C26.3177 80.083 26.3953 80.1409 26.531 80.1987C26.6084 80.2372 26.6859 80.2564 26.783 80.2759C26.8799 80.2951 26.9767 80.3143 27.0736 80.3143V80.7576H23.3138V80.3143C23.4107 80.3143 23.5076 80.2949 23.624 80.2759C23.7209 80.2564 23.8177 80.2372 23.8953 80.218C24.031 80.1793 24.1084 80.1024 24.1668 80.0059C24.2054 79.9095 24.2441 79.7939 24.2441 79.6397V72.9324C24.2441 72.7974 24.2054 72.6624 24.1472 72.5276C24.089 72.3928 24.0115 72.2771 23.8953 72.1999C23.8177 72.1615 23.7015 72.1036 23.5465 72.0844C23.3914 72.0459 23.2558 72.0265 23.1201 72.0265V71.5832L26.124 71.429L26.2209 71.5253V77.7314C26.5115 77.4618 26.8603 77.1534 27.2287 76.8065C27.5968 76.4595 27.9068 76.1705 28.1201 75.9392C28.2558 75.8042 28.3332 75.708 28.3332 75.6307C28.3527 75.5536 28.3527 75.5151 28.3527 75.4959C28.3527 75.4188 28.2945 75.3609 28.1588 75.3224C28.0232 75.2838 27.8488 75.2261 27.5775 75.1874V74.7634H30.6394V75.1874C30.2324 75.3032 29.9224 75.3995 29.7092 75.4959C29.4961 75.5922 29.2635 75.727 29.0115 75.8813C28.8468 75.9923 28.6852 76.108 28.5271 76.2282C28.372 76.344 28.1976 76.4982 27.9843 76.6715C28.372 77.2497 28.7402 77.7701 29.0697 78.252C29.3992 78.7337 29.748 79.2543 30.1162 79.7939C30.2324 79.9866 30.3877 80.1024 30.5812 80.1793C30.7752 80.2372 30.9496 80.2759 31.1433 80.2951V80.7576H31.2015V80.7576ZM35.0775 80.7576H31.2595V80.3143C31.3564 80.3143 31.4728 80.2949 31.5697 80.2759C31.6666 80.2564 31.7635 80.2372 31.8217 80.218C31.9572 80.1793 32.0347 80.1024 32.0929 80.0059C32.1511 79.9095 32.1705 79.7939 32.1705 79.6397V76.1318C32.1705 75.997 32.1316 75.862 32.0736 75.7657C32.0228 75.6611 31.9419 75.5739 31.8412 75.5151C31.7634 75.4767 31.6666 75.4188 31.5115 75.3801C31.3564 75.3417 31.2209 75.3032 31.1047 75.3032V74.8597L34.0697 74.7057L34.1666 74.802V79.5818C34.1666 79.7168 34.2054 79.8324 34.2635 79.9482C34.3217 80.0445 34.4185 80.1216 34.5154 80.1601C34.6013 80.2038 34.6926 80.2362 34.7869 80.2564C34.8836 80.2759 34.9806 80.2951 35.0968 80.3143V80.7576H35.0773H35.0775ZM34.2054 72.5663C34.2054 72.8746 34.089 73.1251 33.8564 73.3372C33.624 73.5492 33.3332 73.6647 33.0232 73.6647C32.6937 73.6647 32.4224 73.5492 32.1705 73.3372C31.9381 73.1251 31.8217 72.8553 31.8217 72.5661C31.8217 72.2578 31.9379 72.0073 32.1705 71.7759C32.4029 71.564 32.6937 71.4484 33.0232 71.4484C33.3527 71.4484 33.624 71.564 33.8564 71.7759C34.089 71.988 34.2054 72.2578 34.2054 72.5663ZM43.624 80.7576H39.9804V80.3143C40.0578 80.3143 40.1549 80.2949 40.2517 80.2759C40.3679 80.2564 40.4455 80.2372 40.5037 80.218C40.581 80.1793 40.6392 80.1024 40.6781 80.0253C40.7168 79.9482 40.7361 79.8132 40.7361 79.6589V76.8451C40.7361 76.4403 40.6586 76.1318 40.5037 75.9199C40.3486 75.7078 40.1353 75.6115 39.8254 75.6115C39.6703 75.6115 39.5152 75.6309 39.3797 75.6886C39.2439 75.7465 39.1082 75.8042 38.9726 75.9007C38.8562 75.9776 38.7593 76.0547 38.6818 76.1513C38.6045 76.2282 38.5463 76.3053 38.5074 76.3824V79.6011C38.5074 79.7361 38.5269 79.8516 38.5656 79.9482C38.6045 80.0445 38.6818 80.1216 38.7593 80.1601C38.8176 80.1987 38.8951 80.2372 38.992 80.2564L39.2826 80.3143V80.7576H35.6006V80.3143C35.6974 80.3143 35.7943 80.2949 35.9105 80.2759C36.0074 80.2564 36.1045 80.2372 36.182 80.218C36.3176 80.1793 36.3949 80.1024 36.4533 80.0059C36.492 79.9095 36.5308 79.7939 36.5308 79.6397V76.1318C36.5308 76.0163 36.492 75.8813 36.4338 75.7657C36.3758 75.6501 36.2789 75.5536 36.1818 75.4767C36.1045 75.438 36.0269 75.3801 35.9105 75.3609C35.7919 75.3215 35.6674 75.302 35.5424 75.3032V74.8597L38.4301 74.7057L38.5269 74.802V75.6693H38.5463C38.6877 75.5537 38.8235 75.4315 38.9533 75.3032C39.096 75.1803 39.2448 75.0644 39.399 74.9561C39.5541 74.8597 39.7478 74.7826 39.9804 74.7055C40.2129 74.6286 40.4844 74.6092 40.7556 74.6092C41.4144 74.6092 41.899 74.802 42.2283 75.1682C42.5578 75.5343 42.7129 76.0355 42.7129 76.6522V79.6014C42.7129 79.7555 42.7324 79.8712 42.7711 79.9484C42.8097 80.0447 42.9066 80.1026 43.023 80.1603C43.081 80.1797 43.1586 80.2182 43.2554 80.2374C43.3525 80.2568 43.4494 80.2761 43.5849 80.2953V80.7578H43.6238L43.624 80.7576ZM46.9765 80.9697C46.589 80.9697 46.2015 80.9118 45.8332 80.7962C45.465 80.6805 45.1744 80.5649 44.9611 80.4299L44.7867 80.8347H44.3217L44.2441 78.5989H44.6898C44.748 78.7724 44.8449 78.9843 45 79.2157C45.1355 79.4468 45.3099 79.6397 45.4844 79.8324C45.6844 80.0126 45.9057 80.1679 46.1433 80.2951C46.3953 80.4107 46.6472 80.4878 46.9185 80.4878C47.2867 80.4878 47.558 80.4107 47.7324 80.2759C47.9068 80.1409 48.0039 79.9095 48.0039 79.6205C48.0039 79.4662 47.965 79.3314 47.8875 79.2157C47.8099 79.1193 47.6937 79.023 47.558 78.9459C47.4031 78.8687 47.2287 78.7916 47.0347 78.7339C46.841 78.6761 46.6084 78.6182 46.3371 78.5218C46.0658 78.4447 45.8332 78.3676 45.6394 78.2713C45.4457 78.1941 45.2324 78.0593 45.0386 77.8859C44.8642 77.7316 44.7092 77.539 44.6123 77.3268C44.4961 77.1149 44.4572 76.8451 44.4572 76.5367C44.4572 75.9776 44.6898 75.5151 45.1744 75.1682C45.6588 74.8213 46.2791 74.6476 47.0543 74.6476C47.4224 74.6476 47.7519 74.6865 48.0621 74.7634C48.372 74.8405 48.624 74.9176 48.8371 75.014L48.9728 74.667H49.4379L49.5347 76.7101H49.1084C48.9728 76.2861 48.7209 75.9392 48.3916 75.6307C48.0426 75.3224 47.6744 75.1682 47.2867 75.1682C46.9767 75.1682 46.7248 75.2261 46.5504 75.3609C46.376 75.4959 46.2789 75.6693 46.2789 75.9007C46.2789 76.209 46.4146 76.4211 46.6666 76.5559C46.9185 76.6909 47.2867 76.8259 47.7519 76.9415C48.4689 77.1341 48.9922 77.3847 49.341 77.6932C49.6705 78.0207 49.8449 78.4255 49.8449 78.9072C49.8449 79.5626 49.5929 80.083 49.0697 80.4301C48.4883 80.7768 47.8099 80.9697 46.9767 80.9697H46.9765Z" fill="#231F20"/>
</svg>
