<svg width="68" height="50" viewBox="0 0 68 50" fill="none" xmlns="http://www.w3.org/2000/svg">
<g clip-path="url(#clip0_5_87)">
<path d="M66.5966 19.0532C65.0653 17.9722 61.5561 17.5668 58.8128 18.1073C58.494 15.4046 57.0264 13.04 54.4743 10.9454L53.007 9.86432L51.9859 11.4184C50.7101 13.4454 50.0721 16.2832 50.2634 18.9859C50.3271 19.9316 50.6461 21.6208 51.6032 23.1073C50.7101 23.6478 48.8598 24.3235 46.4354 24.3235H0.306999L0.179499 24.8641C-0.267282 27.5665 -0.267282 36.0122 4.96447 42.4984C8.92016 47.4305 14.7899 49.9305 22.5098 49.9305C39.2256 49.9305 51.6032 41.7549 57.4092 26.9584C59.7061 27.0259 64.6188 26.9584 67.1072 21.8908C67.1709 21.7557 67.2984 21.4854 67.7449 20.4722L68.0002 19.9316L66.5966 19.0532ZM37.184 0H30.1662V6.75649H37.184V0ZM37.184 8.10784H30.1662V14.8643H37.184V8.10757V8.10784ZM28.8898 8.10784H21.872V14.8643H28.8898V8.10757V8.10784ZM20.5957 8.10784H13.5776V14.8643H20.5957V8.10757V8.10784ZM12.3016 16.2157H5.28348V22.9722H12.3013V16.2154L12.3016 16.2157ZM20.5957 16.2157H13.5776V22.9722H20.5957V16.2154V16.2157ZM28.8898 16.2157H21.872V22.9722H28.8898V16.2154V16.2157ZM37.1842 16.2157H30.1659V22.9722H37.1842V16.2154V16.2157ZM45.4784 16.2157H38.46V22.9722H45.4784V16.2154V16.2157Z" fill="#2396ED"/>
</g>
<defs>
<clipPath id="clip0_5_87">
<rect width="68" height="50" fill="white"/>
</clipPath>
</defs>
</svg>
