<svg width="50" height="81" viewBox="0 0 50 81" fill="none" xmlns="http://www.w3.org/2000/svg">
<path d="M12.5 81C19.4 81 25 74.952 25 67.5V54H12.5C5.6 54 0 60.048 0 67.5C0 74.952 5.6 81 12.5 81Z" fill="#0ACF83"/>
<path d="M0 40.5C0 33.048 5.6 27 12.5 27H25V54H12.5C5.6 54 0 47.952 0 40.5Z" fill="#A259FF"/>
<path d="M0 13.5C0 6.048 5.6 0 12.5 0H25V27H12.5C5.6 27 0 20.952 0 13.5Z" fill="#F24E1E"/>
<path d="M25 0H37.5C44.4 0 50 6.048 50 13.5C50 20.952 44.4 27 37.5 27H25V0Z" fill="#FF7262"/>
<path d="M50 40.5C50 47.952 44.4 54 37.5 54C30.6 54 25 47.952 25 40.5C25 33.048 30.6 27 37.5 27C44.4 27 50 33.048 50 40.5Z" fill="#1ABCFE"/>
</svg>
