<svg width="50" height="50" viewBox="0 0 50 50" fill="none" xmlns="http://www.w3.org/2000/svg">
<path d="M0 25V50H50V0H0V25Z" fill="#007ACC"/>
<path d="M11.057 25.166L11.0412 27.2135H17.549V45.7057H22.1521V27.2135H28.6601V25.2057C28.6601 24.0943 28.6363 23.1658 28.6047 23.142C28.5808 23.1103 24.6203 23.0943 19.8189 23.1023L11.0807 23.1262L11.057 25.1658V25.166ZM40.3451 23.068C41.6148 23.3853 42.5832 23.9488 43.4721 24.8695C43.9324 25.3617 44.6148 26.2584 44.6705 26.4726C44.6861 26.5361 42.5117 27.9965 41.1943 28.8141C41.1467 28.8457 40.956 28.6394 40.7418 28.3219C40.099 27.3853 39.4244 26.9807 38.3926 26.9092C36.8769 26.806 35.9006 27.5996 35.9086 28.925C35.9086 29.3141 35.9641 29.5441 36.1228 29.8615C36.4562 30.5521 37.0752 30.9648 39.0197 31.806C42.599 33.3457 44.1307 34.3615 45.0832 35.806C46.1467 37.4172 46.3848 39.9887 45.6625 41.9014C44.8689 43.9807 42.9008 45.3934 40.1306 45.8615C39.2736 46.0123 37.242 45.9885 36.3213 45.8219C34.3135 45.4648 32.4086 44.4726 31.234 43.1711C30.7736 42.6633 29.8767 41.3377 29.9324 41.2426C29.9562 41.2107 30.1625 41.0838 30.3926 40.9488C30.6148 40.8219 31.4562 40.3377 32.2498 39.8775L33.6863 39.0441L33.9879 39.4887C34.4086 40.1312 35.3291 41.0123 35.8848 41.306C37.4799 42.1473 39.6705 42.0283 40.7498 41.06C41.2101 40.6394 41.4006 40.2029 41.4006 39.56C41.4006 38.9807 41.3291 38.7268 41.0275 38.2902C40.6389 37.7346 39.8451 37.2664 37.591 36.2902C35.0117 35.1789 33.9006 34.4887 32.8848 33.3934C32.2974 32.7586 31.7418 31.7426 31.5117 30.8934C31.3213 30.1869 31.2734 28.4172 31.4244 27.7029C31.9562 25.2107 33.8371 23.4726 36.5514 22.9568C37.4322 22.7902 39.4799 22.8537 40.3451 23.068Z" fill="white"/>
</svg>
