<svg width="100" height="80" viewBox="0 0 100 80" fill="none" xmlns="http://www.w3.org/2000/svg">
<g clip-path="url(#clip0_7_27)">
<path d="M22.7273 79.6062V38.6073L10.7449 26.9749L0 20.5198V72.371C0 76.3743 3.05664 79.6062 6.81836 79.6062H22.7273Z" fill="#4285F4"/>
<path d="M77.2727 79.6062H93.1817C96.9547 79.6062 100 76.3623 100 72.371V20.5202L87.8297 27.9138L77.2727 38.6073V79.6062Z" fill="#34A853"/>
<path d="M22.7274 38.6073L21.0969 22.5878L22.7274 7.25555L50 28.9608L77.2727 7.25555L79.0965 21.76L77.2727 38.6073L50 60.3125L22.7274 38.6073Z" fill="#EA4335"/>
<path d="M77.2727 7.25573V38.6074L100 20.52V10.8731C100 1.92599 90.3751 -3.17453 83.6368 2.19127L77.2727 7.25573Z" fill="#FBBC04"/>
<path d="M0 20.5197L10.4527 28.8389L22.7273 38.6072V7.25545L16.3633 2.191C9.61328 -3.17522 0 1.92571 0 10.8724V20.5193V20.5197Z" fill="#C5221F"/>
</g>
<defs>
<clipPath id="clip0_7_27">
<rect width="100" height="80" fill="white"/>
</clipPath>
</defs>
</svg>
