<svg width="100" height="100" viewBox="0 0 100 100" fill="none" xmlns="http://www.w3.org/2000/svg">
<path d="M50 0C22.3855 0 0 22.3855 0 50C0 77.6145 22.3855 100 50 100C77.6145 100 100 77.6145 100 50C100 22.3855 77.6145 0 50 0Z" fill="#40B3E0"/>
<path d="M74.3293 28.7617L65.3984 73.7887C65.3984 73.7887 64.1496 76.9113 60.7148 75.4125L40.1062 59.6125L32.6125 55.9906L19.9976 51.7438C19.9976 51.7438 18.0617 51.057 17.8742 49.5582C17.6867 48.0594 20.0601 47.2477 20.0601 47.2477L70.207 27.5758C70.207 27.5758 74.3289 25.7648 74.3289 28.7625" fill="white"/>
<path d="M38.5227 73.2824C38.5227 73.2824 37.9211 73.2262 37.1711 70.8527C36.4223 68.4797 32.6125 55.9898 32.6125 55.9898L62.9008 36.7555C62.9008 36.7555 64.6497 35.6938 64.5872 36.7555C64.5872 36.7555 64.8993 36.943 63.9622 37.8172C63.0258 38.6918 40.1692 59.2375 40.1692 59.2375" fill="#D2E5F1"/>
<path d="M48.0083 65.6699L39.8571 73.102C39.8571 73.102 39.2196 73.5855 38.5227 73.2824L40.0836 59.4777" fill="#B5CFE4"/>
</svg>
