<svg width="53" height="46" viewBox="0 0 53 46" fill="none" xmlns="http://www.w3.org/2000/svg">
<path d="M43.5766 14.8945C43.0125 14.7059 42.4437 14.5312 41.8706 14.3705C41.9669 13.9872 42.0555 13.6085 42.1342 13.2364C43.4256 7.12712 42.5814 2.20532 39.6976 0.584832C36.9327 -0.968677 32.4109 0.651209 27.8443 4.52429C27.3942 4.90668 26.9541 5.30009 26.5244 5.70415C26.2368 5.43546 25.9441 5.172 25.6464 4.91388C20.8603 0.772666 16.0629 -0.972712 13.1823 0.65242C10.4199 2.21077 9.6019 6.8376 10.7646 12.6276C10.8803 13.201 11.0109 13.7715 11.1563 14.3384C10.4772 14.5265 9.82198 14.7266 9.19488 14.9397C3.5835 16.8462 0 19.834 0 22.9332C0 26.134 3.84705 29.3445 9.69155 31.2912C10.1654 31.4484 10.6431 31.5941 11.1244 31.728C10.9681 32.3387 10.8293 32.9535 10.7083 33.5717C9.59983 39.2612 10.4654 43.7786 13.2204 45.3271C16.0658 46.9262 20.8416 45.2827 25.4918 41.3213C25.8688 40.9992 26.2376 40.668 26.5977 40.328C27.063 40.7655 27.5408 41.1903 28.0304 41.6019C32.535 45.3792 36.9837 46.9044 39.7359 45.3517C42.5787 43.748 43.5026 38.895 42.3031 32.9906C42.2086 32.5281 42.1026 32.0678 41.9853 31.6102C42.3207 31.5134 42.6499 31.4137 42.9708 31.31C49.0467 29.3484 53 26.1768 53 22.9332C53 19.8227 49.3008 16.8148 43.5766 14.8945ZM42.2588 29.2158C41.969 29.3092 41.6717 29.3994 41.3686 29.4872C40.6978 27.4178 39.7926 25.2174 38.6848 22.9439C39.7419 20.7246 40.6123 18.5523 41.2642 16.4964C41.8064 16.6493 42.3325 16.8105 42.8397 16.9806C47.7443 18.6261 50.7359 21.0587 50.7359 22.9332C50.7359 24.9297 47.505 27.5217 42.2588 29.2158ZM40.0821 33.4192C40.6125 36.0299 40.6881 38.3904 40.3367 40.2358C40.0212 41.894 39.3865 42.9995 38.6014 43.4423C36.9313 44.3845 33.3594 43.1599 29.5071 39.9294C29.0517 39.5467 28.6073 39.1518 28.1745 38.7451C29.668 37.1534 31.1605 35.3031 32.6172 33.2481C35.1794 33.0265 37.6 32.6642 39.7951 32.1697C39.9009 32.5839 39.9966 33.0005 40.0821 33.4192ZM18.0689 43.2795C16.437 43.841 15.1373 43.8571 14.3516 43.4157C12.6798 42.4761 11.9848 38.8488 12.9328 33.9833C13.0455 33.4083 13.1745 32.8365 13.3198 32.2685C15.4907 32.7366 17.8937 33.0731 20.4619 33.2761C21.9285 35.287 23.4641 37.1353 25.0117 38.7537C24.6828 39.0639 24.3461 39.366 24.002 39.66C21.9455 41.4117 19.8849 42.6545 18.0689 43.2795ZM10.424 29.2035C7.83965 28.3426 5.70537 27.2239 4.24248 26.0031C2.92784 24.9061 2.2643 23.8169 2.2643 22.9332C2.2643 21.0524 5.14141 18.6536 9.94019 17.0232C10.5226 16.8255 11.1321 16.6388 11.7646 16.4637C12.4279 18.566 13.2978 20.7641 14.3477 22.9868C13.2842 25.2424 12.4018 27.4757 11.732 29.6028C11.2927 29.4801 10.8566 29.347 10.424 29.2035ZM12.9867 12.2037C11.9906 7.24313 12.6521 3.50119 14.3168 2.56203C16.0898 1.56173 20.0106 2.98793 24.1432 6.56382C24.4126 6.79753 24.6777 7.03598 24.9384 7.27904C23.3985 8.89046 21.877 10.725 20.4234 12.724C17.9308 12.9491 15.5447 13.3107 13.351 13.7951C13.2159 13.2678 13.0944 12.7372 12.9867 12.2039V12.2037ZM35.8485 17.7051C35.3303 16.8329 34.793 15.9717 34.2368 15.122C35.9278 15.3305 37.548 15.6071 39.0695 15.9452C38.6128 17.372 38.0434 18.8636 37.3733 20.3929C36.8834 19.4872 36.3751 18.591 35.8485 17.7051ZM26.5255 8.85596C27.5697 9.95854 28.6157 11.1894 29.6444 12.5251C27.5575 12.429 25.4672 12.4286 23.3802 12.5239C24.41 11.2005 25.4648 9.97125 26.5255 8.85596ZM17.1426 17.7202C16.6226 18.599 16.1237 19.4896 15.6464 20.3911C14.9872 18.8672 14.423 17.3688 13.9624 15.9218C15.4746 15.5921 17.0871 15.3226 18.7674 15.118C18.205 15.9728 17.6632 16.8404 17.1426 17.72V17.7202ZM18.8156 30.9053C17.0797 30.7164 15.4429 30.4608 13.9311 30.14C14.399 28.6672 14.9756 27.1369 15.6491 25.5804C16.1283 26.4826 16.6293 27.3736 17.1515 28.2528C17.6885 29.1567 18.2446 30.042 18.8156 30.9053ZM26.588 37.1657C25.5147 36.0375 24.4444 34.7893 23.3991 33.4468C24.414 33.4855 25.4485 33.5053 26.5 33.5053C27.5803 33.5053 28.6482 33.4817 29.6993 33.4361C28.6672 34.8028 27.6252 36.0529 26.588 37.1657ZM37.3946 25.5009C38.1031 27.0746 38.7001 28.5968 39.1742 30.0444C37.6377 30.3862 35.9785 30.6614 34.2303 30.8657C34.7905 30.0003 35.333 29.1241 35.8574 28.2377C36.3906 27.3367 36.9031 26.4242 37.3946 25.5009ZM33.8962 27.1353C33.0934 28.4944 32.2454 29.8277 31.3536 31.1331C29.7383 31.2446 28.1194 31.2999 26.5 31.2991C24.8506 31.2991 23.2463 31.2491 21.7014 31.1514C20.7864 29.8491 19.9223 28.5134 19.1108 27.1474H19.1111C18.3035 25.7886 17.5491 24.4004 16.8497 22.9858C17.5473 21.5709 18.2994 20.182 19.1042 18.8222L19.104 18.8224C19.9085 17.4622 20.7658 16.1323 21.6739 14.8356C23.25 14.7193 24.8663 14.6588 26.4998 14.6588H26.5C28.1409 14.6588 29.7593 14.7199 31.335 14.837C32.234 16.1318 33.0857 17.4571 33.8887 18.8105C34.6962 20.1674 35.4582 21.5494 36.1735 22.9546C35.4656 24.374 34.706 25.7685 33.8962 27.1353ZM38.5668 2.49625C40.3415 3.49373 41.0317 7.5161 39.9167 12.791C39.8454 13.1275 39.7655 13.4703 39.6786 13.8179C37.4795 13.3232 35.0918 12.9554 32.5919 12.7268C31.1356 10.7058 29.6266 8.86846 28.1117 7.27783C28.5088 6.90489 28.9152 6.54162 29.3307 6.18836C33.2436 2.8701 36.9006 1.55991 38.5668 2.49625ZM26.5 18.3211C29.1138 18.3211 31.2327 20.386 31.2327 22.9332C31.2327 25.4803 29.1138 27.5453 26.5 27.5453C23.8862 27.5453 21.7673 25.4803 21.7673 22.9332C21.7673 20.386 23.8862 18.3211 26.5 18.3211Z" fill="#00D8FF"/>
</svg>
