<svg width="53" height="46" viewBox="0 0 53 46" fill="none" xmlns="http://www.w3.org/2000/svg">
<g clip-path="url(#clip0_5_62)">
<path d="M36.7234 31.9988C38.6792 31.8145 40.163 30.2791 40.0955 28.4365C40.0282 26.594 38.342 25.12 36.3187 25.12H36.1839C34.0929 25.1814 32.4743 26.7782 32.5418 28.6821C32.6093 29.6035 33.0138 30.4019 33.6208 30.9546C31.3278 35.0697 27.8207 38.0791 22.56 40.5973C18.9854 42.317 15.276 42.9312 11.5666 42.5014C8.53155 42.1328 6.17098 40.9046 4.68698 38.8775C2.52888 35.8681 2.32662 32.6129 4.14766 29.3578C5.42919 27.0239 7.45229 25.3041 8.73382 24.4443C8.46406 23.6459 8.05931 22.2947 7.85704 21.3121C-1.92249 27.761 -0.910733 36.4823 2.05685 40.5973C4.28244 43.6683 8.80131 45.5722 13.7922 45.5722C15.141 45.5722 16.4898 45.4493 17.8388 45.1424C26.4718 43.6069 33.014 38.939 36.7234 31.9988ZM48.5938 24.383C43.4679 18.9167 35.9141 15.9073 27.2811 15.9073H26.2021C25.5951 14.8018 24.3135 14.0647 22.8972 14.0647H22.7623C20.6717 14.1261 19.0531 15.723 19.1204 17.6271C19.1879 19.4695 20.8739 20.9436 22.8972 20.9436H23.032C24.5158 20.8821 25.7973 20.0223 26.3369 18.8553H27.5509C32.6768 18.8553 37.5327 20.2064 41.9168 22.8475C45.2889 24.8743 47.717 27.5154 49.0658 30.709C50.2123 33.2885 50.1448 35.8067 48.9308 37.9564C47.0425 41.2115 43.8726 42.9927 39.691 42.9927C36.9932 42.9927 34.4303 42.2555 33.0813 41.7028C32.3395 42.317 30.9905 43.2996 30.0462 43.914C32.9465 45.1422 35.9141 45.8179 38.7467 45.8179C45.2214 45.8179 50.0101 42.5626 51.8311 39.3076C53.7869 35.7452 53.6519 29.6035 48.5938 24.383ZM14.3317 33.0427C14.3992 34.8853 16.0853 36.3592 18.1086 36.3592H18.2436C20.3344 36.298 21.953 34.701 21.8855 32.7971C21.8182 30.9544 20.1319 29.4805 18.1086 29.4805H17.9738C17.8388 29.4805 17.6364 29.4805 17.5018 29.5418C14.7365 25.3654 13.5899 20.8207 13.9947 15.9071C14.2642 12.222 15.6133 9.02825 17.9738 6.38721C19.9297 4.11474 23.7065 3.00923 26.2696 2.94796C33.4186 2.82504 36.4534 10.9322 36.6559 14.1874C37.5327 14.3716 39.0165 14.8016 40.0282 15.1087C39.2188 5.15916 32.4743 0 25.9998 0C19.9297 0 14.3317 3.9922 12.1059 9.8883C9.00358 17.7498 11.0269 25.3041 14.8038 31.2617C14.4667 31.6916 14.2642 32.3672 14.3317 33.0429V33.0427Z" fill="#764ABC"/>
</g>
<defs>
<clipPath id="clip0_5_62">
<rect width="53" height="46" fill="white"/>
</clipPath>
</defs>
</svg>
