<svg width="50" height="50" viewBox="0 0 50 50" fill="none" xmlns="http://www.w3.org/2000/svg">
<path d="M42.3266 24.6656C42.3266 23.5857 41.8976 22.55 41.1339 21.7864C40.3703 21.0227 39.3346 20.5937 38.2547 20.5937C38.1117 20.5936 37.9688 20.6009 37.8266 20.6156L43.4203 4.11874H19.65L25.2359 20.6016C25.1547 20.6016 25.0719 20.5937 24.9891 20.5937C24.0167 20.5926 23.076 20.9395 22.3372 21.5717C21.5984 22.2038 21.1101 23.0795 20.9608 24.0403C20.8115 25.0012 21.011 25.9837 21.5231 26.8103C22.0352 27.6368 22.8263 28.2528 23.7531 28.5469C22.887 30.0382 21.8085 31.3957 20.5516 32.5766C18.9154 34.1406 16.9716 35.347 14.8437 36.1187C13.6516 35.5537 12.7192 34.5561 12.236 33.3285C11.7528 32.1009 11.755 30.7354 12.2422 29.5094C12.3625 29.2281 12.4844 28.9437 12.6 28.6594C13.5079 28.4456 14.3149 27.9266 14.8862 27.1893C15.4575 26.452 15.7584 25.541 15.7388 24.6085C15.7191 23.676 15.38 22.7784 14.7781 22.0659C14.1762 21.3533 13.348 20.8689 12.4319 20.6936C11.5158 20.5182 10.5673 20.6626 9.74485 21.1026C8.9224 21.5425 8.27584 22.2514 7.91322 23.1108C7.55061 23.9701 7.49389 24.9279 7.75255 25.824C8.01122 26.7202 8.56959 27.5004 9.33437 28.0344C8.03463 30.3911 7.04267 32.9048 6.38281 35.5141C5.82969 38.85 6.38281 42.3891 9.26562 44.3906C15.9844 49.0484 23.2797 41.5031 30.9703 39.6078C33.7578 38.9203 36.8172 39.0312 39.2719 37.6094C40.1587 37.1043 40.9235 36.4102 41.5119 35.5763C42.1003 34.7424 42.4979 33.7892 42.6766 32.7844C42.8399 31.8269 42.8091 30.8463 42.5861 29.901C42.363 28.9556 41.9522 28.0647 41.3781 27.2812C41.9907 26.5492 42.3259 25.6248 42.325 24.6703L42.3266 24.6656ZM29.0625 24.6875V24.6734C29.0637 23.9727 28.8836 23.2836 28.5397 22.673C28.1958 22.0625 27.6998 21.5513 27.1 21.1891L31.5437 12.1875L35.9969 21.2719C35.4382 21.6431 34.9802 22.1469 34.6636 22.7383C34.3471 23.3296 34.1819 23.9902 34.1828 24.6609V24.75L29.0625 24.6875Z" fill="#C63D14"/>
<path d="M43.3219 24.6656C43.3203 23.485 42.907 22.3418 42.1532 21.4331C41.3994 20.5245 40.3522 19.9071 39.1922 19.6875L44.8078 3.125H18.2641L23.8891 19.7203C22.9071 19.9398 22.0127 20.4469 21.3201 21.1768C20.6275 21.9068 20.1681 22.8265 20.0004 23.8187C19.8328 24.8108 19.9645 25.8305 20.3788 26.7475C20.7931 27.6644 21.4712 28.4372 22.3266 28.9672C21.6199 30.017 20.7982 30.9844 19.8766 31.8516C18.45 33.2165 16.7735 34.2934 14.9391 35.0234C14.0782 34.5237 13.4256 33.7312 13.1003 32.7904C12.7751 31.8496 12.7988 30.8232 13.1672 29.8984L13.2297 29.7531L13.3453 29.4797C14.3867 29.1186 15.2821 28.4281 15.8958 27.5126C16.5096 26.5971 16.8084 25.5066 16.7468 24.4061C16.6853 23.3056 16.2669 22.2551 15.5549 21.4138C14.8429 20.5724 13.8761 19.986 12.8009 19.7433C11.7258 19.5006 10.6009 19.6148 9.59645 20.0687C8.59205 20.5226 7.76291 21.2914 7.23458 22.2587C6.70625 23.226 6.50751 24.3391 6.66846 25.4295C6.82941 26.5199 7.34129 27.5281 8.12657 28.3016C7.95782 28.6625 7.77969 29.0281 7.59688 29.4047C6.5838 31.2674 5.84693 33.2675 5.40938 35.3422C4.68282 39.7172 5.85469 43.2219 8.70782 45.1984C10.2394 46.2937 12.0764 46.8802 13.9594 46.875C17.2906 46.875 20.6609 45.2016 23.9594 43.5641C26.264 42.3107 28.6954 41.3061 31.2125 40.5672C32.1141 40.3453 33.0422 40.2109 34.025 40.0687C36.0273 39.9088 37.9797 39.3634 39.775 38.4625C40.7874 37.8842 41.6603 37.0903 42.3318 36.1372C43.0034 35.184 43.4571 34.0949 43.6609 32.9469C43.9929 30.9965 43.6095 28.9918 42.5813 27.3016C43.0677 26.5079 43.3246 25.5949 43.3234 24.6641L43.3219 24.6656ZM41.3328 24.6656C41.3328 25.2744 41.1523 25.8695 40.8141 26.3757C40.4758 26.8819 39.9951 27.2765 39.4326 27.5094C38.8702 27.7424 38.2513 27.8034 37.6542 27.6846C37.0571 27.5658 36.5086 27.2727 36.0781 26.8422C35.6476 26.4117 35.3545 25.8632 35.2357 25.2661C35.1169 24.669 35.1779 24.0501 35.4109 23.4877C35.6439 22.9252 36.0384 22.4445 36.5446 22.1063C37.0508 21.768 37.6459 21.5875 38.2547 21.5875C39.0708 21.5883 39.8533 21.9129 40.4303 22.49C41.0074 23.0671 41.332 23.8495 41.3328 24.6656ZM42.0312 5.11406L37.0719 19.7391C36.8595 19.7904 36.6507 19.8557 36.4469 19.9344L31.5484 9.93437L26.6344 19.875C26.4204 19.8009 26.2017 19.7414 25.9797 19.6969L21.0375 5.11406H42.0312ZM24.9891 21.5875C25.5979 21.5875 26.193 21.768 26.6992 22.1063C27.2054 22.4445 27.5999 22.9252 27.8329 23.4877C28.0659 24.0501 28.1268 24.669 28.008 25.2661C27.8893 25.8632 27.5961 26.4117 27.1656 26.8422C26.7351 27.2727 26.1867 27.5658 25.5896 27.6846C24.9925 27.8034 24.3736 27.7424 23.8111 27.5094C23.2487 27.2765 22.7679 26.8819 22.4297 26.3757C22.0915 25.8695 21.9109 25.2744 21.9109 24.6656C21.9118 23.8495 22.2363 23.0671 22.8134 22.49C23.3905 21.9129 24.1729 21.5883 24.9891 21.5875ZM11.6734 21.6172C12.2825 21.6175 12.8778 21.7985 13.3839 22.1373C13.8901 22.476 14.2844 22.9573 14.5169 23.5203C14.7494 24.0832 14.8097 24.7025 14.6901 25.2997C14.5705 25.8969 14.2764 26.4452 13.8451 26.8752C13.4138 27.3052 12.8646 27.5976 12.267 27.7154C11.6694 27.8331 11.0504 27.7709 10.4881 27.5367C9.92592 27.3025 9.44582 26.9068 9.1086 26.3996C8.77138 25.8924 8.59221 25.2966 8.59375 24.6875C8.59458 23.8714 8.91915 23.0889 9.49623 22.5119C10.0733 21.9348 10.8558 21.6102 11.6719 21.6094L11.6734 21.6172ZM41.7 32.6078C41.5456 33.4691 41.2036 34.2859 40.6984 35.0004C40.1932 35.7148 39.5371 36.3095 38.7766 36.7422C37.1986 37.5084 35.4899 37.9691 33.7406 38.1C32.7531 38.2422 31.7328 38.3891 30.7344 38.6359C28.0765 39.4056 25.5095 40.4601 23.0781 41.7812C18.1344 44.2359 13.8594 46.3563 9.84063 43.5672C6.89219 41.5234 7.02813 37.7422 7.37188 35.6703C7.7764 33.7848 8.45107 31.9676 9.375 30.275L9.79688 29.4016C10.2166 29.5693 10.657 29.6797 11.1063 29.7297C10.7086 31.1343 10.8197 32.6343 11.42 33.965C12.0203 35.2957 13.0713 36.3717 14.3875 37.0031L14.7703 37.2L15.175 37.0562C17.4323 36.2415 19.4946 34.9642 21.2297 33.3062C22.3758 32.2281 23.3826 31.0108 24.2266 29.6828C25.3064 29.8471 26.4105 29.6578 27.374 29.1431C28.3374 28.6285 29.1087 27.8161 29.5726 26.8273C30.0366 25.8384 30.1683 24.726 29.9483 23.6561C29.7282 22.5862 29.1681 21.6161 28.3516 20.8906L31.5359 14.4516L34.7531 21.0141C33.8378 21.8962 33.2878 23.0905 33.2125 24.3595C33.1373 25.6286 33.5422 26.8795 34.3469 27.8637C35.1515 28.8479 36.297 29.4933 37.5557 29.6717C38.8144 29.8501 40.0942 29.5484 41.1406 28.8266C41.7209 29.9977 41.9151 31.3226 41.6953 32.6109L41.7 32.6078Z" fill="white"/>
</svg>
