<svg width="50" height="50" viewBox="0 0 50 50" fill="none" xmlns="http://www.w3.org/2000/svg">
<path d="M4.54532 5.32813C4.17262 5.32438 3.81368 5.46874 3.54736 5.7295C3.28104 5.99025 3.12913 6.34606 3.12501 6.71876C3.12338 6.7999 3.12966 6.88101 3.14376 6.96094L9.09376 43.075C9.16794 43.517 9.39545 43.9186 9.73634 44.2095C10.0772 44.5004 10.5097 44.6619 10.9578 44.6656H39.5031C39.8397 44.6701 40.1668 44.5536 40.4248 44.3375C40.6829 44.1213 40.8548 43.8197 40.9094 43.4875L46.8547 6.95938C46.9149 6.59279 46.8275 6.21728 46.6118 5.91487C46.396 5.61245 46.0694 5.4077 45.7031 5.34532C45.6272 5.33287 45.5504 5.3266 45.4734 5.32657L4.54532 5.32813ZM29.6 31.4359H20.4891L18.0219 18.5547H31.8078L29.6 31.4359Z" fill="#2684FF"/>
<path d="M44.9625 18.5531H31.8078L29.6 31.4344H20.4891L9.73126 44.2188C10.071 44.5165 10.5061 44.6828 10.9578 44.6875H39.511C39.8476 44.692 40.1746 44.5755 40.4326 44.3593C40.6907 44.1431 40.8626 43.8416 40.9172 43.5094L44.9625 18.5531Z" fill="url(#paint0_linear_5_99)"/>
<defs>
<linearGradient id="paint0_linear_5_99" x1="47.3768" y1="21.6757" x2="25.6412" y2="38.6435" gradientUnits="userSpaceOnUse">
<stop offset="0.18" stop-color="#0052CC"/>
<stop offset="1" stop-color="#2684FF"/>
</linearGradient>
</defs>
</svg>
