<svg width="128" height="50" viewBox="0 0 128 50" fill="none" xmlns="http://www.w3.org/2000/svg">
<g clip-path="url(#clip0_5_56)">
<path d="M87.785 4.42426L87.7565 4.15001L87.3123 4.18801L87.3405 4.46201L87.785 4.42426ZM90.7723 11.6088L90.7818 11.76L91.0938 11.7318C91.0843 11.6373 91.122 11.486 91.1883 11.297L91.1598 11.0228C91.0275 11.0323 90.895 11.2308 90.7723 11.6088ZM79.116 20.6558C79.0973 20.4005 78.303 19.408 76.7338 17.659C76.7055 17.3378 77.2443 16.8555 78.3503 16.2223L81.5078 13.4713C82.2168 12.573 82.6328 11.1173 82.7558 9.09426L82.7178 8.63101C82.595 7.23201 81.5835 6.10701 79.6645 5.24676C78.53 4.48101 76.488 4.05551 73.5385 3.98001C71.0995 4.18801 67.9138 5.05751 63.9905 6.59851C62.9128 7.37376 61.684 8.14901 60.3038 8.92401L60.3225 9.16051C60.4078 9.15101 60.54 9.10376 60.6913 8.99976C60.852 8.98076 60.9465 9.05651 60.956 9.20776L61.1923 9.08476L61.3058 9.07526L61.3153 9.17926C61.3248 9.30226 60.4738 9.97351 58.7533 11.174L58.8858 11.4198L58.7723 11.4293L58.4885 11.3253C58.498 11.4103 58.3753 11.467 58.1388 11.486L58.1483 11.59L58.4225 11.9303C58.3375 11.9398 58.205 11.902 58.0255 11.8358C57.6283 11.8735 57.2408 12.0815 56.8533 12.4785L57.014 11.779C57.5905 9.29276 57.9875 7.09001 58.1955 5.18051L58.1673 5.05751C57.7703 4.80226 57.3825 4.44301 57.0233 3.98926C57.0328 3.69626 57.0328 3.52626 57.0233 3.48826L56.995 3.38426L56.8815 3.41276C55.6338 5.28451 53.2325 8.47976 49.6685 12.9985C46.9555 16.2128 45.5563 17.9995 45.4713 18.3588C44.3653 19.5025 43.8358 20.1928 43.8925 20.429C43.5995 20.618 43.4765 20.807 43.5238 21.015C43.4388 21.034 43.382 21.0058 43.363 20.9205C42.8905 21.6863 42.1908 22.1778 41.255 22.3953L40.2718 22.6223C40.1395 22.6505 40.0733 22.745 40.0828 22.9058L40.111 23.0288L40.4798 22.9435L40.5083 23.0475L39.6763 23.369L38.2015 23.7093L37.4263 23.7565C37.3128 23.87 38.0408 23.7473 37.7573 23.8133L36.793 24.0403C36.2068 24.1725 35.8855 24.1253 35.8288 23.889L35.7153 23.9173C35.7343 24.0213 35.7435 24.097 35.7248 24.163L35.668 23.9268L34.8928 24.1063C34.836 23.7473 33.7868 22.4425 31.7543 20.1928C31.7165 19.7578 32.4348 19.1243 33.9003 18.302L38.0408 14.6623C38.9673 13.4713 39.5155 11.5615 39.6953 8.93351L39.6385 8.31901C39.4778 6.46626 38.1353 4.97251 35.6113 3.81926C34.1175 2.80776 31.4328 2.26876 27.557 2.18376C24.3428 2.45801 20.1453 3.60176 14.9838 5.59651C13.5658 6.62676 11.9493 7.64776 10.1343 8.65926L10.1625 8.98076C10.2855 8.97126 10.446 8.90526 10.6445 8.79176C10.8525 8.77276 10.966 8.86726 10.985 9.05651L11.3063 8.87676L11.467 8.86726L11.4765 9.01851C11.486 9.16976 10.361 10.049 8.08276 11.656L8.26226 11.9398L8.10176 11.9493L7.75176 11.8263C7.76126 11.9208 7.60051 11.987 7.26976 12.0153L7.28851 12.1855L7.66676 12.6015C7.54401 12.611 7.37376 12.573 7.15626 12.4975C6.41901 12.5638 5.70051 13.093 4.99151 14.0953L5.17101 14.3788C5.78551 13.8115 6.14476 13.528 6.24876 13.5185L6.28651 13.9818C6.18251 13.9913 6.02176 14.0573 5.80451 14.1708L6.19201 14.757C6.92404 13.9657 7.7531 13.27 8.65951 12.6865C9.10376 12.8 9.34001 12.9418 9.34951 13.093L9.68976 13.0648C12.1288 11.259 14.5395 9.95451 16.9313 9.15101L16.9595 9.47226C16.5153 10.134 16.2128 10.4745 16.052 10.4933C16.071 10.7203 16.1465 10.9188 16.2883 11.089C16.3263 11.4955 15.239 14.237 13.0363 19.304C8.03551 31.083 3.83801 39.799 0.425507 45.4335C0.434757 45.5468 0.501007 45.698 0.624007 45.8873C1.46526 45.6888 1.99476 45.4808 2.22151 45.282L2.40126 45.2633L2.42951 45.5848L2.74151 45.5563L3.06301 45.3768C3.07251 45.4713 3.17651 45.5185 3.39376 45.4995L3.42226 45.821C3.45051 46.133 3.27101 46.6055 2.89276 47.258C2.55251 47.6455 2.18376 48.4585 1.79626 49.697L1.80551 49.8483L2.11751 49.8198C3.47901 48.2978 4.50926 46.804 5.21826 45.3483C9.18876 44.1855 12.214 43.0418 14.3125 41.9168C16.4208 41.737 18.0278 41.1793 19.1245 40.2623L19.1055 40.0923L18.3115 40.3285L18.1318 40.3475L18.1128 40.1773C19.6633 39.941 20.7315 39.6005 21.327 39.128C24.3428 36.8023 26.621 35.1575 28.162 34.1838C31.3288 31.8583 33.3898 29.5893 34.3255 27.3868C34.5026 27.3482 34.6791 27.3072 34.855 27.2638C35.2993 27.245 35.545 27.2355 35.6113 27.2165C35.5923 27.1315 35.6303 27.0843 35.7153 27.0653C36.4243 26.9898 36.084 27.1125 36.5378 27.0085L37.7288 26.7345C37.6533 26.7533 37.6248 26.7913 37.6438 26.8668L37.8233 26.7533C37.7855 26.7533 37.7573 26.744 37.7288 26.7345L37.9273 26.6873L37.8328 26.744C37.9653 26.7628 38.107 26.7533 38.2678 26.7155L38.3528 27.0653L32.936 35.6775L31.7353 37.1805L31.1493 39.1468L31.2628 39.1185L31.8488 38.8728L31.6598 39.6385L31.7165 39.8653L31.877 40.0638C31.8015 40.0828 31.7733 40.13 31.792 40.215L31.8205 40.338L32.0663 40.2813C32.4255 39.9693 32.5768 39.6858 32.52 39.4305C32.9075 39.4965 33.1628 39.525 33.2953 39.4873L33.3235 39.61C33.0873 39.6668 32.9643 39.8558 32.9453 40.1773L32.9738 40.3003L33.106 40.2718C35.0725 38.1258 39.8938 30.7805 43.7603 25.7985C43.6373 25.2598 45.6508 24.5128 49.8103 23.5485L49.9428 23.5203C50.094 24.1725 49.7725 25.7513 48.9785 28.2565C48.468 29.769 48.2223 30.601 48.26 30.7333C47.5983 32.7468 47.2863 33.834 47.324 34.0043L45.8493 38.8348C44.8945 41.3118 44.1668 43.9115 43.6563 46.653C43.7413 46.634 43.8735 46.6435 44.0628 46.6908L44.2705 46.511C44.2895 46.5963 44.3463 46.6245 44.4313 46.6055L44.3463 46.2558L44.989 46.237C45.178 46.1898 45.3388 45.9533 45.4713 45.5185C45.4428 44.8663 45.5753 44.5165 45.8683 44.4408C46.2653 42.8905 46.511 42.1153 46.5963 42.0868C46.9648 40.546 47.239 39.6668 47.4185 39.4493C47.9765 37.4453 48.3828 36.4148 48.6475 36.3485L48.7043 36.5945L48.2978 37.6438C47.5888 40.7918 46.8703 43.278 46.1425 45.1025L46.3505 46.01L46.4828 45.9818C48.241 42.2003 50.7745 34.7133 54.0738 23.5203C54.1685 22.537 54.641 21.7713 55.4825 21.2325L55.2933 21.034L55.265 20.93C55.6433 20.845 55.9078 20.6938 56.059 20.4858C56.0403 20.4005 55.7093 20.2778 55.0665 20.1075L56.7115 13.0553C57.0705 12.7338 57.2785 12.5638 57.3448 12.5638L57.3733 12.923C57.288 12.9323 57.1558 12.9795 57.0045 13.0835L57.3165 13.528C57.8835 12.9135 58.498 12.384 59.1693 11.9398C59.5095 12.0343 59.6798 12.1478 59.6988 12.2613L59.9445 12.2423C61.8163 10.8715 63.6503 9.88826 65.4558 9.29276L65.4748 9.52901C65.144 10.03 64.917 10.2853 64.794 10.2948C64.813 10.465 64.8603 10.6163 64.9453 10.7485C64.9738 11.0605 64.1608 13.1403 62.497 16.9973C58.6965 25.9308 55.5108 32.5388 52.9205 36.8308C52.93 36.9158 52.9868 37.0293 53.0908 37.1805C53.724 37.0293 54.1305 36.8685 54.2913 36.7173L54.4048 36.7078L54.4238 36.9443L54.6883 36.9253L54.9248 36.8023C54.934 36.8685 55.0193 36.897 55.18 36.8875L55.1988 37.1428C55.2178 37.3695 55.0855 37.7288 54.7923 38.2203C54.5183 38.5135 54.2345 39.128 53.932 40.0638L53.9415 40.1868L54.1873 40.1678C55.2178 39.0145 56.0023 37.88 56.5413 36.7645C59.5568 35.876 61.854 35.0158 63.4423 34.1648C65.0588 34.023 66.2783 33.607 67.1103 32.9075L67.1008 32.7848L66.4863 32.9643L66.354 32.9738L66.3445 32.8508C67.5168 32.6808 68.3393 32.416 68.7835 32.0663C71.0713 30.3078 72.8013 29.0505 73.9735 28.3133C77.6225 25.6568 79.324 23.1043 79.116 20.6558ZM78.4923 20.8165L78.5773 21.7713C78.4638 22.0078 78.341 22.1305 78.2275 22.14L78.0858 20.514C78.3503 20.6085 78.4828 20.703 78.4923 20.8165ZM6.91051 13.1215L6.74976 13.1308L6.72151 12.8378L7.37376 12.781L7.38326 12.9323C7.27926 12.9418 7.11851 12.9985 6.91051 13.1215ZM3.72476 44.989C3.34651 44.819 3.00626 44.7528 2.71326 44.781L2.67526 44.3178C2.65651 44.1383 2.76051 44.0153 2.98726 43.968C3.19526 43.9493 3.31826 44.1005 3.33701 44.403C3.88551 43.7318 4.18801 43.3915 4.24476 43.382L4.59451 43.5238C4.48101 44.4693 4.18801 44.9513 3.72476 44.989ZM37.7668 9.37776C37.606 9.39676 37.2845 8.89576 36.8213 7.90301L36.793 7.61001C37.0955 7.58176 37.4075 8.07326 37.7383 9.08476L37.7668 9.37776ZM37.3128 5.85176L37.1805 6.16376L32.5578 4.23526C35.6395 4.33926 37.2278 4.87801 37.3128 5.85176ZM17.7915 22.6128L17.1393 22.6695L17.1108 22.3763L17.763 22.3198L17.7915 22.6128ZM17.262 12.5448L17.4228 12.5353L17.4605 12.9985C17.3093 13.008 17.1108 13.2348 16.865 13.6698L16.8365 13.3483C17.1298 12.9985 17.281 12.7338 17.262 12.5448ZM15.8913 15.7778L15.948 16.3923L15.7873 16.4018L15.7305 15.7873L15.8913 15.7778ZM15.1728 16.9313L15.4848 16.9028C15.4565 17.4133 15.3148 17.6875 15.0595 17.7063L14.8988 17.7158C15.0973 17.3755 15.1918 17.1108 15.1728 16.9313ZM14.634 18.5383L14.8135 18.5193L14.823 18.6705L14.53 19.1623L14.218 19.1905L14.2085 19.0393C14.5205 19.011 14.6623 18.8503 14.634 18.5383ZM14.1045 19.9848L14.01 20.7598L13.8493 20.7693L13.7833 20.0035L14.1045 19.9848ZM8.80126 35.063C8.59326 36.1218 8.36626 36.6605 8.13001 36.6795L8.12051 36.5283C8.06376 36.0083 8.29076 35.5168 8.80126 35.063ZM7.82751 37.171L7.83701 37.3223C7.85576 37.5303 7.76126 37.6533 7.55326 37.6625L7.54401 37.5113C7.52501 37.3318 7.61951 37.2183 7.82751 37.171ZM7.54401 41.548L8.03551 41.5008L8.05426 41.671C7.93151 41.6803 7.77076 41.7465 7.57226 41.86L7.26026 41.8883C7.24126 41.7278 7.34526 41.6048 7.54376 41.548H7.54401ZM21.535 37.2278C18.7745 38.589 17.1485 39.5155 16.6665 39.9975C13.6793 41.0375 12.195 41.6803 12.2233 41.9355C9.56701 42.985 7.81801 43.7603 6.97676 44.2423C6.77826 44.2613 6.49451 44.1855 6.11651 44.0153C6.06926 43.4765 6.31501 43.0418 6.83476 42.692C7.29801 42.654 7.74226 42.7203 8.16776 42.8998C8.65951 42.6445 9.51976 42.361 10.7393 42.0585L10.7108 41.737L9.72776 41.8223C9.85051 41.652 10.7958 41.2078 12.573 40.4893L13.0648 40.442L13.0743 40.5933C12.2328 40.6688 11.7695 40.9148 11.6655 41.359C11.6845 41.5575 11.798 41.6425 12.006 41.6238C12.6393 41.2265 12.9513 40.9903 12.9418 40.924C14.1425 40.6973 17.4605 38.9578 22.8963 35.7153L22.9248 36.0083C22.9343 36.15 22.471 36.547 21.535 37.2278ZM13.197 39.9693C13.9913 39.903 14.6718 39.5818 15.239 39.024C15.4658 39.005 15.5888 39.09 15.5983 39.2885C15.2105 39.3265 14.4638 39.6478 13.3768 40.2718L13.216 40.2813L13.197 39.9693ZM26.6493 29.6365L22.4803 32.936C19.3795 34.9685 17.7158 35.9893 17.4795 36.0083C12.5448 38.7215 9.47251 40.13 8.28126 40.234L8.10176 40.2528C8.25301 39.6953 10.446 35.2048 14.7003 26.7533C16.572 26.5925 19.5215 25.723 23.5393 24.1348L24.5223 24.0495C26.5548 23.87 28.0768 24.267 29.079 25.2125L29.1355 25.8268C28.3793 28.0013 27.5475 29.268 26.6493 29.6365ZM18.5005 25.0518L19.1718 24.995L19.181 25.1463L18.51 25.203L18.5005 25.0518ZM27.9255 23.454L28.4173 23.4068C28.871 23.6243 29.1073 23.8133 29.1263 23.9835L29.1355 24.1348C28.7008 24.1725 28.2943 23.9458 27.9255 23.454ZM29.2585 15.863C28.8238 16.3828 27.6325 17.2715 25.685 18.5193C25.0423 18.576 22.6505 19.5025 18.51 21.3175C18.303 21.2229 18.0749 21.1839 17.8483 21.2043L17.8198 20.911C17.7725 20.3155 18.0373 19.5688 18.6233 18.6613C18.9448 16.9595 19.2945 15.9858 19.6823 15.7495L23.1328 7.98826C23.0948 7.50601 23.8323 7.13726 25.3448 6.88201L25.8363 6.83476L25.8743 7.27926C27.3583 7.05226 28.2848 6.92001 28.644 6.89151C31.3855 6.65526 32.813 7.21301 32.9265 8.54601L33.2385 8.51751L33.1723 7.73301L33.5125 7.70451C34.316 8.14901 34.751 8.68776 34.8078 9.32101C34.8455 9.75601 34.6093 10.2948 34.108 10.9378C33.9003 10.9565 33.7773 10.8053 33.7583 10.5028L33.418 10.5313L33.3425 11.4765C31.9528 13.5563 30.9413 14.6245 30.3173 14.6813C29.75 15.466 29.4003 15.8535 29.2585 15.863ZM31.376 21.2988C31.0925 21.1095 30.8655 21.0245 30.6955 21.034L30.6575 20.5708L30.9695 20.5425L31.6598 20.949C31.688 21.1663 31.5935 21.2798 31.376 21.2988ZM33.5693 23.8983C33.8718 24.0213 34.0515 24.1535 34.0893 24.2765L33.938 24.3143L33.9475 24.3238C33.919 24.3238 33.8813 24.3333 33.8528 24.3428L33.626 24.5223L33.5693 23.8983ZM33.7773 25.203L33.749 25.08L34.146 24.9855L34.1743 25.1085L33.7773 25.203ZM34.732 26.2713C35.1385 26.205 35.337 26.1768 36.0933 26.0065L36.1218 26.1295L34.6848 26.4603C34.7038 26.394 34.7225 26.328 34.732 26.2713ZM36.1313 26.8668C35.5263 26.9235 35.6585 26.8478 34.6943 27.0653L34.6658 26.9425L35.8665 26.5548L36.4433 26.4225L36.4998 26.6493C36.2445 26.706 36.4338 26.706 36.1313 26.8668ZM37.4075 26.5643C37.2655 26.602 37.1523 26.536 37.086 26.3753L37.4548 26.29C37.6153 26.2523 37.7193 26.3185 37.7573 26.4793L37.4075 26.5643ZM40.8673 22.8395L40.839 22.7168L41.4345 22.575L41.4913 22.8018L40.8673 22.8395ZM44.5638 45.509C44.6015 45.3388 44.611 45.216 44.592 45.1308L44.7245 45.1025C44.885 45.0648 44.9795 45.1215 45.0175 45.2728L45.0458 45.3955L44.5638 45.509ZM47.154 23.8133L46.8893 23.766C46.4638 23.9363 46.1045 24.059 45.8115 24.1253L45.5658 24.182C45.424 24.2198 45.3105 24.163 45.2538 24.0118L46.9838 23.6148L47.551 23.35L47.74 23.5675C47.4658 23.6243 47.2673 23.7093 47.154 23.8133ZM48.4868 23.3878L48.4585 23.265C48.5435 23.246 48.657 23.18 48.78 23.057L50.0088 22.7735L50.0373 22.8963C49.385 23.057 48.865 23.2178 48.4868 23.3878ZM48.676 20.9015C48.5908 20.9205 48.4775 20.9963 48.3355 21.1095C48.3168 21.0245 48.1465 21.0245 47.825 21.1003C47.7685 20.8638 48.676 20.533 50.5573 20.098L50.8218 20.0413L50.8785 20.2683C49.555 20.6558 48.8178 20.8733 48.676 20.9015ZM51.9848 17.3283C51.8523 18.8313 51.323 19.6823 50.387 19.8995L50.3588 19.7768L49.5268 20.098L49.158 20.1833C48.969 20.2305 48.7988 20.221 48.6475 20.1738L48.572 19.8428C48.5435 19.72 49.7443 18.056 52.1833 14.8608L52.4668 14.9083C52.5708 15.343 52.41 16.1465 51.9848 17.3283ZM57.8363 12.3178L57.723 12.3273L57.704 12.091L58.1955 12.0438L58.205 12.1665C58.12 12.1855 57.997 12.2328 57.8363 12.3178ZM55.4258 36.5283C55.142 36.3958 54.8868 36.3393 54.6695 36.358L54.641 35.9988C54.6315 35.876 54.7073 35.7908 54.868 35.7435C55.0288 35.7248 55.1233 35.838 55.142 36.084C55.5485 35.564 55.7755 35.2993 55.8228 35.2993L56.078 35.4033C55.9835 36.1218 55.766 36.4998 55.4258 36.5283ZM81.2715 9.49126C81.1485 9.50076 80.9123 9.12251 80.5435 8.35676L80.5248 8.12051C80.761 8.10151 81.0068 8.47026 81.2525 9.22651L81.2715 9.49126ZM80.9313 6.78751L80.8178 7.03326L77.32 5.56801C79.655 5.64376 80.865 6.05026 80.9313 6.78751ZM66.0988 19.5215L65.607 19.5688L65.5883 19.3323L66.0798 19.2945L66.0988 19.5215ZM65.6923 11.8735L65.8245 11.864L65.8528 12.2233C65.73 12.2328 65.5788 12.403 65.399 12.7338L65.3803 12.4975C65.5978 12.2233 65.7015 12.0153 65.6923 11.8735ZM64.6618 14.3315L64.6995 14.7948L64.5673 14.8043L64.5293 14.341L64.6618 14.3315ZM64.104 15.2108L64.3498 15.1918C64.3215 15.5888 64.2175 15.7968 64.0378 15.8158L63.9055 15.825C64.0473 15.5605 64.1135 15.3525 64.104 15.2108ZM63.707 16.4208L63.8205 16.4113L63.8298 16.534L63.6125 16.9123L63.3665 16.9313L63.3573 16.8083C63.6125 16.7893 63.7258 16.657 63.707 16.4208ZM63.31 17.5173L63.2248 18.1223L63.1113 18.1318L63.064 17.5363L63.31 17.5173ZM59.2733 28.9843C59.1125 29.7785 58.9425 30.185 58.7628 30.2038L58.7533 30.0998C58.725 29.7028 58.895 29.3248 59.2733 28.9843ZM58.5265 30.582L58.5358 30.686C58.5548 30.856 58.4793 30.9508 58.309 30.96L58.2995 30.8373C58.29 30.7143 58.3658 30.6293 58.5265 30.582ZM58.3185 33.9095L58.6965 33.8813L58.706 34.004C58.621 34.0135 58.4885 34.0608 58.3373 34.146L58.0915 34.1648C58.082 34.0325 58.1578 33.9475 58.3185 33.9095ZM68.9348 30.6293C66.855 31.6598 65.6165 32.3593 65.229 32.7185C62.96 33.5125 61.8353 34.0043 61.854 34.2028C59.8405 35.0063 58.517 35.5828 57.893 35.9515C57.7418 35.961 57.5243 35.9043 57.2408 35.772C57.203 35.3655 57.392 35.0345 57.789 34.7888C58.1483 34.7605 58.4885 34.8078 58.8005 34.94C59.1788 34.751 59.831 34.543 60.7575 34.3068L60.7385 34.0703L59.9633 34.127C60.058 33.9948 60.7858 33.6543 62.1378 33.106L62.5158 33.0778L62.5253 33.1818C61.8825 33.2385 61.5233 33.4275 61.4475 33.7678C61.457 33.919 61.5515 33.9948 61.7123 33.9758C62.185 33.6638 62.4118 33.4843 62.4118 33.4275C63.3193 33.2668 65.834 31.9433 69.9653 29.4665L69.984 29.7028C69.9935 29.8068 69.6438 30.1093 68.9348 30.6293ZM62.601 32.709C63.2153 32.6523 63.7353 32.416 64.1703 32C64.3308 31.981 64.4255 32.0568 64.4348 32.208C64.1513 32.2363 63.5935 32.4728 62.752 32.9265L62.6198 32.936L62.601 32.709ZM72.8295 24.8533L69.6815 27.3868C67.3275 28.9275 66.0515 29.7028 65.8528 29.7218C62.1093 31.7825 59.7838 32.8508 58.8668 32.9265L58.7345 32.936C58.8478 32.5105 60.5213 29.0978 63.7543 22.6883C65.1628 22.5655 67.3938 21.8943 70.4568 20.6843L71.2225 20.618C72.7633 20.4858 73.9168 20.7883 74.673 21.516L74.7108 21.9793C74.134 23.6053 73.5103 24.56 72.8295 24.8533ZM66.647 21.3743L67.1385 21.327L67.148 21.45L66.6565 21.4973L66.647 21.3743ZM73.8033 20.1548L74.1815 20.1265C74.5313 20.2965 74.7108 20.448 74.7203 20.5708L74.7298 20.6748C74.3988 20.703 74.0868 20.533 73.8033 20.1548ZM74.7958 14.3978C74.465 14.7948 73.567 15.4753 72.1018 16.4208C71.61 16.468 69.795 17.1675 66.6565 18.5288C66.5053 18.472 66.335 18.4533 66.1553 18.4628L66.1365 18.2263C66.0988 17.7725 66.2973 17.2053 66.732 16.5153C66.9778 15.2108 67.252 14.4828 67.5355 14.3125L70.173 8.41351C70.1448 8.06376 70.7025 7.78026 71.837 7.56276L72.215 7.53451L72.2435 7.89376C73.359 7.71401 74.0585 7.61001 74.342 7.58176C76.4218 7.40201 77.509 7.81801 77.594 8.83901L77.8398 8.82001L77.7925 8.25276L78.0385 8.23401C78.6435 8.56476 78.9648 8.96201 79.0028 9.43451C79.031 9.77501 78.8608 10.1908 78.5015 10.673C78.341 10.6918 78.2465 10.5785 78.2275 10.3328L77.9818 10.3515L77.906 11.0605C76.8568 12.6583 76.091 13.4808 75.6088 13.5185C75.1835 14.0953 74.9188 14.3883 74.7958 14.3978ZM75.902 18.3303L75.8735 17.971L76.1193 17.9523L76.6488 18.2735C76.6583 18.4248 76.5825 18.51 76.4218 18.5288C76.195 18.387 76.0248 18.3208 75.902 18.3303ZM31.896 41.2928L31.6503 41.3495L31.4423 41.529C31.48 41.6803 31.5745 41.737 31.7353 41.6993C31.896 41.6615 31.9623 41.567 31.9245 41.4158L31.896 41.2928ZM30.9603 39.4305L30.9885 39.5533C31.1493 39.5155 31.2153 39.421 31.1775 39.2698L31.1493 39.1468C30.998 39.1848 30.9318 39.2793 30.9603 39.4305ZM37.6153 23.5958L37.899 23.5298L37.8423 23.284L37.5588 23.35L37.6153 23.5958ZM123.396 30.7995C120.522 31.4423 120.163 31.3288 119.558 31.376L119.577 31.6125L119.842 31.5935L119.984 31.584L119.946 31.5558L120.258 31.4328C123.103 31.1208 123.434 31.2343 123.406 30.9128L123.396 30.7995ZM107.921 32.8508L107.94 33.0873H107.978L107.959 32.8508H107.921ZM106.144 26.621L105.888 26.536C105.68 27.0938 105.576 27.4245 105.586 27.519L105.595 27.623C105.794 27.6135 105.974 27.2733 106.144 26.621ZM123.982 30.7523L124.001 30.9885L124.417 31.064L124.398 30.8278L123.982 30.7523ZM104.423 33.1438L103.78 33.0683L103.667 33.314L103.676 33.437L107.505 33.1155L107.486 32.8793L104.423 33.1438ZM102.684 24.7588L102.674 24.6358L102.542 24.6453L102.306 24.7965L102.438 25.0233C102.618 25.0045 102.703 24.9193 102.684 24.7588ZM125.797 29.0128L125.977 28.9938C126.081 28.9843 126.128 28.8993 126.119 28.748L126.015 28.521C125.363 28.5778 125.06 28.6063 124.531 28.8993L124.521 28.7765L123.737 28.852C123.718 28.6158 123.652 28.4928 123.548 28.5023L123.141 28.54C122.668 28.5778 122.441 28.559 122.205 28.7385C122.196 28.6535 122.167 28.6158 122.12 28.6158L121.666 28.6535L121.402 28.8048C121.392 28.7198 121.364 28.6818 121.316 28.6818L121.156 28.8238L121.146 28.7008L120.513 28.6535L120.362 28.663L120.381 28.8993L120.702 28.9843L121.005 28.9655C121.109 29.0318 121.222 29.0505 121.354 29.041L121.619 28.9088L121.628 29.0128C120.144 29.3815 120.154 29.3153 119.133 29.4855C119.019 29.4098 118.934 29.372 118.877 29.3815L118.859 29.4003C118.745 29.3908 118.679 29.3153 118.67 29.1923L119.199 29.1263C119.237 29.1263 119.265 29.164 119.558 29.2208C119.984 29.0128 120.002 28.9275 120.229 28.9088L120.21 28.6723C118.755 28.956 119.341 28.767 117.516 28.9275L117.431 28.937L117.412 28.7008C119.757 28.4173 118.972 28.5778 119.776 28.351C119.785 28.436 119.813 28.4738 119.861 28.4738C119.947 28.3857 120.06 28.3292 120.182 28.3133L120.343 28.3038C121.165 28.2375 121.439 28.3983 123.065 27.9445L123.075 28.0485L123.34 27.916L123.585 27.8973C123.566 27.6608 123.926 27.623 124.049 27.6135L124.03 27.3583C121.175 27.935 120.428 27.7743 119.634 28.0013L119.624 27.8973C118.878 28.0295 118.849 27.9728 118.66 27.9823C118.603 27.9918 118.518 28.039 118.424 28.1335C118.414 28.0485 118.386 28.0105 118.329 28.0105C118.301 28.0105 118.291 28.02 118.282 28.02L115.862 28.417C115.852 28.351 115.824 28.3133 115.767 28.3225C114.51 28.5873 114.85 28.6345 113.168 28.7858C113.092 28.7953 112.988 28.833 112.856 28.9183C112.846 28.852 112.808 28.8143 112.723 28.8235L111.693 28.9088L111.003 29.0788C110.993 29.0128 110.956 28.975 110.87 28.9843C110.483 29.0883 110.143 29.1545 109.868 29.1735H109.849C109.679 29.1923 109.935 29.1263 109.802 29.0695L109.594 29.1923C109.292 29.2208 109.452 29.1735 108.413 29.1828C106.588 29.4098 106.787 29.438 106.588 29.4475L105.907 29.4003C105.917 29.4665 105.879 29.5138 105.803 29.5138C105.028 29.4098 104.631 29.2868 104.622 29.145C104.726 28.4078 104.905 28.0295 105.161 28.0105L105.293 28.0013L105.179 28.247L105.312 28.2375C105.558 28.1053 105.671 27.9823 105.662 27.8688L105.643 27.6135L105.397 27.6325L105.378 27.3963C105.359 27.2165 105.387 27.0558 105.454 26.9235L106.011 26.0255L106.03 26.2618L106.295 26.2428L106.276 26.0065L106.125 25.789C106.323 25.619 106.475 25.5243 106.597 25.515L106.588 25.392L106.229 25.4205L106.2 25.0613C106.919 23.5675 107.259 22.6978 107.24 22.452L107.496 22.556C107.656 22.5465 107.732 22.452 107.722 22.2818L107.477 22.3008L107.467 22.1968C107.45 22.0241 107.483 21.8502 107.562 21.6958C107.949 21.2893 108.129 20.8828 108.091 20.4573C108.167 20.4478 108.205 20.4858 108.214 20.5708C108.545 20.3818 108.8 19.8808 108.989 19.0488C109.575 17.99 110.407 15.8725 111.494 12.7055C113.574 7.10901 113.489 6.51351 113.782 5.19001L113.536 5.20876C113.555 5.37901 113.517 5.53976 113.442 5.69101C113.272 5.62476 113.139 5.58701 113.045 5.59651L113.035 5.49251C112.997 5.01026 113.196 4.43376 113.65 3.75301L113.763 3.74351L113.971 4.55651L114.217 4.53776C114.208 4.48101 114.274 4.15951 114.406 3.56401C114.397 3.44101 114.302 3.36551 114.113 3.35601L113.877 3.50726C113.858 3.33701 113.867 2.89276 113.896 2.18376L113.773 2.19326C113.565 1.98526 113.461 1.81501 113.451 1.67326L112.099 1.80551C112.09 1.71101 112.043 1.56926 111.948 1.38976C111.939 1.26676 112.241 1.14376 112.865 1.02101L113.139 1.12501L113.395 0.973756C113.404 1.05876 113.451 1.09651 113.546 1.08726L113.801 0.936006C113.81 1.02101 113.858 1.05876 113.952 1.04926L114.075 1.04001L114.056 0.765756C113.867 0.784756 113.366 0.784756 112.572 0.756256L112.317 0.926506L112.307 0.775256C105.964 1.29501 102.362 1.58826 101.502 1.67326C101.389 1.68276 100.944 1.67326 100.16 1.65426C100.169 1.75826 100.075 1.81501 99.8855 1.83401L99.6113 1.71101L98.6848 1.94751C98.4673 1.96626 98.0988 1.95676 97.5883 1.90026C97.4465 2.01351 97.2763 2.07976 97.0683 2.09876C96.9548 2.10801 98.42 2.02301 99.7813 1.92851C99.6395 2.04201 99.4223 2.10801 99.1198 2.13651C98.9118 2.15551 98.732 2.12701 98.5808 2.04201C98.3728 2.13651 97.7018 2.28776 96.5768 2.51451L96.3025 2.41076L91.8783 3.09126C91.708 3.00626 91.5095 2.97776 91.2828 2.99676C91.0463 3.01576 90.6493 3.10076 90.101 3.25201L87.9645 4.14051L88.1253 4.40526C88.2293 4.39576 88.3805 4.33926 88.56 4.23526L89.3165 4.30126L89.2218 5.01026C88.5223 5.32226 88.1158 5.78551 88.0023 6.37176C86.953 6.83476 86.433 7.16576 86.433 7.36426L86.4425 7.48726L86.6033 7.47776L86.8868 7.32651L87.2178 7.72351L87.265 8.27176C87.2838 8.44201 85.516 12.1573 81.9805 19.4175C78.9175 26.413 77.3105 30.2418 77.1593 30.9318C76.11 31.2248 75.5048 31.6503 75.3253 32.2175C75.3443 32.397 75.656 32.52 76.261 32.5673L76.2895 32.8413L76.0153 33.295L76.0625 33.8435C76.091 34.127 76.8568 34.3445 78.3598 34.4958C78.3503 34.4013 78.3978 34.3445 78.5015 34.335C78.53 34.6753 78.4355 35.337 78.218 36.3203L78.3788 36.3108C79.0025 35.46 79.2958 34.8738 79.2673 34.5525L79.3998 34.543C79.551 34.5335 79.7118 34.7038 79.9008 35.0723C79.7118 35.148 79.05 36.651 77.9155 39.5913L78.0763 39.8558L78.237 39.8465C79.6265 36.3298 80.4963 34.3823 80.8555 34.0135C82.68 33.8528 85.8375 33.5315 90.3185 33.0493L90.602 32.8793C90.6115 32.9738 90.6683 33.021 90.7723 33.0115L91.0653 32.9833L91.349 32.813C91.3583 32.9075 91.415 32.9548 91.519 32.9453L94.9128 32.6523C95.811 32.5768 96.2363 32.3025 96.1985 31.8393C96.189 31.7165 96.7185 31.5745 97.7868 31.4233C97.8908 31.4138 98.042 31.4423 98.25 31.5085C98.2405 31.4233 98.7793 31.3383 99.857 31.2438C99.8855 30.6765 100.065 30.374 100.387 30.3458L100.358 30.0715C100.056 30.0998 99.7153 30.1755 99.3183 30.3078C98.6093 30.27 98.1555 30.2133 97.9663 30.147C97.7773 30.251 97.6355 30.3078 97.5315 30.3173L95.168 30.393L94.8845 30.5443C94.875 30.459 94.8183 30.4213 94.7143 30.4308L94.582 30.4403L94.2795 30.5915C94.27 30.5063 94.0243 30.4403 93.5325 30.374L93.2303 30.5535L92.644 30.6008L92.6345 30.4495C95.6785 30.1188 97.1818 29.7028 97.1438 29.2113C97.3425 29.1923 97.4465 29.2868 97.4653 29.4855L98.354 29.2585L98.3255 28.9843L91.037 29.1828C91.0463 29.2775 90.999 29.334 90.8953 29.3435L90.0065 29.268C89.7795 29.2868 89.5905 29.353 89.4393 29.4665L89.1085 29.3435C88.1915 29.4193 87.5108 29.5328 87.057 29.6745C86.433 29.6273 85.743 29.6365 84.9773 29.7028L83.3418 29.8445L82.5855 29.7595C82.5478 29.2775 83.4835 26.9045 85.412 22.6505C85.97 21.2135 86.4803 20.3155 86.972 19.9753C87.076 19.9658 87.2273 20.0035 87.4353 20.0885L88.598 19.6915L89.1935 19.786C90.1955 19.701 91.3583 19.4175 92.6913 18.9258C93.0223 18.8975 93.268 18.9165 93.4475 18.992L94.3363 18.784L96.9833 18.5573C98.108 18.4628 99.3275 18.2168 100.651 17.8103L100.623 17.5363C100.131 17.5835 99.876 17.4985 99.857 17.2998C99.8288 16.9313 99.4695 16.78 98.7793 16.8365L98.751 16.5625L99.479 16.3545L101.389 16.1938L101.36 15.9198C101.285 15.929 100.897 15.9198 100.179 15.8913L100.15 15.5983L100.888 15.532C101.086 15.5133 101.171 15.4185 101.152 15.2295C100.16 15.258 99.6585 15.2108 99.649 15.0783C92.729 15.4185 89.2598 15.4848 89.2408 15.2673C89.1368 15.2768 88.995 15.343 88.806 15.4565L88.6263 15.1728C90.4603 11.278 91.538 9.31176 91.85 9.28326C91.8593 9.43451 91.7838 9.68025 91.6135 10.0113L91.623 10.134L91.916 10.1058C92.644 8.36626 93.2585 7.46826 93.769 7.43051C95.9433 7.24126 93.4665 7.09951 98.1175 6.37176C98.3068 6.45676 98.439 6.49451 98.5335 6.48501C100.358 6.11651 102.901 5.72876 106.163 5.33176L106.144 5.05751L104.404 5.21826L104.385 4.94426C104.593 4.92526 104.763 4.85901 104.905 4.74576L104.915 4.89701C105.009 4.88751 105.142 4.82126 105.312 4.70776C105.614 4.67951 105.841 4.70776 106.002 4.79301C106.607 4.63226 107.098 4.53776 107.458 4.49976L108.545 4.39576C108.81 4.22576 108.932 4.07451 108.923 3.93276L108.914 3.80976C108.639 3.83801 108.327 3.81926 107.959 3.75301C107.949 3.60176 108.025 3.49776 108.205 3.45051L110.228 3.26151L111.154 3.02501C111.163 3.12901 111.211 3.16701 111.286 3.16701C111.381 3.15751 111.513 3.09126 111.683 2.97776C111.731 2.98726 111.787 2.98726 111.835 2.99676C111.712 3.25201 111.57 3.62076 111.428 4.10276L111.163 4.12176C111.145 3.94201 111.097 3.78151 111.012 3.63951L110.88 3.64901C108.422 10.4933 107.325 13.6793 105.057 18.9353C104.641 20.2778 104.291 21.0245 103.988 21.1853C103.998 21.3365 104.092 21.412 104.253 21.3933C104.31 22.055 104.158 22.7073 103.79 23.35C102.74 26.3753 102.041 28.0295 101.682 28.332L101.918 29.7595C101.927 29.9108 101.852 29.9958 101.691 30.0148L101.445 30.0338C101.407 29.6365 101.266 29.4475 101.01 29.476L100.878 29.4855C100.557 29.9865 100.311 30.563 100.15 31.2343L100.396 31.2153C100.727 30.998 100.878 30.7428 100.85 30.4495L101.341 30.4023L101.625 30.5063C101.398 30.8655 101.294 31.1493 101.313 31.3665L101.445 31.5935L101.124 32.3498L101.133 32.4728C101.417 32.4443 101.729 32.5388 102.06 32.7373C102.287 32.7185 102.532 32.6145 102.807 32.4348C103.09 32.4065 104.149 32.397 105.974 32.397L106.89 32.085C108.006 32.0755 108.186 32.104 109.15 32.019L109.547 31.981L109.755 31.8393L109.764 31.9623C110.776 31.877 110.842 31.9433 111.636 32.0378L111.646 32.1608L111.088 32.208L111.107 32.4443C111.277 32.4255 111.428 32.378 111.551 32.2743C111.693 32.2648 111.778 32.3403 111.787 32.5105C111.561 32.5295 111.305 32.586 111.022 32.6808L110.776 32.5955C110.388 32.6995 110.473 32.728 110.209 32.7468L109.821 32.6713C109.831 32.7373 109.793 32.7845 109.727 32.7845C109.736 32.936 109.821 33.0115 109.963 33.002L110.36 32.9643L112.43 32.7845L113.215 32.6145C113.224 32.6808 113.253 32.7185 113.319 32.709L113.697 32.5673L114.406 32.5105C114.954 32.4633 114.945 32.4255 116.136 32.2363C116.127 32.1608 116.155 32.1323 116.212 32.123L116.221 32.2268C118.159 31.896 118.282 31.877 118.594 31.773L118.622 31.8298C119.104 31.7165 118.83 31.7448 118.963 31.6503C118.972 31.7353 119 31.773 119.048 31.773L119.388 31.7448L119.369 31.4895L118.679 31.48L118.67 31.4613C118.641 31.4705 118.622 31.4705 118.594 31.48H118.499V31.499C118.036 31.5935 118.027 31.5273 117.724 31.5558L115.994 31.6503L115.985 31.5273L116.949 31.395L117.299 31.3665L117.497 31.2248L117.507 31.3478C118.868 31.2343 119.35 31.5745 125.646 30.2323C125.986 30.2038 125.958 29.9203 126.176 29.334C126.06 29.3419 125.945 29.3156 125.845 29.2585C125.325 29.457 125.051 29.3625 124.049 29.5233C123.963 29.5328 123.897 29.457 123.869 29.3058L123.859 29.2018L124.824 29.23C125.003 29.2113 125.353 29.1828 125.873 28.8898C125.873 28.975 125.684 29.0223 125.797 29.0128ZM79.2485 29.7595L78.804 29.7973C78.7853 29.6178 79.0215 28.937 79.513 27.7743L79.8063 27.746C79.8158 28.02 79.636 28.6913 79.2485 29.7595ZM79.7873 27.6043L79.7778 27.4813C79.7683 27.33 79.863 27.226 80.071 27.1788L80.0803 27.3015C80.0898 27.4813 79.9953 27.5853 79.7873 27.6043ZM85.6958 32.1703L85.7053 32.293L84.9678 32.3593L84.9583 32.2363L85.6958 32.1703ZM84.807 32.0945C84.8165 32.2458 84.5898 32.416 84.098 32.586L83.1905 32.52L82.8975 32.5483L82.8693 32.2743L84.807 32.0945ZM90.7818 4.59451L90.3373 4.63226L90.328 4.48101C90.3185 4.32976 90.4035 4.22576 90.5925 4.17851L90.7533 4.16901L91.0558 4.29176C91.0653 4.47151 90.9803 4.57551 90.7818 4.59451ZM97.541 3.27101L97.6828 3.26151L97.7015 3.53551L97.295 3.57351C97.2858 3.42226 97.3613 3.31826 97.541 3.27101ZM95.8393 3.86651L95.168 3.79076L95.1585 3.66801C96.0378 3.59226 96.3308 3.49776 96.8698 3.34651C96.8793 3.45051 96.9738 3.48826 97.1438 3.46951L97.1628 3.74351L96.898 3.77201C96.69 3.79076 96.5105 3.76251 96.3593 3.67751C96.1985 3.78151 96.0283 3.84751 95.8393 3.86651ZM96.6808 6.31501L96.6713 6.19201L97.7583 6.08801L97.7678 6.21101L96.6808 6.31501ZM97.8435 5.36951L97.834 5.21826L98.3633 5.17101L98.3728 5.32226L97.8435 5.36951ZM97.9663 3.51676L97.8245 3.52626L97.9475 3.23301L99.1575 3.11976L99.167 3.27101C98.855 3.29926 98.4485 3.38426 97.9663 3.51676ZM98.5808 6.12576L98.5618 5.85176L99.0913 5.80451C99.271 5.78551 99.3655 5.87051 99.375 6.05976L98.5808 6.12576ZM101.786 1.75826L101.105 1.94751L100.982 1.95676C100.661 1.98526 100.245 1.97576 99.753 1.92851C100.632 1.87176 101.474 1.80551 101.786 1.75826ZM101.058 4.78351L101.067 4.90626L100.131 4.99151L100.122 4.86851L101.058 4.78351ZM102.589 5.51126C102.58 5.39801 102.4 5.32226 102.031 5.28451L101.096 5.54926L100.377 5.57751C100.216 5.46401 100.131 5.38851 100.122 5.33176L100.954 5.37901L102.826 5.07651L103.78 5.11426L103.79 5.26551C103.317 5.31276 102.92 5.39801 102.589 5.51126ZM112.222 3.02501C112.336 3.03451 112.411 3.03451 112.44 3.03451C112.771 2.71326 113.139 2.45801 113.565 2.27826C113.224 3.77201 112.695 4.87801 111.967 5.59651L111.438 5.27501C111.882 4.15001 112.147 3.40326 112.222 3.02501ZM110.596 5.81401L110.729 5.80451C110.549 6.14476 110.388 6.32426 110.256 6.33376L110.228 5.97451C110.313 5.97451 110.436 5.91776 110.596 5.81401ZM109.547 8.31901C109.802 7.29801 110.048 6.72151 110.275 6.57026L110.284 6.69301C110.152 7.63851 109.944 8.13951 109.67 8.17726L109.717 8.77276C109.49 9.09426 109.386 9.34001 109.396 9.52901L109.263 9.53851L109.188 8.71601C109.339 8.69726 109.462 8.56476 109.547 8.31901ZM109.14 9.68026C109.15 9.82226 109.055 10.153 108.866 10.6635L108.734 10.673L108.706 10.3138C108.885 9.89776 109.036 9.68976 109.14 9.68026ZM101.512 31.8203L101.502 31.7165L101.748 31.6975L101.776 32.0568C101.644 32.0663 101.549 31.9905 101.512 31.8203ZM112.411 32.104C112.402 32.019 112.364 31.981 112.279 31.9905L111.665 32.0473L111.655 31.9243H111.712L113.168 31.8015L113.177 31.9243C112.752 31.9433 112.496 32.0095 112.411 32.104ZM111.683 31.8015C111.74 31.8298 111.712 31.8583 111.683 31.877C111.655 31.8678 111.617 31.8393 111.683 31.8015ZM111.759 30.0998L110.946 30.166L110.937 30.043L111.674 29.977L112.317 29.8163C112.326 29.8918 112.364 29.9203 112.449 29.9108C113.215 29.7785 113.139 29.7408 113.508 29.7123C113.631 29.7028 113.707 29.7785 113.716 29.9298L111.759 30.0998ZM114.605 29.854C114.151 29.8068 114.122 29.769 113.801 29.7973L113.792 29.6933L114.519 29.6273L114.529 29.7313C114.453 29.7408 114.727 29.7595 114.605 29.854ZM114.661 29.7218L114.652 29.6178L115.049 29.58L115.058 29.684L114.661 29.7218ZM115.54 29.646L115.531 29.542C115.597 29.5328 115.692 29.4855 115.815 29.3908C116.013 29.372 116.117 29.5043 116.136 29.6555L115.54 29.646ZM116.665 29.5043L116.656 29.3815L117.138 29.3435L117.148 29.4665L116.665 29.5043ZM117.337 29.4475C117.327 29.3058 117.384 29.2208 117.507 29.2018L117.667 29.4098C117.658 29.3435 117.686 29.3058 117.743 29.2963L117.866 29.5233L117.337 29.4475ZM110.199 32.5295L110.18 32.293L110.105 32.3025L110.124 32.5388L110.199 32.5295ZM126.809 28.228C126.885 28.1808 126.922 28.1335 126.743 28.1053C126.658 28.1998 126.837 28.228 126.648 28.2375L126.658 28.3225C126.677 28.3038 126.724 28.2753 126.762 28.247L126.658 28.332V28.3415L126.459 28.5968L126.856 28.455H126.904L126.885 28.2185L126.809 28.228ZM127.499 28.767L127.423 28.7765L127.442 29.0128L128 28.9655C127.991 28.8143 127.622 28.767 127.499 28.767ZM126.639 28.351L126.648 28.3415V28.332C126.648 28.332 126.639 28.3415 126.639 28.351Z" fill="black"/>
<path d="M90.3467 10.8525L90.3562 11.0037L90.6683 10.9755C90.6588 10.881 90.6965 10.7297 90.7627 10.5405L90.7345 10.2665C90.602 10.276 90.4697 10.4745 90.3467 10.8525ZM87.3595 3.668L87.3313 3.39375L86.8867 3.4315L86.9153 3.70575L87.3595 3.668ZM78.6908 19.8995C78.6718 19.6442 77.8778 18.6518 76.3085 16.9028C76.28 16.5815 76.819 16.0992 77.925 15.466L81.0825 12.715C81.7915 11.8168 82.2073 10.361 82.3303 8.338L82.2925 7.87475C82.1695 6.4755 81.158 5.35075 79.239 4.4905C78.1045 3.72475 76.0625 3.29925 73.1133 3.2235C70.6742 3.4315 67.4883 4.30125 63.5653 5.84225C62.4875 6.6175 61.2585 7.3925 59.8783 8.16775L59.8973 8.40425C59.9823 8.39475 60.1145 8.3475 60.266 8.2435C60.4265 8.2245 60.5212 8.30025 60.5305 8.4515L60.767 8.3285L60.8802 8.319L60.8898 8.423C60.8993 8.546 60.0485 9.217 58.328 10.4178L58.4603 10.6635L58.3467 10.673L58.0633 10.569C58.0728 10.654 57.9498 10.7107 57.7135 10.7297L57.723 10.8337L57.997 11.174C57.912 11.1835 57.7797 11.1458 57.6 11.0795C57.203 11.1173 56.8153 11.3252 56.4277 11.7222L56.5885 11.0227C57.1653 8.5365 57.5622 6.33375 57.7702 4.42425L57.7417 4.30125C57.3447 4.046 56.9572 3.68675 56.598 3.233C56.6075 2.94 56.6075 2.76975 56.598 2.732L56.5695 2.628L56.4562 2.6565C55.2082 4.52825 52.807 7.7235 49.2433 12.2423C46.53 15.4565 45.1307 17.243 45.0457 17.6022C43.9398 18.7463 43.4102 19.4363 43.467 19.6728C43.174 19.8617 43.051 20.0508 43.0985 20.2588C43.0132 20.2778 42.9565 20.2492 42.9378 20.1642C42.465 20.93 41.7655 21.4215 40.8295 21.639L39.8462 21.8657C39.714 21.8942 39.6478 21.9888 39.6572 22.1495L39.6857 22.2722L40.0542 22.1873L40.0827 22.2913L39.2508 22.6127L37.776 22.953L37.001 23.0002C36.8875 23.1138 37.6152 22.9907 37.3317 23.057L36.3675 23.284C35.7815 23.4163 35.46 23.369 35.4033 23.1327L35.2897 23.161C35.3088 23.265 35.3183 23.3405 35.2993 23.4067L35.2425 23.1705L34.4673 23.35C34.4108 22.9908 33.3613 21.6863 31.3288 19.4363C31.291 19.0015 32.0095 18.368 33.4748 17.5457L37.6152 13.906C38.5417 12.715 39.09 10.8053 39.2697 8.17725L39.213 7.56275C39.0522 5.71 37.71 4.21625 35.1857 3.063C33.6922 2.0515 31.0075 1.5125 27.1315 1.4275C23.9172 1.7015 19.72 2.8455 14.5583 4.84025C13.1403 5.8705 11.5238 6.8915 9.70875 7.903L9.737 8.2245C9.86 8.215 10.0208 8.149 10.2192 8.0355C10.4272 8.0165 10.5407 8.111 10.5595 8.30025L10.881 8.1205L11.0417 8.111L11.051 8.26225C11.0605 8.4135 9.9355 9.29275 7.65725 10.8997L7.837 11.1835L7.67625 11.193L7.3265 11.07C7.336 11.1645 7.17525 11.2308 6.84425 11.259L6.86325 11.4292L7.24125 11.8453C7.1185 11.8547 6.94825 11.8167 6.731 11.7413C5.9935 11.8073 5.275 12.3368 4.566 13.3387L4.74575 13.6225C5.36025 13.0553 5.71925 12.7717 5.82325 12.7622L5.86125 13.2255C5.75725 13.2347 5.5965 13.301 5.379 13.4145L5.76675 14.0005C6.49882 13.2094 7.32778 12.5138 8.234 11.9303C8.67825 12.0437 8.91475 12.1855 8.924 12.3368L9.2645 12.3085C11.7035 10.5028 14.114 9.19825 16.5058 8.39475L16.5343 8.716C16.0898 9.37775 15.7873 9.71825 15.6265 9.737C15.6455 9.964 15.7212 10.1625 15.863 10.3328C15.9008 10.7393 14.8135 13.4808 12.611 18.5478C7.61 30.3268 3.41275 39.0427 0 44.677C0.0095 44.7905 0.07575 44.9417 0.1985 45.1307C1.04 44.9322 1.56925 44.7245 1.79625 44.5257L1.97575 44.507L2.00425 44.8283L2.316 44.8L2.6375 44.6205C2.647 44.715 2.751 44.7623 2.9685 44.7433L2.99675 45.0648C3.025 45.3768 2.8455 45.8493 2.46725 46.5015C2.127 46.8892 1.75825 47.7023 1.37075 48.9408L1.38025 49.0918L1.69225 49.0635C3.0535 47.5415 4.084 46.0477 4.793 44.592C8.7635 43.4292 11.7885 42.2852 13.8872 41.1605C15.9952 40.9808 17.6022 40.423 18.699 39.506L18.68 39.336L17.886 39.5723L17.7062 39.5913L17.6875 39.421C19.2378 39.1847 20.306 38.8442 20.9018 38.3717C23.9173 36.046 26.1955 34.4013 27.7365 33.4275C30.9035 31.102 32.9642 28.833 33.9002 26.6305C34.0702 26.5925 34.2405 26.5548 34.4295 26.5075C34.8737 26.4888 35.1197 26.4792 35.1857 26.4603C35.167 26.3753 35.2048 26.328 35.2897 26.309C35.9987 26.2335 35.6585 26.3563 36.1123 26.2523L37.3035 25.9783L37.502 25.9307L37.4075 25.9875C37.5398 26.0065 37.6815 25.997 37.8423 25.9592L37.9272 26.309L32.5105 34.921L31.31 36.4243L30.7237 38.3905L30.8372 38.3623L31.4233 38.1165L31.2342 38.8823L31.291 39.109L31.4517 39.3075C31.376 39.3265 31.3478 39.3738 31.3665 39.4588L31.395 39.5817L31.6408 39.525C32 39.213 32.1513 38.9295 32.0945 38.6743C32.482 38.7403 32.7373 38.7687 32.8698 38.731L32.898 38.8537C32.6617 38.9105 32.5387 39.0995 32.52 39.421L32.5482 39.5438L32.6808 39.5155C34.647 37.3695 39.4683 30.0243 43.3348 25.0422C43.2118 24.5035 45.2255 23.7565 49.385 22.7922L49.5173 22.764C49.6685 23.4163 49.3473 24.995 48.553 27.5002C48.0425 29.0128 47.7967 29.8445 47.8345 29.977C47.1727 31.9905 46.8608 33.0778 46.8988 33.2477L45.424 38.0785C44.469 40.5555 43.7413 43.155 43.2308 45.8965C43.3158 45.8778 43.4482 45.8873 43.6372 45.9345L43.8452 45.7547C43.864 45.84 43.9207 45.8683 44.006 45.8493L43.9207 45.4995L44.5638 45.4808C44.7528 45.4335 44.9135 45.197 45.0457 44.7622C45.0175 44.11 45.1497 43.7603 45.4427 43.6845C45.8397 42.1343 46.0858 41.359 46.1707 41.3305C46.5395 39.7898 46.8135 38.9105 46.9933 38.693C47.551 36.689 47.9575 35.6585 48.2223 35.5923L48.279 35.838L47.8725 36.8875C47.1632 40.0355 46.445 42.5217 45.717 44.3462L45.925 45.2537L46.0573 45.2255C47.8158 41.444 50.3492 33.9567 53.6485 22.764C53.743 21.7808 54.2157 21.015 55.057 20.4762L54.868 20.2778L54.8395 20.1737C55.2178 20.0885 55.4825 19.9375 55.6338 19.7295C55.6147 19.6442 55.284 19.5215 54.641 19.3512L56.286 12.299C56.6452 11.9775 56.8532 11.8075 56.9193 11.8075L56.9478 12.1665C56.8628 12.176 56.7302 12.2232 56.579 12.3272L56.891 12.7718C57.4582 12.1573 58.0728 11.6278 58.7438 11.1835C59.0843 11.278 59.2542 11.3915 59.2733 11.5048L59.519 11.486C61.3908 10.1152 63.2248 9.132 65.0305 8.5365L65.0492 8.77275C64.7185 9.27375 64.4915 9.529 64.3688 9.5385C64.3875 9.70875 64.4347 9.86 64.52 9.99225C64.5482 10.3043 63.7352 12.384 62.0715 16.241C58.2712 25.1745 55.0853 31.7825 52.495 36.0745C52.5045 36.1595 52.5612 36.273 52.6652 36.4243C53.2987 36.273 53.7052 36.1122 53.866 35.961L53.9793 35.9515L53.9982 36.1878L54.263 36.169L54.4992 36.046C54.5087 36.1123 54.5938 36.1405 54.7545 36.1312L54.7735 36.3865C54.7922 36.6133 54.66 36.9725 54.367 37.464C54.0928 37.7573 53.8092 38.3717 53.5067 39.3075L53.516 39.4305L53.762 39.4115C54.7923 38.2582 55.577 37.1238 56.1157 36.0083C59.1315 35.1198 61.4287 34.2593 63.0168 33.4085C64.6335 33.2668 65.8528 32.8507 66.6848 32.1512L66.6752 32.0283L66.0608 32.208L65.9285 32.2175L65.919 32.0945C67.0912 31.9243 67.9137 31.6597 68.358 31.31C70.6458 29.5515 72.3757 28.2942 73.548 27.5567C77.197 24.9005 78.8988 22.348 78.6908 19.8995ZM78.0667 20.0602L78.1517 21.015C78.0385 21.2515 77.9155 21.3743 77.802 21.3838L77.6602 19.7577C77.925 19.8522 78.0573 19.9467 78.0667 20.0602ZM6.485 12.3652L6.3245 12.3745L6.296 12.0815L6.94825 12.0247L6.95775 12.176C6.85375 12.1855 6.693 12.2422 6.485 12.3652ZM3.29925 44.2327C2.92125 44.0625 2.58075 43.9965 2.28775 44.0247L2.25 43.5615C2.231 43.382 2.335 43.259 2.562 43.2118C2.76975 43.193 2.89275 43.3442 2.91175 43.6468C3.46 42.9755 3.7625 42.6353 3.81925 42.6258L4.169 42.7675C4.0555 43.7128 3.7625 44.195 3.29925 44.2327ZM37.3413 8.6215C37.1805 8.6405 36.859 8.1395 36.396 7.14675L36.3675 6.85375C36.67 6.8255 36.982 7.317 37.3128 8.3285L37.3413 8.6215ZM36.8875 5.0955L36.755 5.4075L32.1323 3.47875C35.2143 3.58275 36.8025 4.12175 36.8875 5.0955ZM17.366 21.8565L16.7138 21.9132L16.6855 21.62L17.3377 21.5632L17.366 21.8565ZM16.8365 11.7885L16.9972 11.779L17.0352 12.2423C16.884 12.2517 16.6855 12.4785 16.4395 12.9135L16.4112 12.592C16.7042 12.2423 16.8555 11.9775 16.8365 11.7885ZM15.4657 15.0215L15.5225 15.636L15.362 15.6455L15.3053 15.031L15.4657 15.0215ZM14.7475 16.175L15.0595 16.1465C15.031 16.657 14.8892 16.9313 14.634 16.95L14.4733 16.9595C14.6718 16.6192 14.7663 16.3545 14.7475 16.175ZM14.2085 17.782L14.3883 17.763L14.3975 17.9142L14.1045 18.406L13.7925 18.4342L13.7832 18.283C14.0953 18.2548 14.237 18.094 14.2085 17.782ZM13.6792 19.2285L13.5848 20.0035L13.424 20.013L13.3577 19.2472L13.6792 19.2285ZM8.37575 34.3068C8.16775 35.3655 7.941 35.9042 7.7045 35.9232L7.69525 35.772C7.6385 35.252 7.86525 34.7605 8.37575 34.3068ZM7.402 36.4147L7.4115 36.566C7.4305 36.774 7.336 36.897 7.128 36.9062L7.1185 36.755C7.0995 36.5755 7.194 36.462 7.402 36.4147ZM7.1185 40.7918L7.61 40.7445L7.629 40.9147C7.506 40.924 7.34525 40.9902 7.14675 41.1037L6.83475 41.132C6.816 40.9712 6.92 40.8485 7.1185 40.7918ZM21.1095 36.4715C18.3493 37.8328 16.7232 38.7593 16.241 39.2412C13.2537 40.2812 11.7695 40.924 11.798 41.1792C9.1415 42.2287 7.3925 43.0037 6.55125 43.486C6.35275 43.5047 6.06925 43.4292 5.691 43.259C5.64375 42.7202 5.8895 42.2853 6.4095 41.9355C6.87275 41.8978 7.317 41.964 7.7425 42.1435C8.234 41.8883 9.09425 41.6048 10.3138 41.3022L10.2855 40.9808L9.30225 41.0658C9.425 40.8958 10.3705 40.4515 12.1477 39.733L12.6392 39.6857L12.6488 39.837C11.8075 39.9125 11.3442 40.1582 11.2402 40.6027C11.259 40.8013 11.3725 40.8862 11.5805 40.8672C12.214 40.4702 12.5258 40.234 12.5165 40.1678C13.717 39.941 17.0353 38.2015 22.471 34.959L22.4993 35.252C22.5088 35.3937 22.0455 35.7907 21.1095 36.4715ZM12.7718 39.213C13.5658 39.1468 14.2465 38.8255 14.8135 38.2677C15.0405 38.2487 15.1635 38.3337 15.1728 38.5322C14.7853 38.5702 14.0385 38.8915 12.9513 39.5155L12.7905 39.525L12.7718 39.213ZM26.224 28.8803L22.055 32.189C18.9543 34.2215 17.2905 35.2425 17.0445 35.2615C12.11 37.9745 9.0375 39.3833 7.8465 39.4873L7.66675 39.506C7.818 38.9482 10.0112 34.458 14.2653 26.0065C16.137 25.8458 19.0865 24.976 23.1042 23.388L24.0875 23.3027C26.12 23.1232 27.642 23.5203 28.644 24.4655L28.7008 25.08C27.954 27.245 27.122 28.5118 26.224 28.8803ZM18.075 24.2955L18.7463 24.2388L18.7558 24.39L18.0845 24.4468L18.075 24.2955ZM27.5002 22.6978L27.9918 22.6505C28.4455 22.868 28.6818 23.057 28.7008 23.2272L28.7103 23.3785C28.2753 23.4163 27.8687 23.1893 27.5002 22.6978ZM28.833 15.1067C28.3983 15.6265 27.207 16.5153 25.2598 17.763C24.6168 17.8197 22.225 18.7463 18.0845 20.5613C17.8775 20.4667 17.6494 20.4276 17.4228 20.4478L17.3945 20.1548C17.3472 19.5592 17.6117 18.8125 18.198 17.905C18.5193 16.2033 18.8692 15.2295 19.2568 14.9932L22.7073 7.232C22.6695 6.74975 23.4067 6.381 24.9193 6.12575L25.411 6.0785L25.4487 6.523C26.933 6.296 27.8593 6.16375 28.2185 6.13525C30.9603 5.899 32.3875 6.45675 32.501 7.78975L32.813 7.76125L32.7467 6.97675L33.0872 6.94825C33.8908 7.3925 34.3255 7.9315 34.3823 8.56475C34.42 8.99975 34.1838 9.5385 33.6828 10.1815C33.4748 10.2003 33.3517 10.049 33.333 9.7465L32.9925 9.775L32.917 10.7203C31.5273 12.8 30.5158 13.8682 29.892 13.925C29.3248 14.7095 28.975 15.0972 28.833 15.1067ZM30.9508 20.5425C30.667 20.3532 30.4403 20.2682 30.27 20.2778L30.2323 19.8145L30.5443 19.786L31.2342 20.1928C31.2627 20.41 31.168 20.5235 30.9508 20.5425ZM33.144 23.142C33.4465 23.265 33.626 23.3973 33.6637 23.5203L33.5125 23.558L33.522 23.5675C33.4937 23.5675 33.4558 23.577 33.4275 23.5865L33.2005 23.766L33.144 23.142ZM33.3517 24.4468L33.3235 24.3237L33.7205 24.2292L33.749 24.3522L33.3517 24.4468ZM34.3068 25.515C34.7133 25.4487 34.9118 25.4205 35.668 25.2502L35.6963 25.373L34.2595 25.704C34.2782 25.6378 34.2973 25.5717 34.3068 25.515ZM35.7057 26.1105C35.1007 26.1672 35.233 26.0915 34.2687 26.309L34.2405 26.186L35.4505 25.7985L36.0272 25.6663L36.084 25.893C35.8192 25.9497 36.0083 25.9498 35.7057 26.1105ZM36.982 25.808C36.8402 25.8458 36.7267 25.7797 36.6605 25.619L37.0293 25.5338C37.19 25.496 37.294 25.5623 37.3317 25.723L36.982 25.808ZM40.442 22.0833L40.4135 21.9605L41.0093 21.8185L41.066 22.0455L40.442 22.0833ZM44.1382 44.7528C44.176 44.5825 44.1855 44.4598 44.1665 44.3745L44.299 44.3462C44.4598 44.3085 44.5542 44.3652 44.592 44.5165L44.6205 44.6393L44.1382 44.7528ZM46.7285 23.057L46.4637 23.0098C46.0385 23.18 45.6793 23.3027 45.386 23.369L45.1403 23.4258C44.9985 23.4635 44.885 23.4068 44.8283 23.2555L46.5583 22.8585L47.1255 22.5938L47.3148 22.8113C47.0405 22.868 46.842 22.953 46.7285 23.057ZM48.0615 22.6315L48.033 22.5088C48.1183 22.4898 48.2315 22.4237 48.3545 22.3008L49.5835 22.017L49.6118 22.14C48.9595 22.3007 48.4395 22.4615 48.0615 22.6315ZM48.2505 20.1453C48.1655 20.1642 48.052 20.2397 47.9103 20.3533C47.8913 20.2683 47.7212 20.2682 47.3997 20.3438C47.343 20.1075 48.2505 19.7767 50.1317 19.3417L50.3965 19.285L50.4533 19.512C49.1297 19.8995 48.3923 20.117 48.2505 20.1453ZM51.5592 16.572C51.427 18.075 50.8975 18.9257 49.9615 19.1432L49.9333 19.0205L49.1012 19.3417L48.7327 19.427C48.5435 19.4743 48.3735 19.4648 48.2223 19.4175L48.1465 19.0865C48.1182 18.9638 49.3188 17.2997 51.7578 14.1045L52.0412 14.1517C52.1452 14.5868 51.9847 15.3903 51.5592 16.572ZM57.411 11.5615L57.2975 11.571L57.2785 11.3348L57.7702 11.2875L57.7795 11.4102C57.6945 11.4292 57.5718 11.4765 57.411 11.5615ZM55.0003 35.772C54.7168 35.6395 54.4615 35.5827 54.244 35.6017L54.2158 35.2425C54.2063 35.1198 54.2817 35.0345 54.4425 34.9873C54.6033 34.9685 54.6978 35.0817 54.7168 35.3275C55.1233 34.8078 55.35 34.543 55.3973 34.543L55.6525 34.647C55.558 35.3655 55.3408 35.7435 55.0003 35.772ZM80.846 8.735C80.7233 8.7445 80.4867 8.36625 80.1182 7.6005L80.0993 7.36425C80.3355 7.34525 80.5815 7.714 80.8272 8.47025L80.846 8.735ZM80.5058 6.03125L80.3923 6.277L76.8945 4.81175C79.2295 4.8875 80.4395 5.294 80.5058 6.03125ZM65.6732 18.7652L65.1817 18.8125L65.1628 18.576L65.6543 18.5287L65.6732 18.7652ZM65.2667 11.1173L65.399 11.1077L65.4275 11.467C65.3045 11.4765 65.1532 11.6467 64.9737 11.9775L64.9548 11.7413C65.1722 11.467 65.2762 11.259 65.2667 11.1173ZM64.2363 13.5752L64.2742 14.0385L64.1417 14.048L64.104 13.5848L64.2363 13.5752ZM63.6785 14.4543L63.9243 14.4355C63.896 14.8325 63.792 15.0405 63.6125 15.0592L63.48 15.0688C63.6217 14.8043 63.688 14.5963 63.6785 14.4543ZM63.2815 15.6645L63.395 15.655L63.4045 15.7778L63.187 16.156L62.9412 16.175L62.9318 16.052C63.187 16.033 63.3005 15.9008 63.2815 15.6645ZM62.8845 16.761L62.7995 17.366L62.686 17.3755L62.6387 16.78L62.8845 16.761ZM58.8478 28.228C58.6873 29.0223 58.517 29.4288 58.3372 29.4475L58.328 29.3435C58.2995 28.9465 58.4698 28.5683 58.8478 28.228ZM58.101 29.8258L58.1105 29.9298C58.1295 30.0998 58.0537 30.1943 57.8835 30.2038L57.8742 30.081C57.8647 29.958 57.9403 29.873 58.101 29.8258ZM57.893 33.1533L58.2713 33.125L58.2805 33.2477C58.1955 33.2572 58.0632 33.3045 57.912 33.3898L57.6662 33.4085C57.6567 33.2762 57.7323 33.1912 57.893 33.1533ZM68.5092 29.873C66.4295 30.9035 65.191 31.603 64.8035 31.9622C62.5347 32.7562 61.4097 33.2477 61.4287 33.4463C59.415 34.25 58.0915 34.8265 57.4678 35.1953C57.3165 35.2048 57.099 35.148 56.8153 35.0158C56.7775 34.6092 56.9665 34.2783 57.3638 34.0325C57.723 34.0042 58.0633 34.0515 58.3753 34.1838C58.7533 33.9948 59.4055 33.7868 60.332 33.5503L60.3133 33.314L59.5475 33.3802C59.642 33.2477 60.3697 32.9075 61.7217 32.3592L62.0998 32.3307L62.1092 32.4347C61.4665 32.4915 61.1073 32.6808 61.0315 33.021C61.041 33.1722 61.1355 33.2477 61.2962 33.229C61.769 32.917 61.9958 32.7373 61.9958 32.6808C62.9035 32.52 65.418 31.1965 69.5492 28.7197L69.568 28.956C69.568 29.0505 69.2182 29.353 68.5092 29.873ZM62.1755 31.9527C62.79 31.896 63.31 31.6597 63.7448 31.2437C63.9055 31.2342 64 31.3005 64.0095 31.4517C63.7257 31.48 63.168 31.7165 62.3268 32.1702L62.1945 32.1795L62.1755 31.9527ZM72.4043 24.097L69.2562 26.6305C66.9023 28.1713 65.626 28.9465 65.4275 28.9655C61.684 31.0262 59.3582 32.0945 58.4412 32.1702L58.309 32.1795C58.4225 31.7543 60.0957 28.3415 63.3288 21.932C64.7373 21.8092 66.9685 21.138 70.0312 19.928L70.797 19.8617C72.338 19.7295 73.4912 20.032 74.2475 20.7598L74.2855 21.223C73.7087 22.849 73.0847 23.8038 72.4043 24.097ZM66.2215 20.618L66.7132 20.5707L66.7225 20.6938L66.231 20.741L66.2215 20.618ZM73.3777 19.3985L73.756 19.3703C74.1057 19.5403 74.2855 19.6915 74.2947 19.8145L74.3043 19.9185C73.9735 19.9468 73.6615 19.7768 73.3777 19.3985ZM74.3705 13.6412C74.0395 14.0385 73.1415 14.719 71.6762 15.6645C71.1847 15.7118 69.3695 16.4112 66.231 17.7725C66.0798 17.7157 65.9095 17.697 65.73 17.7062L65.711 17.47C65.6732 17.0162 65.8717 16.449 66.3067 15.759C66.5525 14.4543 66.8265 13.7265 67.1103 13.5562L69.7477 7.65725C69.7192 7.3075 70.277 7.024 71.4115 6.8065L71.7897 6.77825L71.818 7.13725C72.9335 6.95775 73.633 6.85375 73.9167 6.8255C75.9965 6.64575 77.0835 7.06175 77.1687 8.08275L77.4145 8.06375L77.3672 7.4965L77.613 7.47775C78.218 7.8085 78.5395 8.2055 78.5772 8.67825C78.6055 9.0185 78.4355 9.4345 78.0762 9.91675C77.9155 9.9355 77.821 9.82225 77.802 9.57625L77.5563 9.59525L77.4808 10.3042C76.4313 11.902 75.6655 12.7242 75.1835 12.7622C74.758 13.3387 74.4932 13.632 74.3705 13.6412ZM75.4765 17.574L75.4482 17.2148L75.694 17.196L76.2233 17.5173C76.2327 17.6685 76.1572 17.7537 75.9965 17.7725C75.7695 17.6307 75.5995 17.5645 75.4765 17.574ZM31.4705 40.5365L31.2248 40.5933L31.0168 40.7728C31.0548 40.924 31.1493 40.9808 31.31 40.943C31.4705 40.9053 31.5368 40.8107 31.499 40.6595L31.4705 40.5365ZM30.5347 38.6743L30.563 38.797C30.7237 38.7593 30.79 38.6647 30.7523 38.5135L30.7237 38.3905C30.5725 38.4282 30.5063 38.523 30.5347 38.6743ZM37.2277 26.101L37.4075 25.9875C37.3695 25.9875 37.3413 25.978 37.3128 25.9688C37.2467 25.9875 37.2183 26.0347 37.2277 26.101ZM37.19 22.8395L37.4735 22.7735L37.4168 22.5275L37.1333 22.5938L37.19 22.8395ZM103.998 32.3875L103.355 32.312L103.241 32.5578L103.251 32.6808L107.079 32.3592L107.061 32.123L103.998 32.3875ZM107.495 32.0945L107.514 32.3307H107.552L107.533 32.0945H107.495ZM123.557 29.9958L123.576 30.2323L123.992 30.3078L123.973 30.0715L123.557 29.9958ZM122.971 30.043C120.097 30.686 119.738 30.5725 119.133 30.6197L119.151 30.856L119.416 30.8372L119.558 30.8277L119.52 30.7995L119.832 30.6765C122.678 30.3645 123.008 30.478 122.98 30.1565L122.971 30.043ZM105.718 25.8647L105.463 25.7798C105.255 26.3373 105.151 26.6683 105.16 26.7628L105.17 26.8668C105.368 26.8573 105.548 26.517 105.718 25.8647ZM102.258 24.0025L102.249 23.8795L102.117 23.889L101.88 24.0403L102.012 24.267C102.192 24.2483 102.277 24.163 102.258 24.0025ZM109.774 31.773L109.755 31.5368L109.679 31.5462L109.698 31.7825L109.774 31.773ZM125.372 28.2565L125.551 28.2375C125.655 28.228 125.703 28.143 125.693 27.9918L125.589 27.7647C124.937 27.8215 124.634 27.85 124.105 28.143L124.096 28.02L123.311 28.0958C123.292 27.8593 123.226 27.7365 123.122 27.746L122.715 27.7838C122.243 27.8215 122.016 27.8027 121.78 27.9823C121.77 27.8973 121.742 27.8592 121.695 27.8592L121.241 27.8972L120.976 28.0485C120.966 27.9632 120.938 27.9255 120.891 27.9255L120.73 28.0672L120.721 27.9445L120.088 27.8972L119.936 27.9067L119.955 28.143L120.276 28.228L120.579 28.2092C120.683 28.2752 120.797 28.2943 120.929 28.2847L121.193 28.1525L121.203 28.2565C119.719 28.625 119.728 28.559 118.707 28.729C118.594 28.6535 118.509 28.6157 118.452 28.625L118.433 28.644C118.32 28.6345 118.254 28.559 118.244 28.436L118.773 28.3697C118.811 28.3697 118.84 28.4078 119.132 28.4645C119.558 28.2565 119.577 28.1712 119.804 28.1525L119.785 27.916C118.329 28.1998 118.915 28.0105 117.091 28.1712L117.006 28.1807L116.987 27.9445C119.331 27.6607 118.547 27.8215 119.35 27.5947C119.359 27.6797 119.388 27.7175 119.435 27.7175C119.521 27.6296 119.634 27.573 119.757 27.5567L119.917 27.5475C120.74 27.4813 121.014 27.642 122.64 27.1882L122.649 27.2922L122.914 27.1597L123.16 27.141C123.141 26.9045 123.5 26.8668 123.623 26.8573L123.604 26.602C120.749 27.1787 120.002 27.018 119.208 27.245L119.199 27.141C118.452 27.2733 118.424 27.2165 118.234 27.226C118.178 27.2355 118.093 27.2828 117.998 27.3773C117.989 27.2923 117.96 27.2542 117.904 27.2542C117.875 27.2542 117.866 27.2638 117.856 27.2638L115.436 27.6607C115.427 27.5947 115.398 27.5567 115.342 27.5662C114.085 27.831 114.425 27.8782 112.742 28.0295C112.666 28.039 112.562 28.0768 112.43 28.1618C112.421 28.0958 112.383 28.058 112.298 28.0672L111.267 28.1525L110.577 28.3225C110.568 28.2565 110.53 28.2185 110.445 28.228C110.057 28.332 109.717 28.3983 109.443 28.417H109.424C109.254 28.436 109.509 28.3697 109.377 28.3132L109.169 28.436C108.866 28.4645 109.027 28.417 107.987 28.4265C106.162 28.6535 106.361 28.6817 106.162 28.6912L105.482 28.644C105.491 28.7102 105.453 28.7575 105.378 28.7575C104.603 28.6535 104.206 28.5305 104.196 28.3888C104.3 27.6515 104.48 27.2732 104.735 27.2542L104.868 27.245L104.754 27.4907L104.886 27.4813C105.132 27.3488 105.245 27.226 105.236 27.1125L105.217 26.8573L104.971 26.8762L104.952 26.6397C104.934 26.4602 104.962 26.2995 105.028 26.1672L105.586 25.269L105.605 25.5055L105.869 25.4865L105.851 25.2502L105.699 25.0327C105.898 24.8625 106.049 24.768 106.172 24.7585L106.162 24.6357L105.803 24.664L105.775 24.3048C106.493 22.8113 106.834 21.9415 106.815 21.6957L107.07 21.7997C107.231 21.7902 107.306 21.6957 107.297 21.5255L107.051 21.5445L107.042 21.4405C107.024 21.2679 107.057 21.0939 107.136 20.9395C107.524 20.533 107.703 20.1265 107.665 19.701C107.741 19.6915 107.779 19.7295 107.788 19.8145C108.119 19.6255 108.375 19.1243 108.564 18.2925C109.15 17.2337 109.982 15.116 111.069 11.9493C113.149 6.35275 113.063 5.75725 113.356 4.43375L113.111 4.4525C113.13 4.62275 113.092 4.7835 113.016 4.93475C112.846 4.8685 112.714 4.83075 112.619 4.84025L112.61 4.73625C112.572 4.254 112.771 3.6775 113.224 2.99675L113.338 2.98725L113.546 3.80025L113.791 3.7815C113.782 3.72475 113.848 3.40325 113.98 2.80775C113.971 2.68475 113.877 2.60925 113.688 2.59975L113.451 2.751C113.432 2.58075 113.442 2.1365 113.47 1.4275L113.347 1.437C113.139 1.229 113.035 1.05875 113.026 0.917L111.674 1.04925C111.665 0.95475 111.617 0.813 111.522 0.63325C111.513 0.5105 111.816 0.3875 112.439 0.26475L112.714 0.36875L112.969 0.2175C112.979 0.3025 113.026 0.34025 113.12 0.33075L113.376 0.1795C113.385 0.26475 113.432 0.3025 113.527 0.293L113.65 0.2835L113.631 0.0095C113.442 0.02825 112.941 0.02825 112.146 0L111.891 0.17025L111.882 0.019C105.539 0.53875 101.937 0.832 101.076 0.917C100.963 0.9265 100.519 0.917 99.7343 0.898C99.7435 1.002 99.649 1.05875 99.46 1.07775L99.1858 0.95475L98.2595 1.19125C98.042 1.21 97.6732 1.2005 97.1628 1.14375C97.021 1.25725 96.8508 1.3235 96.6428 1.3425C96.5295 1.35175 97.9948 1.26675 99.356 1.17225C99.2143 1.28575 98.9967 1.35175 98.6943 1.38025C98.4863 1.399 98.3068 1.37075 98.1555 1.28575C97.9475 1.38025 97.2763 1.5315 96.1513 1.75825L95.8773 1.65425L91.453 2.335C91.2828 2.25 91.0842 2.2215 90.8572 2.2405C90.621 2.25925 90.224 2.3445 89.6758 2.49575L87.5393 3.38425L87.6998 3.649C87.8037 3.6395 87.955 3.58275 88.1348 3.47875L88.891 3.545L88.7965 4.254C88.097 4.566 87.6905 5.02925 87.577 5.61525C86.5278 6.0785 86.0078 6.4095 86.0078 6.608L86.0173 6.73075L86.1777 6.7215L86.4615 6.57025L86.7923 6.96725L86.8395 7.5155C86.8585 7.68575 85.0908 11.4007 81.555 18.6612C78.4922 25.6567 76.885 29.4855 76.7337 30.1755C75.6845 30.4685 75.0795 30.894 74.8997 31.4613C74.9187 31.6408 75.2307 31.7638 75.8357 31.811L75.864 32.085L75.59 32.5387L75.6373 33.0872C75.6655 33.3708 76.4313 33.5882 77.9345 33.7395C77.925 33.645 77.9723 33.5882 78.0762 33.5788C78.1045 33.919 78.01 34.5807 77.7925 35.564L77.9532 35.5545C78.5772 34.7038 78.8703 34.1175 78.842 33.7962L78.9743 33.7868C79.1255 33.7773 79.2862 33.9475 79.4753 34.316C79.2862 34.3918 78.6245 35.8948 77.49 38.8348L77.6507 39.0995L77.8115 39.09C79.2012 35.5735 80.071 33.626 80.43 33.2573C82.2548 33.0965 85.412 32.7752 89.893 32.293L90.1768 32.1227C90.186 32.2175 90.2428 32.2647 90.3467 32.2552L90.64 32.2267L90.9235 32.0568C90.933 32.1513 90.9898 32.1985 91.0938 32.189L94.4875 31.896C95.3855 31.8202 95.811 31.5462 95.773 31.083C95.7638 30.96 96.293 30.8183 97.3613 30.667C97.4652 30.6575 97.6165 30.686 97.8245 30.752C97.815 30.667 98.354 30.582 99.4317 30.4875C99.46 29.9202 99.6395 29.6178 99.961 29.5893L99.9327 29.3153C99.6302 29.3435 99.2898 29.4193 98.8928 29.5515C98.1838 29.5138 97.73 29.457 97.541 29.3908C97.3518 29.4948 97.21 29.5515 97.106 29.561L94.7428 29.6365L94.459 29.7878C94.4495 29.7028 94.393 29.665 94.289 29.6745L94.1565 29.6838L93.854 29.8353C93.8445 29.75 93.5987 29.6838 93.1072 29.6178L92.8047 29.7973L92.2188 29.8445L92.2093 29.6933C95.2533 29.3625 96.7562 28.9465 96.7185 28.455C96.917 28.436 97.021 28.5305 97.0397 28.729L97.9285 28.5023L97.9003 28.228L90.6115 28.4265C90.621 28.521 90.5737 28.5777 90.4697 28.5872L89.581 28.5117C89.3542 28.5305 89.1653 28.5968 89.014 28.7103L88.683 28.5872C87.766 28.663 87.0853 28.7762 86.6315 28.9182C86.0078 28.871 85.3175 28.8803 84.5518 28.9465L82.9165 29.0882L82.1602 29.0033C82.1222 28.521 83.0583 26.1483 84.9867 21.8943C85.5445 20.4573 86.055 19.5592 86.5465 19.219C86.6505 19.2095 86.8018 19.2473 87.0098 19.3323L88.1725 18.9352L88.768 19.0298C89.7702 18.9448 90.933 18.6613 92.266 18.1695C92.5967 18.1413 92.8425 18.1602 93.0222 18.2358L93.9108 18.0278L96.5577 17.8008C97.6827 17.7063 98.9023 17.4605 100.226 17.054L100.197 16.78C99.7057 16.8273 99.4505 16.742 99.4317 16.5435C99.4032 16.175 99.044 16.0235 98.354 16.0802L98.3255 15.8062L99.0535 15.5983L100.963 15.4375L100.935 15.1635C100.859 15.1727 100.471 15.1635 99.753 15.135L99.7247 14.842L100.462 14.7758C100.66 14.757 100.746 14.6623 100.727 14.4733C99.7343 14.5015 99.233 14.4542 99.2237 14.322C92.3037 14.6622 88.8343 14.7285 88.8155 14.511C88.7115 14.5205 88.5695 14.5868 88.3805 14.7002L88.201 14.4165C90.0347 10.5217 91.1125 8.55525 91.4245 8.527C91.434 8.67825 91.3583 8.924 91.1975 9.255L91.207 9.37775L91.5003 9.3495C92.228 7.61 92.8425 6.712 93.353 6.67425C95.5272 6.485 93.0505 6.34325 97.7018 5.61525C97.8908 5.7005 98.023 5.73825 98.1175 5.72875C99.942 5.36 102.485 4.9725 105.746 4.5755L105.728 4.30125L103.988 4.462L103.969 4.18775C104.177 4.169 104.348 4.10275 104.489 3.98925L104.499 4.1405C104.593 4.13125 104.726 4.065 104.896 3.9515C105.198 3.92325 105.425 3.9515 105.586 4.0365C106.191 3.876 106.682 3.78125 107.042 3.7435L108.129 3.6395C108.394 3.4695 108.517 3.31825 108.507 3.17625L108.497 3.0535C108.223 3.08175 107.911 3.063 107.543 2.99675C107.533 2.8455 107.609 2.7415 107.788 2.69425L109.812 2.50525L110.738 2.26875C110.747 2.37275 110.795 2.4105 110.87 2.4105C110.965 2.40125 111.097 2.335 111.267 2.2215C111.315 2.231 111.371 2.231 111.419 2.2405C111.296 2.49575 111.154 2.8645 111.012 3.3465L110.747 3.3655C110.729 3.18575 110.681 3.025 110.596 2.88325L110.464 2.89275C108.006 9.737 106.909 12.923 104.641 18.179C104.225 19.5215 103.875 20.2683 103.572 20.429C103.582 20.5803 103.676 20.6557 103.837 20.637C103.894 21.2987 103.743 21.951 103.374 22.5938C102.324 25.619 101.625 27.2733 101.266 27.5758L101.502 29.0033C101.511 29.1545 101.436 29.2395 101.275 29.2585L101.029 29.2775C100.992 28.8803 100.849 28.6912 100.594 28.7197L100.462 28.729C100.14 29.23 99.8948 29.8068 99.7343 30.478L99.98 30.459C100.311 30.2417 100.462 29.9865 100.434 29.6933L100.925 29.646L101.209 29.75C100.982 30.1092 100.878 30.393 100.897 30.6103L101.029 30.8372L100.708 31.5935L100.717 31.7165C101.001 31.688 101.313 31.7825 101.644 31.981C101.871 31.9623 102.117 31.8582 102.391 31.6785C102.674 31.6502 103.733 31.6408 105.558 31.6408L106.475 31.3288C107.59 31.3193 107.77 31.3478 108.734 31.2625L109.131 31.2248L109.339 31.083L109.348 31.206C110.36 31.1207 110.426 31.187 111.22 31.2815L111.229 31.4045L110.672 31.4517L110.691 31.688C110.861 31.669 111.012 31.6217 111.135 31.5177C111.277 31.5085 111.362 31.584 111.371 31.7542C111.144 31.773 110.889 31.8298 110.605 31.9242L110.36 31.8393C109.972 31.9433 110.057 31.9715 109.793 31.9905L109.405 31.915C109.414 31.981 109.377 32.0283 109.311 32.0283C109.32 32.1795 109.405 32.2552 109.547 32.2458L109.944 32.208L112.014 32.0283L112.799 31.8582C112.808 31.9242 112.836 31.9622 112.903 31.9527L113.281 31.811L113.99 31.7542C114.538 31.707 114.529 31.669 115.72 31.48C115.711 31.4045 115.739 31.376 115.796 31.3665L115.805 31.4705C117.743 31.1398 117.866 31.1208 118.178 31.0168L118.206 31.0735C118.688 30.96 118.414 30.9885 118.547 30.894C118.556 30.979 118.584 31.0168 118.632 31.0168L118.972 30.9885L118.953 30.7332L118.263 30.7237L118.254 30.7048C118.225 30.7143 118.206 30.7142 118.178 30.7237H118.083V30.7428C117.62 30.8372 117.61 30.771 117.308 30.7995L115.578 30.894L115.569 30.771L116.533 30.6388L116.883 30.6103L117.081 30.4685L117.091 30.5915C118.452 30.478 118.934 30.8183 125.23 29.476C125.571 29.4475 125.542 29.164 125.759 28.5777C125.644 28.5857 125.529 28.5594 125.429 28.5023C124.909 28.7008 124.634 28.6063 123.632 28.767C123.548 28.7765 123.481 28.7008 123.453 28.5495L123.443 28.4455L124.408 28.4737C124.587 28.455 124.937 28.4265 125.457 28.1335C125.457 28.2185 125.258 28.2658 125.372 28.2565H125.372ZM78.823 29.0033L78.3788 29.041C78.3598 28.8615 78.5963 28.1807 79.0878 27.018L79.3808 26.9897C79.3903 27.2638 79.2105 27.935 78.823 29.0033ZM79.362 26.8477L79.3525 26.725C79.343 26.5737 79.4375 26.4698 79.6455 26.4225L79.655 26.5452C79.6645 26.725 79.5697 26.829 79.362 26.8477ZM85.2702 31.4137L85.2797 31.5368L84.5425 31.603L84.533 31.48L85.2702 31.4137ZM84.3818 31.3382C84.3913 31.4895 84.1643 31.6597 83.6728 31.8298L82.765 31.7638L82.472 31.792L82.4437 31.5177L84.3818 31.3382ZM90.3562 3.838L89.912 3.876L89.9025 3.72475C89.893 3.5735 89.9782 3.4695 90.1673 3.42225L90.328 3.41275L90.6305 3.5355C90.6397 3.71525 90.5547 3.81925 90.3562 3.838ZM97.1155 2.5145L97.2572 2.50525L97.2763 2.77925L96.8698 2.817C96.8603 2.66575 96.9358 2.562 97.1155 2.5145ZM95.4137 3.11025L94.7428 3.0345L94.7333 2.91175C95.6125 2.836 95.9055 2.7415 96.4443 2.59025C96.4538 2.69425 96.5482 2.732 96.7185 2.71325L96.7373 2.98725L96.4727 3.01575C96.2647 3.0345 96.085 3.00625 95.9337 2.921C95.773 3.025 95.603 3.09125 95.4137 3.11025ZM96.2552 5.55875L96.2458 5.43575L97.333 5.33175L97.3425 5.45475L96.2552 5.55875ZM97.418 4.61325L97.4085 4.462L97.938 4.41475L97.9475 4.566L97.418 4.61325ZM97.541 2.7605L97.399 2.76975L97.522 2.47675L98.732 2.36325L98.7415 2.5145C98.4295 2.543 98.023 2.628 97.541 2.7605ZM98.1555 5.3695L98.1365 5.0955L98.666 5.04825C98.8455 5.02925 98.94 5.11425 98.9495 5.3035L98.1555 5.3695ZM101.36 1.002L100.679 1.19125L100.557 1.2005C100.235 1.229 99.8193 1.2195 99.3275 1.17225C100.207 1.1155 101.048 1.04925 101.36 1.002ZM100.632 4.02725L100.642 4.15L99.7057 4.23525L99.6963 4.11225L100.632 4.02725ZM102.164 4.755C102.154 4.64175 101.975 4.566 101.606 4.52825L100.67 4.793L99.9515 4.82125C99.7907 4.70775 99.7057 4.63225 99.6963 4.5755L100.528 4.62275L102.4 4.32025L103.355 4.358L103.364 4.50925C102.892 4.5565 102.494 4.64175 102.164 4.755ZM111.797 2.26875C111.91 2.27825 111.986 2.27825 112.014 2.27825C112.345 1.95675 112.714 1.7015 113.139 1.522C112.799 3.01575 112.269 4.12175 111.541 4.84025L111.012 4.51875C111.457 3.39375 111.721 2.647 111.797 2.26875ZM110.171 5.0575L110.303 5.04825C110.124 5.3885 109.963 5.568 109.83 5.5775L109.802 5.21825C109.887 5.21825 110.01 5.1615 110.171 5.0575ZM109.121 7.56275C109.377 6.54175 109.622 5.96525 109.849 5.814L109.859 5.93675C109.727 6.882 109.518 7.38325 109.244 7.421L109.291 8.0165C109.065 8.338 108.961 8.58375 108.97 8.77275L108.838 8.78225L108.762 7.95975C108.914 7.941 109.036 7.8085 109.121 7.56275ZM108.715 8.924C108.724 9.06575 108.63 9.39675 108.441 9.90725L108.309 9.91675L108.28 9.5575C108.46 9.1415 108.611 8.9335 108.715 8.924H108.715ZM101.086 31.064L101.076 30.96L101.322 30.9412L101.351 31.3005C101.218 31.31 101.124 31.2342 101.086 31.064ZM111.986 31.3477C111.976 31.2625 111.938 31.2247 111.854 31.2342L111.239 31.291L111.229 31.168H111.286L112.742 31.0452L112.752 31.168C112.326 31.187 112.071 31.2533 111.986 31.3477ZM111.258 31.0452C111.315 31.0735 111.286 31.102 111.258 31.1208C111.229 31.1112 111.192 31.083 111.258 31.0452ZM111.334 29.3435L110.521 29.4097L110.511 29.2868L111.248 29.2208L111.891 29.06C111.901 29.1355 111.938 29.164 112.024 29.1545C112.789 29.0222 112.714 28.9842 113.082 28.956C113.205 28.9465 113.281 29.0222 113.29 29.1735L111.334 29.3435ZM114.179 29.0977C113.725 29.0505 113.697 29.0128 113.376 29.041L113.366 28.937L114.094 28.871L114.104 28.975C114.028 28.9843 114.302 29.0033 114.179 29.0977ZM114.236 28.9655L114.226 28.8615L114.623 28.8235L114.633 28.9275L114.236 28.9655ZM115.115 28.8897L115.105 28.7857C115.172 28.7765 115.266 28.729 115.389 28.6345C115.588 28.6158 115.692 28.748 115.711 28.8993L115.115 28.8897ZM116.24 28.748L116.23 28.625L116.713 28.5872L116.722 28.7103L116.24 28.748ZM116.911 28.6912C116.902 28.5495 116.958 28.4645 117.081 28.4455L117.242 28.6535C117.232 28.5872 117.261 28.5495 117.317 28.54L117.44 28.767L116.911 28.6912ZM126.213 27.5947L126.223 27.5853V27.5758C126.223 27.5758 126.213 27.5852 126.213 27.5947ZM126.383 27.4718C126.459 27.4245 126.497 27.3773 126.317 27.349C126.232 27.4435 126.412 27.4718 126.223 27.4813L126.232 27.5662C126.251 27.5475 126.299 27.519 126.336 27.4907L126.232 27.5758V27.5853L126.034 27.8405L126.431 27.6987H126.478L126.459 27.4622L126.383 27.4718ZM127.074 28.0107L126.998 28.02L127.017 28.2565L127.575 28.2092C127.565 28.058 127.197 28.0107 127.074 28.0107Z" fill="#F9DC3E"/>
</g>
<defs>
<clipPath id="clip0_5_56">
<rect width="128" height="50" fill="white"/>
</clipPath>
</defs>
</svg>
